<svg width="83" height="66" viewBox="0 0 83 66" fill="none" xmlns="http://www.w3.org/2000/svg">
<path d="M76.4246 4.32092C75.7989 4.7191 75.4577 4.94662 75.0595 5.11727C74.0925 5.6292 73.1824 6.19802 72.2154 6.70996C71.8172 6.8806 71.3622 6.99437 70.9071 7.05125C70.3952 7.10813 69.8832 6.8806 69.7126 6.36867C69.542 5.79985 69.8264 5.40168 70.2814 5.11727C71.8741 4.03651 73.4668 2.842 75.0595 1.76124C75.6852 1.30619 76.3678 0.908019 77.0503 0.566728C79.155 -0.570907 80.6339 -0.00208931 81.1458 2.33006C81.8284 5.57232 82.2835 8.87146 82.7954 12.1137C82.9092 12.7394 82.7385 13.4789 82.5679 14.1046C82.4541 14.6734 82.1128 15.0716 81.3165 15.0147C80.6339 13.7064 80.0651 12.3413 79.7238 10.8623C79.3825 9.49716 79.0412 8.07512 78.4724 6.70996C78.188 7.39254 77.9036 8.132 77.5623 8.81458C76.5953 10.8623 75.6852 12.9669 74.5476 14.9009C72.2154 18.9964 68.6318 21.0442 63.9675 21.3286C61.4647 21.4423 58.9619 21.101 56.516 20.646C55.4353 20.4753 54.3545 20.3047 53.2738 20.1341C50.6572 19.7928 48.2113 20.3047 45.8791 21.4423C42.125 23.2625 39.224 26.0498 37.29 29.7471C35.9248 32.3636 34.901 35.1508 34.1615 37.9949C34.0477 38.3931 34.1046 38.7913 33.9909 39.1894C33.8771 39.4738 33.6496 39.9289 33.422 39.9858C33.1376 40.0427 32.5688 39.9289 32.3982 39.6445C32.1138 39.3032 32 38.7344 32 38.2793C32 37.4261 32.1706 36.5729 32.3413 35.7197C33.4789 30.8278 35.4129 26.2773 39.1671 22.7506C42.0112 20.0772 45.2534 18.1432 49.0645 17.3468C51.4536 16.8349 53.8426 17.1762 56.2316 17.5744C57.7106 17.8019 59.1895 18.1432 60.6684 18.3138C61.9767 18.4276 63.285 18.3707 64.5932 18.257C66.9254 18.0294 68.8594 16.9487 70.3383 15.1285C71.0209 14.3321 71.5897 13.4789 72.1016 12.5688C73.4099 10.1797 74.6613 7.73383 75.9696 5.34479C76.1402 5.11727 76.1971 4.83286 76.4246 4.32092Z" fill="white"/>
<path d="M2.864 61V49.8H0.432V61H2.864ZM7.22025 54.104H10.1323V52.056H7.22025V49.464H4.77225V52.056H3.58825V54.104H4.77225V57.704C4.77225 59 4.77225 61 7.22025 61C9.65225 61 10.1323 60.84 10.1323 60.84V58.472C7.79625 58.6 7.22025 58.776 7.22025 57.48V57.288V54.104ZM13.8585 50.6C13.8585 49.464 13.2185 48.872 12.4185 48.872C11.6345 48.872 10.9945 49.512 10.9945 50.312C10.9945 51.048 11.3785 51.64 12.2745 51.528C12.2265 51.944 11.6665 52.344 11.6665 52.344C11.6665 52.344 11.7145 52.536 11.8745 53.16C13.5545 52.568 13.8585 51.24 13.8585 50.6ZM18.575 55.56L18.367 55.544C16.799 55.304 16.527 55.08 16.527 54.68C16.527 54.408 16.815 53.912 18.175 53.912C19.583 53.912 20.191 54.296 20.191 55V55.08H22.671V55C22.671 53.624 21.887 51.976 18.175 51.976C14.719 51.976 13.999 53.464 13.999 54.712C13.999 56.504 15.599 57.08 18.175 57.416C18.303 57.432 18.431 57.448 18.559 57.464C19.535 57.576 20.399 57.704 20.399 58.376C20.399 58.968 19.471 59.096 18.495 59.096C16.879 59.096 16.303 58.744 16.303 57.976V57.896H13.807V58.072C13.791 58.536 13.791 59.288 14.415 59.912C15.135 60.632 16.527 61 18.559 61C21.311 61 22.911 60.568 22.911 58.344C22.911 56.216 20.607 55.864 18.575 55.56ZM33.8109 51.032C34.7389 51.032 36.0349 51.144 36.0349 51.144V49.08C36.0349 49.08 34.4829 48.856 32.9469 48.856C31.1229 48.856 30.3709 49.448 30.2269 52.024H28.9789V54.024H30.1949V61H32.6269V54.024H35.8749V52.024H32.6589C32.7229 51.224 32.9629 51.032 33.8109 51.032ZM41.8191 52.024C40.2671 52.024 39.7231 52.488 39.2111 53.352H39.0671V52.024H36.6351V61H39.0671V56.984C39.0671 55.768 39.5951 54.36 41.4031 54.36C42.1711 54.36 42.7951 54.488 43.0191 54.552L43.4031 52.264C42.9871 52.168 42.4591 52.024 41.8191 52.024ZM52.7176 57.08H52.8136C52.9416 55.848 52.7816 53.96 51.0536 52.776V52.792C50.3016 52.264 49.2776 51.944 48.0136 51.944C44.9896 51.944 43.1976 53.544 43.1976 56.472C43.1976 59.464 44.9416 61 48.0136 61C50.9576 61 52.5256 59.816 52.7656 57.88H50.4136C50.1896 58.472 49.4696 58.872 48.0136 58.872C46.4456 58.872 45.7256 58.28 45.5496 57.08H52.7176ZM48.0136 54.072C49.7416 54.072 50.1896 54.808 50.3816 55.48H45.6456C45.9336 54.568 46.6696 54.072 48.0136 54.072ZM63.077 57.08H63.173C63.301 55.848 63.141 53.96 61.413 52.776V52.792C60.661 52.264 59.637 51.944 58.373 51.944C55.349 51.944 53.557 53.544 53.557 56.472C53.557 59.464 55.301 61 58.373 61C61.317 61 62.885 59.816 63.125 57.88H60.773C60.549 58.472 59.829 58.872 58.373 58.872C56.805 58.872 56.085 58.28 55.909 57.08H63.077ZM58.373 54.072C60.101 54.072 60.549 54.808 60.741 55.48H56.005C56.293 54.568 57.029 54.072 58.373 54.072Z" fill="white"/>
</svg>
