<svg width="19" height="25" viewBox="0 0 19 25" fill="none" xmlns="http://www.w3.org/2000/svg">
<path d="M15.9107 10.0817H2.81978C2.01646 10.0817 1.36523 10.7383 1.36523 11.5483V21.815C1.36523 22.625 2.01646 23.2817 2.81978 23.2817H15.9107C16.714 23.2817 17.3652 22.625 17.3652 21.815V11.5483C17.3652 10.7383 16.714 10.0817 15.9107 10.0817Z" stroke="#0e1323" stroke-width="1.8" stroke-linecap="round" stroke-linejoin="round"/>
<path d="M4.27441 10.0817V6.41501C4.27441 5.05357 4.81078 3.74788 5.76551 2.7852C6.72024 1.82251 8.01513 1.28168 9.36532 1.28168C10.7155 1.28168 12.0104 1.82251 12.9651 2.7852C13.9199 3.74788 14.4562 5.05357 14.4562 6.41501V10.0817" stroke="#0e1323" stroke-width="1.8" stroke-linecap="round" stroke-linejoin="round"/>
</svg>
