<svg width="110" height="110" viewBox="0 0 110 110" fill="none" xmlns="http://www.w3.org/2000/svg">
<rect width="110" height="110" fill="white"/>
<rect width="110" height="110" fill="white"/>
<path opacity="0.4" d="M25.8975 52.6226C26.0447 59.5055 26.4568 71.2783 26.5157 72.5766C26.7247 75.3528 27.7875 78.1583 29.442 80.1367C31.7441 82.9128 34.5792 84.1522 38.5329 84.1522C43.9968 84.1816 50.0201 84.1816 55.8698 84.1816C61.7429 84.1816 67.4424 84.1816 72.2558 84.1522C76.1535 84.1522 79.0769 82.8804 81.3496 80.1367C83.0041 78.1583 84.0669 75.3233 84.217 72.5766C84.2759 71.4844 84.5703 58.7047 84.7469 52.6226H25.8975Z" fill="#7AAFFF"/>
<path d="M53.1182 65.2983V69.1078C53.1182 70.3265 54.1073 71.3157 55.3261 71.3157C56.5449 71.3157 57.5341 70.3265 57.5341 69.1078V65.2983C57.5341 64.0795 56.5449 63.0903 55.3261 63.0903C54.1073 63.0903 53.1182 64.0795 53.1182 65.2983" fill="#7AAFFF"/>
<path fill-rule="evenodd" clip-rule="evenodd" d="M50.0702 62.8611C49.7758 63.9298 48.7484 64.6128 47.6355 64.4656C40.1255 63.4175 32.9482 60.7533 26.8896 56.7525C26.2684 56.3462 25.8975 55.6514 25.8975 54.9095V44.7058C25.8975 38.5236 30.9375 33.4953 37.1345 33.4953H42.9252C43.4787 29.2207 47.0998 25.897 51.5216 25.897H59.1228C63.5417 25.897 67.1657 29.2207 67.7191 33.4953H73.5393C79.7187 33.4953 84.7469 38.5236 84.7469 44.7058V54.9095C84.7469 55.6514 84.373 56.3432 83.7577 56.7525C77.6873 60.7709 70.4806 63.447 62.9205 64.4921C62.8175 64.5068 62.7174 64.5127 62.6173 64.5127C61.6193 64.5127 60.7273 63.8385 60.477 62.8494C59.8824 60.506 57.7539 58.8662 55.3075 58.8662C52.8287 58.8662 50.7237 60.4707 50.0702 62.8611ZM59.1222 30.3132H51.521C49.5397 30.3132 47.8852 31.6674 47.3906 33.4956H63.2497C62.7551 31.6674 61.1006 30.3132 59.1222 30.3132Z" fill="#7AAFFF"/>
</svg>
