<svg width="494" height="535" viewBox="0 0 494 535" fill="none" xmlns="http://www.w3.org/2000/svg">
<rect opacity="0.7" width="494" height="535" rx="18" fill="white"/>
<path d="M35 49C35 40.1634 42.1634 33 51 33H452C460.837 33 468 40.1634 468 49V535H35V49Z" fill="white"/>
<rect x="35" y="92" width="430" height="88" fill="#F6FAFF"/>
<g opacity="0.3">
<circle cx="369.023" cy="316.023" r="14.023" fill="#A19FFF"/>
<path d="M376.034 314.419C375.991 314.395 375.943 314.383 375.893 314.385C375.844 314.386 375.796 314.401 375.755 314.427L370.342 317.812C369.949 318.057 369.494 318.186 369.031 318.186C368.567 318.186 368.113 318.057 367.719 317.812L362.298 314.427C362.257 314.401 362.209 314.386 362.16 314.385C362.11 314.383 362.062 314.395 362.019 314.419C361.976 314.443 361.94 314.478 361.915 314.52C361.89 314.563 361.877 314.611 361.877 314.66V319.872C361.877 320.309 362.05 320.728 362.359 321.037C362.668 321.347 363.086 321.521 363.523 321.522H374.522C374.959 321.522 375.379 321.348 375.688 321.039C375.998 320.729 376.172 320.31 376.172 319.872V314.66C376.172 314.611 376.159 314.563 376.135 314.521C376.111 314.479 376.076 314.444 376.034 314.419Z" fill="white"/>
<path d="M374.521 310.523H363.523C363.085 310.523 362.666 310.697 362.356 311.007C362.047 311.316 361.873 311.736 361.873 312.173C361.873 312.187 361.877 312.201 361.884 312.213C361.891 312.225 361.901 312.235 361.913 312.242L368.585 316.413C368.717 316.496 368.87 316.539 369.025 316.539C369.181 316.539 369.333 316.496 369.465 316.413L376.139 312.242C376.149 312.234 376.158 312.224 376.163 312.212C376.169 312.2 376.171 312.186 376.171 312.173C376.171 311.736 375.997 311.316 375.688 311.007C375.378 310.697 374.959 310.523 374.521 310.523Z" fill="white"/>
<circle cx="408.527" cy="316.023" r="14.023" fill="#A19FFF"/>
<path d="M414.645 319.306L412.311 316.973C411.899 316.561 411.34 316.329 410.757 316.329C410.174 316.329 409.615 316.561 409.202 316.973L408.662 317.513C408.076 318.045 407.703 318.771 407.612 319.557C407.593 319.792 407.606 320.028 407.649 320.26C406.179 319.549 404.993 318.362 404.284 316.891C404.79 316.971 405.308 316.921 405.79 316.745C406.271 316.569 406.7 316.274 407.036 315.887L407.575 315.348C407.779 315.143 407.941 314.901 408.052 314.634C408.162 314.367 408.219 314.082 408.219 313.793C408.219 313.504 408.162 313.218 408.052 312.951C407.941 312.684 407.779 312.442 407.575 312.238L405.242 309.903C405.052 309.713 404.818 309.573 404.561 309.496C404.304 309.418 404.031 309.405 403.768 309.459C403.505 309.512 403.259 309.63 403.052 309.801C402.845 309.972 402.684 310.192 402.583 310.441C401.925 312.052 401.758 313.822 402.102 315.528C402.447 317.233 403.288 318.799 404.519 320.029C406.183 321.674 408.425 322.604 410.765 322.62C411.911 322.618 413.045 322.396 414.106 321.965C414.355 321.864 414.575 321.703 414.747 321.496C414.918 321.289 415.036 321.043 415.089 320.78C415.142 320.517 415.13 320.245 415.052 319.987C414.975 319.73 414.835 319.496 414.645 319.306V319.306Z" fill="white"/>
</g>
<g opacity="0.3">
<circle cx="369.023" cy="406.023" r="14.023" fill="#C39FFF"/>
<path d="M376.034 404.419C375.991 404.395 375.943 404.383 375.893 404.385C375.844 404.386 375.796 404.401 375.755 404.427L370.342 407.812C369.949 408.057 369.494 408.186 369.031 408.186C368.567 408.186 368.113 408.057 367.719 407.812L362.298 404.427C362.257 404.401 362.209 404.386 362.16 404.385C362.11 404.383 362.062 404.395 362.019 404.419C361.976 404.443 361.94 404.478 361.915 404.52C361.89 404.563 361.877 404.611 361.877 404.66V409.872C361.877 410.309 362.05 410.728 362.359 411.037C362.668 411.347 363.086 411.521 363.523 411.522H374.522C374.959 411.522 375.379 411.348 375.688 411.039C375.998 410.729 376.172 410.31 376.172 409.872V404.66C376.172 404.611 376.159 404.563 376.135 404.521C376.111 404.479 376.076 404.444 376.034 404.419Z" fill="white"/>
<path d="M374.521 400.523H363.523C363.085 400.523 362.666 400.697 362.356 401.007C362.047 401.316 361.873 401.736 361.873 402.173C361.873 402.187 361.877 402.201 361.884 402.213C361.891 402.225 361.901 402.235 361.913 402.242L368.585 406.413C368.717 406.496 368.87 406.539 369.025 406.539C369.181 406.539 369.333 406.496 369.465 406.413L376.139 402.242C376.149 402.234 376.158 402.224 376.163 402.212C376.169 402.2 376.171 402.186 376.171 402.173C376.171 401.736 375.997 401.316 375.688 401.007C375.378 400.697 374.959 400.523 374.521 400.523Z" fill="white"/>
<circle cx="408.527" cy="406.023" r="14.023" fill="#C39FFF"/>
<path d="M414.645 409.306L412.311 406.973C411.899 406.561 411.34 406.329 410.757 406.329C410.174 406.329 409.615 406.561 409.202 406.973L408.662 407.513C408.076 408.045 407.703 408.771 407.612 409.557C407.593 409.792 407.606 410.028 407.649 410.26C406.179 409.549 404.993 408.362 404.284 406.891C404.79 406.971 405.308 406.921 405.79 406.745C406.271 406.569 406.7 406.274 407.036 405.887L407.575 405.348C407.779 405.143 407.941 404.901 408.052 404.634C408.162 404.367 408.219 404.082 408.219 403.793C408.219 403.504 408.162 403.218 408.052 402.951C407.941 402.684 407.779 402.442 407.575 402.238L405.242 399.903C405.052 399.713 404.818 399.573 404.561 399.496C404.304 399.418 404.031 399.405 403.768 399.459C403.505 399.512 403.259 399.63 403.052 399.801C402.845 399.972 402.684 400.192 402.583 400.441C401.925 402.052 401.758 403.822 402.102 405.528C402.447 407.233 403.288 408.799 404.519 410.029C406.183 411.674 408.425 412.604 410.765 412.62C411.911 412.618 413.045 412.396 414.106 411.965C414.355 411.864 414.575 411.703 414.747 411.496C414.918 411.289 415.036 411.043 415.089 410.78C415.142 410.517 415.13 410.245 415.052 409.987C414.975 409.73 414.835 409.496 414.645 409.306V409.306Z" fill="white"/>
</g>
<g opacity="0.3">
<circle cx="369.023" cy="496.023" r="14.023" fill="#D59FFF"/>
<path d="M376.034 494.419C375.991 494.395 375.943 494.383 375.893 494.385C375.844 494.386 375.796 494.401 375.755 494.427L370.342 497.812C369.949 498.057 369.494 498.186 369.031 498.186C368.567 498.186 368.113 498.057 367.719 497.812L362.298 494.427C362.257 494.401 362.209 494.386 362.16 494.385C362.11 494.383 362.062 494.395 362.019 494.419C361.976 494.443 361.94 494.478 361.915 494.52C361.89 494.563 361.877 494.611 361.877 494.66V499.872C361.877 500.309 362.05 500.728 362.359 501.037C362.668 501.347 363.086 501.521 363.523 501.522H374.522C374.959 501.522 375.379 501.348 375.688 501.039C375.998 500.729 376.172 500.31 376.172 499.872V494.66C376.172 494.611 376.159 494.563 376.135 494.521C376.111 494.479 376.076 494.444 376.034 494.419Z" fill="white"/>
<path d="M374.521 490.523H363.523C363.085 490.523 362.666 490.697 362.356 491.007C362.047 491.316 361.873 491.736 361.873 492.173C361.873 492.187 361.877 492.201 361.884 492.213C361.891 492.225 361.901 492.235 361.913 492.242L368.585 496.413C368.717 496.496 368.87 496.539 369.025 496.539C369.181 496.539 369.333 496.496 369.465 496.413L376.139 492.242C376.149 492.234 376.158 492.224 376.163 492.212C376.169 492.2 376.171 492.186 376.171 492.173C376.171 491.736 375.997 491.316 375.688 491.007C375.378 490.697 374.959 490.523 374.521 490.523Z" fill="white"/>
<circle cx="408.527" cy="496.023" r="14.023" fill="#D59FFF"/>
<path d="M414.645 499.306L412.311 496.973C411.899 496.561 411.34 496.329 410.757 496.329C410.174 496.329 409.615 496.561 409.202 496.973L408.662 497.513C408.076 498.045 407.703 498.771 407.612 499.557C407.593 499.792 407.606 500.028 407.649 500.26C406.179 499.549 404.993 498.362 404.284 496.891C404.79 496.971 405.308 496.921 405.79 496.745C406.271 496.569 406.7 496.274 407.036 495.887L407.575 495.348C407.779 495.143 407.941 494.901 408.052 494.634C408.162 494.367 408.219 494.082 408.219 493.793C408.219 493.504 408.162 493.218 408.052 492.951C407.941 492.684 407.779 492.442 407.575 492.238L405.242 489.903C405.052 489.713 404.818 489.573 404.561 489.496C404.304 489.418 404.031 489.405 403.768 489.459C403.505 489.512 403.259 489.63 403.052 489.801C402.845 489.972 402.684 490.192 402.583 490.441C401.925 492.052 401.758 493.822 402.102 495.528C402.447 497.233 403.288 498.799 404.519 500.029C406.183 501.674 408.425 502.604 410.765 502.62C411.911 502.618 413.045 502.396 414.106 501.965C414.355 501.864 414.575 501.703 414.747 501.496C414.918 501.289 415.036 501.043 415.089 500.78C415.142 500.517 415.13 500.245 415.052 499.987C414.975 499.73 414.835 499.496 414.645 499.306V499.306Z" fill="white"/>
</g>
<g opacity="0.3">
<circle cx="369.023" cy="225.023" r="14.023" fill="#A19FFF"/>
<path d="M376.034 223.419C375.991 223.395 375.943 223.383 375.893 223.385C375.844 223.386 375.796 223.401 375.755 223.427L370.342 226.812C369.949 227.057 369.494 227.186 369.031 227.186C368.567 227.186 368.113 227.057 367.719 226.812L362.298 223.427C362.257 223.401 362.209 223.386 362.16 223.385C362.11 223.383 362.062 223.395 362.019 223.419C361.976 223.443 361.94 223.478 361.915 223.52C361.89 223.563 361.877 223.611 361.877 223.66V228.872C361.877 229.309 362.05 229.728 362.359 230.037C362.668 230.347 363.086 230.521 363.523 230.522H374.522C374.959 230.522 375.379 230.348 375.688 230.039C375.998 229.729 376.172 229.31 376.172 228.872V223.66C376.172 223.611 376.159 223.563 376.135 223.521C376.111 223.479 376.076 223.444 376.034 223.419Z" fill="white"/>
<path d="M374.521 219.523H363.523C363.085 219.523 362.666 219.697 362.356 220.007C362.047 220.316 361.873 220.736 361.873 221.173C361.873 221.187 361.877 221.201 361.884 221.213C361.891 221.225 361.901 221.235 361.913 221.242L368.585 225.413C368.717 225.496 368.87 225.539 369.025 225.539C369.181 225.539 369.333 225.496 369.465 225.413L376.139 221.242C376.149 221.234 376.158 221.224 376.163 221.212C376.169 221.2 376.171 221.186 376.171 221.173C376.171 220.736 375.997 220.316 375.688 220.007C375.378 219.697 374.959 219.523 374.521 219.523Z" fill="white"/>
<circle cx="408.527" cy="225.023" r="14.023" fill="#A19FFF"/>
<path d="M414.645 228.306L412.311 225.973C411.899 225.561 411.34 225.329 410.757 225.329C410.174 225.329 409.615 225.561 409.202 225.973L408.662 226.513C408.076 227.045 407.703 227.771 407.612 228.557C407.593 228.792 407.606 229.028 407.649 229.26C406.179 228.549 404.993 227.362 404.284 225.891C404.79 225.971 405.308 225.921 405.79 225.745C406.271 225.569 406.7 225.274 407.036 224.887L407.575 224.348C407.779 224.143 407.941 223.901 408.052 223.634C408.162 223.367 408.219 223.082 408.219 222.793C408.219 222.504 408.162 222.218 408.052 221.951C407.941 221.684 407.779 221.442 407.575 221.238L405.242 218.903C405.052 218.713 404.818 218.573 404.561 218.496C404.304 218.418 404.031 218.405 403.768 218.459C403.505 218.512 403.259 218.63 403.052 218.801C402.845 218.972 402.684 219.192 402.583 219.441C401.925 221.052 401.758 222.822 402.102 224.528C402.447 226.233 403.288 227.799 404.519 229.029C406.183 230.674 408.425 231.604 410.765 231.62C411.911 231.618 413.045 231.396 414.106 230.965C414.355 230.864 414.575 230.703 414.747 230.496C414.918 230.289 415.036 230.043 415.089 229.78C415.142 229.517 415.13 229.245 415.052 228.987C414.975 228.73 414.835 228.496 414.645 228.306V228.306Z" fill="white"/>
</g>
<line x1="60" y1="91.5" x2="448" y2="91.5" stroke="#EBEDF6"/>
<line x1="60" y1="179.5" x2="448" y2="179.5" stroke="#EBEDF6"/>
<line x1="60" y1="269.5" x2="448" y2="269.5" stroke="#EBEDF6"/>
<line x1="60" y1="360.5" x2="448" y2="360.5" stroke="#EBEDF6"/>
<line x1="60" y1="450.5" x2="448" y2="450.5" stroke="#EBEDF6"/>
<circle cx="369.472" cy="134.958" r="14.023" fill="#93BEFF"/>
<path d="M376.483 133.354C376.44 133.33 376.392 133.318 376.343 133.319C376.293 133.321 376.246 133.335 376.204 133.362L370.792 136.747C370.398 136.991 369.944 137.121 369.48 137.121C369.017 137.121 368.562 136.991 368.169 136.747L362.747 133.362C362.706 133.335 362.658 133.321 362.609 133.319C362.56 133.318 362.511 133.33 362.468 133.354C362.425 133.378 362.389 133.413 362.364 133.455C362.339 133.497 362.326 133.546 362.326 133.595V138.807C362.326 139.244 362.5 139.663 362.808 139.972C363.117 140.282 363.536 140.456 363.973 140.457H374.971C375.409 140.457 375.828 140.283 376.138 139.973C376.447 139.664 376.621 139.244 376.621 138.807V133.595C376.621 133.546 376.609 133.498 376.585 133.456C376.56 133.414 376.525 133.378 376.483 133.354Z" fill="white"/>
<path d="M374.97 129.458H363.972C363.534 129.458 363.115 129.632 362.805 129.941C362.496 130.251 362.322 130.67 362.322 131.108C362.322 131.122 362.326 131.136 362.333 131.148C362.34 131.16 362.35 131.17 362.362 131.177L369.035 135.348C369.166 135.43 369.319 135.474 369.475 135.474C369.63 135.474 369.783 135.43 369.914 135.348L376.588 131.177C376.599 131.169 376.607 131.158 376.612 131.146C376.618 131.134 376.621 131.121 376.62 131.108C376.62 130.67 376.446 130.251 376.137 129.941C375.828 129.632 375.408 129.458 374.97 129.458Z" fill="white"/>
<circle cx="408.976" cy="134.958" r="14.023" fill="#93BEFF"/>
<path d="M413.347 136.279C413.205 136.137 413.037 136.025 412.852 135.948C412.667 135.871 412.468 135.832 412.268 135.832C412.067 135.832 411.869 135.871 411.683 135.948C411.498 136.025 411.33 136.137 411.188 136.279L410.954 136.515C409.676 135.441 408.493 134.258 407.42 132.979L407.656 132.745C407.941 132.458 408.102 132.07 408.102 131.666C408.102 131.261 407.941 130.873 407.656 130.587L406.359 129.29C406.068 129.013 405.681 128.858 405.279 128.858C404.877 128.858 404.491 129.013 404.2 129.29L403.489 130.001C403.143 130.35 402.927 130.807 402.878 131.296C402.829 131.786 402.95 132.277 403.22 132.687C405.332 135.871 408.06 138.599 411.243 140.712C411.655 140.978 412.145 141.096 412.633 141.047C413.121 140.998 413.578 140.785 413.929 140.442L414.639 139.732C414.925 139.446 415.086 139.058 415.086 138.653C415.086 138.248 414.925 137.86 414.639 137.574L413.347 136.279Z" fill="white"/>
<rect x="231.152" y="130.958" width="88.0166" height="8" rx="4" fill="#E4E6EE"/>
<rect x="118.309" y="137.958" width="86.6822" height="8" rx="4" fill="#E4E6EE"/>
<rect x="118.309" y="123.958" width="56.3244" height="8" rx="4" fill="#A9AFC0"/>
<circle cx="82.1541" cy="134.701" r="23.1541" fill="#93BEFF"/>
<path d="M82.6462 135.761C86.5713 135.761 89.7533 132.579 89.7533 128.654C89.7533 124.729 86.5713 121.547 82.6462 121.547C78.721 121.547 75.5391 124.729 75.5391 128.654C75.5391 132.579 78.721 135.761 82.6462 135.761Z" fill="white"/>
<path d="M82.6469 137.425C80.0386 137.318 77.471 138.097 75.3612 139.634C73.2515 141.172 71.7236 143.377 71.0257 145.893C70.9756 146.155 70.999 146.426 71.0934 146.675C71.1878 146.925 71.3495 147.143 71.5606 147.307C72.0711 147.719 72.7109 147.937 73.3668 147.923H91.9298C92.5857 147.937 93.2255 147.719 93.736 147.307C93.9471 147.143 94.1088 146.925 94.2032 146.675C94.2976 146.426 94.321 146.155 94.2709 145.893C93.5729 143.377 92.0446 141.171 89.9343 139.633C87.8239 138.096 85.2557 137.318 82.6469 137.425V137.425Z" fill="white"/>
<g opacity="0.5">
<rect x="231" y="221.547" width="61" height="8" rx="4" fill="#E4E6EE"/>
<rect x="118" y="228" width="41" height="8" rx="4" fill="#E4E6EE"/>
<rect x="118" y="214" width="74" height="8" rx="4" fill="#A9AFC0"/>
<circle cx="82.1541" cy="224.701" r="23.1541" fill="#A19FFF"/>
<path d="M82.6462 225.761C86.5713 225.761 89.7533 222.579 89.7533 218.654C89.7533 214.729 86.5713 211.547 82.6462 211.547C78.721 211.547 75.5391 214.729 75.5391 218.654C75.5391 222.579 78.721 225.761 82.6462 225.761Z" fill="white"/>
<path d="M82.6469 227.425C80.0386 227.318 77.471 228.097 75.3612 229.634C73.2515 231.172 71.7236 233.377 71.0257 235.893C70.9756 236.155 70.999 236.426 71.0934 236.675C71.1878 236.925 71.3495 237.143 71.5606 237.307C72.0711 237.719 72.7109 237.937 73.3668 237.923H91.9298C92.5857 237.937 93.2255 237.719 93.736 237.307C93.9471 237.143 94.1088 236.925 94.2032 236.675C94.2976 236.426 94.321 236.155 94.2709 235.893C93.5729 233.377 92.0446 231.171 89.9343 229.633C87.8239 228.096 85.2557 227.318 82.6469 227.425V227.425Z" fill="white"/>
</g>
<g opacity="0.5">
<rect x="231" y="311.547" width="80" height="8" rx="4" fill="#E4E6EE"/>
<rect x="118.309" y="318.154" width="86.6822" height="8" rx="4" fill="#E4E6EE"/>
<rect x="118.309" y="304.154" width="56.3244" height="8" rx="4" fill="#A9AFC0"/>
<circle cx="82.1541" cy="314.701" r="23.1541" fill="#A19FFF"/>
<path d="M82.6462 315.761C86.5713 315.761 89.7533 312.579 89.7533 308.654C89.7533 304.729 86.5713 301.547 82.6462 301.547C78.721 301.547 75.5391 304.729 75.5391 308.654C75.5391 312.579 78.721 315.761 82.6462 315.761Z" fill="white"/>
<path d="M82.6469 317.425C80.0386 317.318 77.471 318.097 75.3612 319.634C73.2515 321.172 71.7236 323.377 71.0257 325.893C70.9756 326.155 70.999 326.426 71.0934 326.675C71.1878 326.925 71.3495 327.143 71.5606 327.307C72.0711 327.719 72.7109 327.937 73.3668 327.923H91.9298C92.5857 327.937 93.2255 327.719 93.736 327.307C93.9471 327.143 94.1088 326.925 94.2032 326.675C94.2976 326.426 94.321 326.155 94.2709 325.893C93.5729 323.377 92.0446 321.171 89.9343 319.633C87.8239 318.096 85.2557 317.318 82.6469 317.425V317.425Z" fill="white"/>
</g>
<g opacity="0.5">
<rect x="231" y="402.547" width="35" height="8" rx="4" fill="#E4E6EE"/>
<rect x="118" y="409.547" width="37" height="8" rx="4" fill="#E4E6EE"/>
<rect x="118" y="395.547" width="74" height="8" rx="4" fill="#A9AFC0"/>
<circle cx="82.1541" cy="405.701" r="23.1541" fill="#C39FFF"/>
<path d="M82.6462 406.761C86.5713 406.761 89.7533 403.579 89.7533 399.654C89.7533 395.729 86.5713 392.547 82.6462 392.547C78.721 392.547 75.5391 395.729 75.5391 399.654C75.5391 403.579 78.721 406.761 82.6462 406.761Z" fill="white"/>
<path d="M82.6469 408.425C80.0386 408.318 77.471 409.097 75.3612 410.634C73.2515 412.172 71.7236 414.377 71.0257 416.893C70.9756 417.155 70.999 417.426 71.0934 417.675C71.1878 417.925 71.3495 418.143 71.5606 418.307C72.0711 418.719 72.7109 418.937 73.3668 418.923H91.9298C92.5857 418.937 93.2255 418.719 93.736 418.307C93.9471 418.143 94.1088 417.925 94.2032 417.675C94.2976 417.426 94.321 417.155 94.2709 416.893C93.5729 414.377 92.0446 412.171 89.9343 410.633C87.8239 409.096 85.2557 408.318 82.6469 408.425V408.425Z" fill="white"/>
</g>
<g opacity="0.5">
<rect x="231" y="492.547" width="71" height="8" rx="4" fill="#E4E6EE"/>
<rect x="118" y="499.547" width="41" height="8" rx="4" fill="#E4E6EE"/>
<rect x="118" y="485.547" width="74" height="8" rx="4" fill="#A9AFC0"/>
<circle cx="82.1541" cy="496.154" r="23.1541" fill="#D59FFF"/>
<path d="M82.6462 496.761C86.5713 496.761 89.7533 493.579 89.7533 489.654C89.7533 485.729 86.5713 482.547 82.6462 482.547C78.721 482.547 75.5391 485.729 75.5391 489.654C75.5391 493.579 78.721 496.761 82.6462 496.761Z" fill="white"/>
<path d="M82.6469 498.425C80.0386 498.318 77.471 499.097 75.3612 500.634C73.2515 502.172 71.7236 504.377 71.0257 506.893C70.9756 507.155 70.999 507.426 71.0934 507.675C71.1878 507.925 71.3495 508.143 71.5606 508.307C72.0711 508.719 72.7109 508.937 73.3668 508.923H91.9298C92.5857 508.937 93.2255 508.719 93.736 508.307C93.9471 508.143 94.1088 507.925 94.2032 507.675C94.2976 507.426 94.321 507.155 94.2709 506.893C93.5729 504.377 92.0446 502.171 89.9343 500.633C87.8239 499.096 85.2557 498.318 82.6469 498.425V498.425Z" fill="white"/>
</g>
<rect x="58.1406" y="58" width="84.0932" height="9.78212" rx="4.89106" fill="#B4B9CF"/>
<rect x="229.152" y="58" width="37.3458" height="9.78212" rx="4.89106" fill="#B4B9CF"/>
<rect x="355" y="58" width="55.6531" height="9.78212" rx="4.89106" fill="#B4B9CF"/>
</svg>
