<svg width="136" height="33" viewBox="0 0 136 33" fill="none" xmlns="http://www.w3.org/2000/svg">
<g clip-path="url(#clip0)">
<path d="M14.6134 0.534513C12.8532 0.728351 10.2128 1.53352 8.71057 2.3387C4.67421 4.47092 1.94283 7.79598 0.577146 12.2244C0.304008 13.0892 -0.0146525 15.4451 0.000521848 16.5485C0.000521848 17.5177 0.304008 19.8885 0.4861 20.4551C0.577146 20.7235 0.774412 21.3646 0.941329 21.8567C1.21447 22.6917 2.53463 25.316 2.76225 25.4949C2.80777 25.5396 3.05056 25.8378 3.27817 26.1808C3.83962 27.0009 5.31153 28.4621 6.41925 29.2971C7.26902 29.9382 9.66656 31.2951 9.97004 31.31C10.0459 31.31 10.0611 30.7434 10.0156 29.9979C9.90934 28.3428 10.228 26.0913 10.9108 23.7951C11.0322 23.4074 11.1233 22.9004 11.1233 22.6768C11.1233 22.4531 11.184 22.2145 11.2599 22.14C11.3357 22.0505 11.4723 21.6181 11.5482 21.1708C11.6392 20.7235 11.791 20.0376 11.8972 19.6499C12.0489 19.0684 12.0337 18.8447 11.8213 18.2185C11.5178 17.2642 11.5026 15.7135 11.8061 14.968C12.5193 13.1936 13.3084 12.5226 14.6437 12.5226C16.2522 12.5226 17.0261 13.7155 16.7226 15.7135C16.586 16.6231 16.2067 18.0545 15.9639 18.5018C15.9032 18.636 15.797 19.0088 15.7515 19.3219C15.6908 19.6499 15.5694 20.1122 15.4935 20.3656C15.2811 20.9471 15.6908 22.0804 16.237 22.5128C16.753 22.9153 17.8303 23.0346 18.8167 22.811C19.5147 22.6619 19.803 22.4829 20.5314 21.797C21.3963 20.9621 22.0488 19.9929 22.0488 19.5306C22.0488 19.3964 22.1247 19.2175 22.2157 19.128C22.6406 18.7106 22.8682 15.46 22.5495 14.0883C22.2005 12.5823 21.1232 11.1061 19.7271 10.2413C18.3311 9.3616 15.448 9.10812 13.6726 9.70454C12.4283 10.122 11.3206 10.8228 10.6074 11.6429C9.97004 12.3735 9.30237 13.5664 9.30237 13.9839C9.30237 14.133 9.2265 14.3268 9.13546 14.4163C9.04441 14.5058 8.93819 15.0724 8.89267 15.6837C8.8168 16.5932 8.87749 17.0107 9.15063 17.9054C9.33272 18.5167 9.66656 19.2324 9.86382 19.5008C10.2735 20.0376 10.2735 20.2463 9.89417 21.6778C9.78795 22.0654 9.60586 22.4233 9.49964 22.468C8.54366 22.8259 6.60135 20.5744 5.94885 18.3378C5.70606 17.4879 5.69089 14.461 5.93368 13.5664C6.0399 13.1936 6.22199 12.6867 6.34338 12.4183C6.46478 12.1648 6.571 11.9113 6.571 11.8517C6.571 11.792 6.87448 11.2851 7.25384 10.7334C9.2265 7.81089 12.4283 6.26019 16.4798 6.26019C17.4055 6.26019 18.3614 6.31983 18.6194 6.39438C20.7135 7.03554 21.2749 7.24429 22.0943 7.72143C23.6876 8.6608 24.8409 9.94311 25.9941 12.0902C26.07 12.2244 26.1762 12.5823 26.2217 12.8805C26.2824 13.1787 26.3886 13.462 26.4645 13.5067C26.5404 13.5515 26.6011 14.5207 26.6011 15.6688C26.6011 17.7414 26.4493 18.5764 25.812 20.2762C25.0988 22.14 23.2627 24.1977 21.5936 25.0028C20.6376 25.4501 18.847 25.9422 18.1338 25.9422C17.1778 25.9422 15.2962 25.1668 14.7803 24.5406C14.5375 24.2573 14.3099 24.3617 14.3099 24.7643C14.3099 24.9134 14.2492 25.1668 14.1582 25.316C14.0823 25.4502 13.9457 25.8676 13.8698 26.2404C13.4298 28.2086 12.8076 29.804 11.8517 31.2951C11.5633 31.7573 11.8061 32.0257 12.5952 32.1301C12.9897 32.1897 13.5208 32.2941 13.7636 32.3687C14.3706 32.5625 17.6634 32.5327 18.7711 32.3389C19.7726 32.1599 21.3963 31.7126 22.1247 31.4144C26.7073 29.5655 30.1822 25.808 31.6845 21.0217C32.4887 18.472 32.5342 15.5048 31.8059 12.5226C31.5631 11.5535 31.4872 11.3298 30.8347 9.83874C29.8939 7.66179 27.7695 5.11207 25.6148 3.54646C23.7635 2.2045 21.9426 1.42915 19.105 0.758172C18.3159 0.579245 15.5087 0.430138 14.6134 0.534513V0.534513ZM55.0833 5.91724C54.4915 6.00671 53.5507 6.96099 53.3079 7.70652C53.0499 8.5266 53.3079 9.40633 54.0362 10.0922C55.6447 11.628 58.4368 10.1817 58.0878 7.97491C57.8753 6.57331 56.5703 5.67868 55.0833 5.91724ZM38.5433 6.79697C38.4067 6.94608 38.4067 24.9283 38.5584 25.137C38.6343 25.2563 39.2868 25.301 40.5614 25.2861L42.4582 25.2712L42.5341 22.2444C42.5948 19.7841 42.6555 19.1877 42.8376 19.0833C42.959 19.0088 43.9908 18.9342 45.1289 18.9342C47.6175 18.9342 48.6645 18.7553 49.8026 18.1589C51.2897 17.3686 52.1546 16.2354 52.625 14.4312C52.9133 13.298 52.9133 12.4779 52.6098 11.3149C52.3367 10.2711 52.2153 10.0177 51.5628 9.16776C50.7586 8.10911 49.9392 7.52759 48.6038 7.06536C47.8603 6.82679 47.2381 6.78206 43.217 6.73733C40.7132 6.70751 38.604 6.73733 38.5433 6.79697V6.79697ZM46.874 10.5097C47.8906 10.8228 48.3914 11.2702 48.619 12.0753C48.9073 13.134 48.6949 14.1181 48.0576 14.7145C47.3595 15.3557 46.7374 15.5048 44.704 15.5048C43.3687 15.5048 42.959 15.46 42.7769 15.2662C42.5796 15.0873 42.5341 14.6549 42.5341 12.9551C42.5341 10.2711 42.5189 10.2861 44.6282 10.2861C45.5386 10.2861 46.4187 10.3755 46.874 10.5097ZM73.4897 9.62999C73.4897 10.6588 73.4138 11.628 73.338 11.792C73.2317 11.9859 73.0193 12.0753 72.6551 12.0753C72.382 12.0753 72.124 12.135 72.0937 12.2244C72.0785 12.299 72.0785 12.8209 72.124 13.3726C72.1999 14.3567 72.2151 14.3716 72.6703 14.4759C72.9282 14.5207 73.2166 14.6101 73.3076 14.6698C73.4442 14.7443 73.4897 15.9223 73.4897 18.9044C73.4897 22.9153 73.5049 23.0645 73.8387 23.6609C74.5367 24.9283 75.6293 25.3756 77.8447 25.316L79.3318 25.2712L79.3773 23.8249L79.4229 22.3637H79.0435C78.4669 22.3637 77.6171 21.9163 77.5261 21.5585C77.4805 21.3796 77.435 19.799 77.435 18.0247C77.435 15.5793 77.4805 14.7592 77.6323 14.64C77.7385 14.5505 78.1634 14.461 78.5731 14.4312L79.3318 14.3865V12.1499L78.4972 12.1051C78.042 12.0753 77.6171 11.971 77.5564 11.8815C77.4957 11.7771 77.435 10.8079 77.435 9.71945V7.75125H73.4897V9.62999ZM129.893 7.84071C129.832 7.90036 129.786 8.83973 129.786 9.9282C129.786 12.0455 129.771 12.0753 128.937 12.0753C128.557 12.0753 128.557 12.0902 128.603 13.2234C128.648 14.3567 128.663 14.3865 129.058 14.4312C129.27 14.461 129.528 14.5654 129.604 14.6549C129.695 14.7592 129.786 16.5634 129.832 18.8597C129.877 21.0664 129.953 23.0794 130.014 23.3179C130.196 23.974 131.137 24.809 132.032 25.0923C133.034 25.4203 135.583 25.4502 135.841 25.137C135.962 25.0028 136.008 24.466 135.978 23.6907L135.932 22.4382L135.401 22.3487C134.824 22.2593 134.172 21.9611 134.005 21.7076C133.944 21.6181 133.883 19.9929 133.883 18.0992C133.883 14.2075 133.792 14.461 135.113 14.461C135.978 14.461 136.053 14.3119 135.978 12.9551L135.932 12.1499L134.946 12.0753L133.959 12.0008L133.883 9.91329L133.808 7.8258L131.896 7.78107C130.849 7.76616 129.953 7.79598 129.893 7.84071V7.84071ZM65.9784 11.7175C65.2349 11.9113 64.3699 12.4034 63.7933 12.9849C63.0953 13.7006 62.9132 13.6559 62.8373 12.7463L62.7918 12.1499H58.9982V25.2712L60.9102 25.301C62.7918 25.3458 62.8373 25.3309 62.9284 25.0028C62.9739 24.8239 63.0194 22.9303 63.0194 20.7831C63.0194 16.5336 63.0346 16.4143 63.9299 15.5793C64.3244 15.2066 64.5369 15.132 65.3866 15.0873L66.3729 15.0276L66.9647 15.639C67.6628 16.3547 67.5869 15.6688 67.6476 21.8418C67.6628 23.4819 67.6779 24.9283 67.6931 25.0774C67.7235 25.2861 67.9662 25.316 69.6658 25.2861L71.5929 25.2712V14.804L71.1529 13.9541C70.3941 12.4779 69.2257 11.7771 67.4351 11.6877C66.7978 11.6727 66.1453 11.6727 65.9784 11.7175V11.7175ZM84.9463 11.7175C83.3075 12.1499 82.5184 12.5823 81.5017 13.5664C80.136 14.9233 79.5139 16.5038 79.5139 18.636C79.5291 22.3786 81.9114 25.1519 85.4319 25.48C88.4364 25.7633 90.7581 24.8985 92.2451 22.9452C92.4576 22.6619 92.9128 21.7523 92.9128 21.5883C92.9128 21.5287 92.0327 21.469 90.9705 21.469H89.0282L88.573 21.9312C88.0419 22.468 87.2983 22.811 86.6155 22.811C85.9326 22.811 84.8856 22.3338 84.4 21.8269C84.0358 21.4243 83.5047 20.2613 83.5047 19.8587C83.5047 19.7245 84.6125 19.6797 88.1784 19.6797C90.7429 19.6797 92.9128 19.6201 93.019 19.5605C93.2467 19.4113 93.0342 17.0406 92.7004 16.1757C92.0175 14.3716 90.7277 12.8507 89.4227 12.3139C89.0434 12.1648 88.6033 11.971 88.4516 11.8964C88.1329 11.7324 85.4319 11.5982 84.9463 11.7175V11.7175ZM87.9053 14.9829C88.4971 15.3855 89.013 16.3398 88.9371 16.8765C88.8916 17.2195 88.8613 17.2195 86.2968 17.2642C83.3378 17.309 83.3227 17.294 83.7931 16.2205C84.1269 15.4749 84.7946 14.804 85.4167 14.6101C86.1299 14.3865 87.2831 14.5654 87.9053 14.9829ZM107.404 11.7175C105.644 12.1797 104.415 12.9401 103.459 14.1181C103.08 14.5952 102.776 15.0425 102.776 15.132C102.776 15.2066 102.67 15.4749 102.533 15.7284C102.397 15.967 102.199 16.7125 102.093 17.3835C101.562 20.5744 103.019 23.5565 105.75 24.8985L106.797 25.4203H108.998C111.274 25.4203 111.471 25.3756 112.867 24.645C113.884 24.1082 115.553 22.0207 115.295 21.6032C115.234 21.5287 114.369 21.469 113.353 21.469H111.486L111.107 21.9014C109.589 23.5863 106.752 22.7215 106.145 20.3805C106.054 20.0674 106.054 19.799 106.13 19.7394C106.206 19.6947 108.375 19.6648 110.97 19.6797C114.673 19.6797 115.674 19.6499 115.689 19.5008C115.826 17.637 114.916 14.8785 113.777 13.6857C113.14 13.0147 112.032 12.2692 111.486 12.135C111.243 12.0753 110.97 11.971 110.864 11.8964C110.652 11.7324 107.875 11.5982 107.404 11.7175V11.7175ZM109.771 14.625C110.454 14.8636 111.243 15.6986 111.365 16.3398C111.547 17.309 111.562 17.309 108.74 17.2642C106.206 17.2195 106.19 17.2195 106.145 16.8765C106.084 16.459 106.615 15.4302 107.07 15.0425C107.723 14.5058 108.861 14.3268 109.771 14.625V14.625ZM120.606 11.7175C117.495 12.4481 116.372 13.5366 116.357 15.803C116.357 18.2483 117.601 19.2772 121.289 19.9183C123.823 20.3507 124.551 20.7384 124.521 21.6778C124.506 22.3487 124.035 22.7812 123.095 22.975C121.911 23.2285 120.985 22.9452 120.242 22.1251L119.65 21.469H117.814C116.327 21.469 115.978 21.5137 115.978 21.6778C115.978 22.1102 116.585 23.2434 117.085 23.81C117.556 24.302 117.92 24.5406 119.346 25.2116C119.483 25.2861 120.227 25.4054 120.97 25.4949C122.351 25.6589 124.749 25.5098 125.355 25.2116C125.492 25.1519 125.887 24.9581 126.22 24.809C127.085 24.4064 127.905 23.4969 128.208 22.632C128.542 21.6479 128.451 20.2762 127.981 19.3219C127.419 18.2036 125.932 17.3984 123.717 17.0107C120.864 16.5187 120.818 16.5038 120.363 16.0714C119.817 15.5197 119.817 15.3258 120.363 14.7294C120.803 14.2523 120.834 14.2374 122.047 14.2374C123.261 14.2374 123.292 14.2523 123.732 14.7294C123.975 14.9978 124.172 15.3109 124.172 15.4302C124.172 15.6091 124.491 15.6539 126.069 15.6539C128.163 15.6539 128.102 15.6986 127.738 14.64C127.07 12.7612 125.355 11.8069 122.503 11.7026C121.623 11.6727 120.773 11.6727 120.606 11.7175V11.7175ZM100.424 12.0306C99.7564 12.2543 98.8308 12.9998 98.5425 13.5366C98.2542 14.0734 97.9962 13.8497 97.9203 12.9551L97.8445 12.1499H94.0509L94.0054 18.4123C93.9902 21.8567 94.0054 24.8239 94.0509 25.0177C94.1268 25.3458 94.1723 25.3458 95.9932 25.316C97.0402 25.301 97.89 25.2116 97.9507 25.1221C98.0114 25.0476 98.0721 23.467 98.0721 21.6181C98.0721 18.6956 98.1024 18.1738 98.3604 17.5177C98.8915 16.1608 100.03 15.3557 101.456 15.3557C101.85 15.3557 102.017 15.2811 102.063 15.0873C102.169 14.6549 102.184 12.6419 102.093 12.1946C102.002 11.8368 101.926 11.7771 101.517 11.792C101.244 11.8069 100.758 11.9113 100.424 12.0306V12.0306ZM53.6872 12.2543C53.6417 12.3586 53.6265 15.296 53.6417 18.7851L53.6872 25.1221L55.493 25.1967C56.5855 25.2414 57.3746 25.2116 57.496 25.1221C57.6629 25.0028 57.7084 23.7354 57.7084 18.6658C57.7236 15.2066 57.6781 12.299 57.6325 12.2244C57.4808 12.0008 53.7631 12.0306 53.6872 12.2543V12.2543Z" fill="#0e1323"/>
</g>
<defs>
<clipPath id="clip0">
<rect width="136" height="32" fill="white" transform="translate(0 0.5)"/>
</clipPath>
</defs>
</svg>
