<svg width="114" height="39" viewBox="0 0 114 39" fill="none" xmlns="http://www.w3.org/2000/svg">
<g clip-path="url(#clip0)">
<path d="M14.0401 0.5H15.0539C18.5733 0.578131 22.0354 2.02355 24.522 4.58234C23.6039 5.53944 22.6666 6.45748 21.7676 7.41458C20.3713 6.12542 18.6881 5.12926 16.8519 4.77767C14.1358 4.19168 11.2093 4.71907 8.93309 6.30122C6.44652 7.9615 4.7633 10.7742 4.39988 13.7823C3.9982 16.7512 4.82068 19.8765 6.7143 22.1813C8.53141 24.4276 11.3049 25.8339 14.174 25.9316C16.8519 26.0879 19.6445 25.248 21.5955 23.3338C23.1257 21.986 23.8334 19.9351 24.0629 17.9427C20.8878 17.9427 17.7126 17.9623 14.5374 17.9427V13.919H27.9075C28.5961 18.2357 27.6015 23.0994 24.3881 26.1855C22.2458 28.3732 19.281 29.6624 16.2589 29.9163C13.3324 30.2093 10.3103 29.6428 7.70893 28.1974C4.59115 26.4981 2.10458 23.6267 0.88042 20.2476C-0.267228 17.1419 -0.286355 13.626 0.784783 10.5008C1.76028 7.64898 3.63478 5.12926 6.04484 3.37131C8.35926 1.6329 11.171 0.675794 14.0401 0.5Z" fill="#0e1323"/>
<path d="M90.7422 1.51569H94.8355V29.4084C93.4774 29.4084 92.1002 29.4279 90.7422 29.3889C90.7613 20.1108 90.7422 10.8133 90.7422 1.51569V1.51569Z" fill="#0e1323"/>
<path d="M37.0129 11.1844C39.5377 10.6961 42.2729 11.243 44.3578 12.7861C46.2514 14.1534 47.5712 16.302 47.9729 18.6459C48.4894 21.3609 47.839 24.3299 46.1175 26.4785C44.2622 28.881 41.2209 30.1702 38.2562 29.9749C35.5401 29.8186 32.9005 28.4318 31.2938 26.166C29.4766 23.6658 29.0367 20.228 30.0313 17.2981C31.026 14.1534 33.8377 11.7508 37.0129 11.1844V11.1844ZM37.5867 14.8956C36.5538 15.1691 35.5974 15.7746 34.9088 16.634C33.0535 18.8998 33.1682 22.5915 35.2149 24.701C36.3817 25.9121 38.1414 26.4785 39.7672 26.1464C41.2783 25.873 42.5981 24.8378 43.3249 23.4705C44.5873 21.1461 44.2239 17.9427 42.2921 16.1262C41.0488 14.9542 39.2317 14.4659 37.5867 14.8956Z" fill="#0e1323"/>
<path d="M57.2862 11.1843C60.1744 10.6178 63.3304 11.4382 65.4918 13.5087C69.0113 16.7316 69.3938 22.7672 66.3908 26.4784C64.5737 28.8223 61.6281 30.1115 58.7207 29.9748C55.9472 29.8966 53.212 28.4903 51.567 26.1659C49.7117 23.6071 49.31 20.0912 50.362 17.1027C51.414 14.0556 54.1684 11.7312 57.2862 11.1843V11.1843ZM57.86 14.8955C56.8271 15.169 55.8707 15.7745 55.1821 16.6144C53.3459 18.8411 53.4224 22.4742 55.3925 24.6033C56.5593 25.8729 58.3764 26.4979 60.0596 26.1464C61.5516 25.8534 62.8905 24.8377 63.6173 23.4704C64.8606 21.1264 64.4972 17.9231 62.5462 16.1065C61.3029 14.9346 59.4858 14.4658 57.86 14.8955Z" fill="#0e1323"/>
<path d="M74.4832 12.3172C76.6829 10.9109 79.6094 10.5202 81.9812 11.7313C82.7272 12.0633 83.3393 12.6298 83.9322 13.1962C83.9513 12.6688 83.9322 12.1219 83.9513 11.575C85.2329 11.5945 86.5144 11.575 87.8151 11.5945V28.8224C87.796 31.4202 87.1456 34.1744 85.3094 36.069C83.301 38.159 80.2215 38.8036 77.448 38.3739C74.4832 37.9246 71.901 35.7174 70.7534 32.9243C71.901 32.3578 73.1061 31.9086 74.292 31.3812C74.9614 32.9829 76.3195 34.3502 78.0218 34.6627C79.7242 34.9752 81.6943 34.5455 82.8037 33.1001C83.9896 31.6156 83.9896 29.5842 83.9322 27.7676C83.0524 28.6466 82.0386 29.4279 80.8144 29.7209C78.1557 30.4827 75.2292 29.5451 73.1826 27.709C71.1168 25.873 69.8927 23.0407 70.0074 20.228C70.0648 17.0442 71.8245 13.9775 74.4832 12.3172V12.3172ZM78.4426 14.8174C77.2759 15.0128 76.1856 15.6769 75.4396 16.5949C73.6416 18.7826 73.6416 22.2789 75.4587 24.4275C76.4916 25.6972 78.1557 26.4003 79.7624 26.2245C81.2735 26.0683 82.6698 25.0916 83.4158 23.7439C84.6782 21.4586 84.4678 18.3529 82.7654 16.3605C81.7134 15.13 80.0302 14.5244 78.4426 14.8174V14.8174Z" fill="#0e1323"/>
<path d="M99.7497 13.3135C102.045 11.1258 105.584 10.3836 108.529 11.536C111.322 12.6103 113.101 15.3253 114 18.1185C109.849 19.8765 105.717 21.6149 101.567 23.3728C102.141 24.4862 103.021 25.5019 104.206 25.9121C105.871 26.5176 107.86 26.3027 109.256 25.1698C109.811 24.7401 110.251 24.1737 110.672 23.6267C111.724 24.3495 112.776 25.0526 113.828 25.7753C112.336 28.0607 109.83 29.6624 107.133 29.9163C104.149 30.2874 100.974 29.1154 99.042 26.7324C95.8668 22.9822 96.1729 16.6926 99.7497 13.3135V13.3135ZM101.796 16.927C101.146 17.8841 100.878 19.0561 100.897 20.2085C103.671 19.0366 106.444 17.8646 109.218 16.6731C108.759 15.5793 107.649 14.9151 106.521 14.7394C104.704 14.4073 102.81 15.4035 101.796 16.927V16.927Z" fill="#0e1323"/>
</g>
<defs>
<clipPath id="clip0">
<rect width="114" height="38" fill="white" transform="translate(0 0.5)"/>
</clipPath>
</defs>
</svg>
