<svg width="136" height="35" viewBox="0 0 136 35" fill="none" xmlns="http://www.w3.org/2000/svg">
<g clip-path="url(#clip0)">
<path d="M43.9144 13.7956C43.9144 11.3706 41.542 8.79513 37.4366 8.79513C32.8264 8.79513 27.762 12.1567 26.988 18.863C26.1972 25.6363 30.4372 28.6466 34.7109 28.6466C38.9845 28.6466 41.2223 26.9909 43.5106 24.7833C41.542 22.3249 39.0014 23.4621 38.5134 23.713C37.975 23.9806 37.2852 24.3485 35.8718 24.3485C34.2229 24.3485 32.5404 23.6126 32.5404 20.5521C43.1068 19.5153 43.9144 16.2206 43.9144 13.7956ZM38.6817 14.197C38.6144 14.9496 38.3115 16.2373 32.961 16.9565C34.0883 12.9761 36.242 12.6751 37.2347 12.6751C38.1601 12.6751 38.749 13.3942 38.6817 14.197ZM20.7794 14.8492C20.7794 14.8492 18.508 21.9402 18.3229 22.5256C18.2556 21.9235 16.5899 9.19651 16.5899 9.19651C12.72 9.19651 10.6505 11.9393 9.55685 14.8325C9.55685 14.8325 6.79748 21.9402 6.56192 22.5423C6.5451 21.9904 6.14128 14.9161 6.14128 14.9161C5.90573 11.3706 2.64159 9.21323 0 9.21323L3.19683 28.4961C7.25176 28.4793 9.43907 25.7533 10.5832 22.8601C10.5832 22.8601 13.0229 16.5885 13.1238 16.3042C13.1407 16.5718 14.8737 28.4961 14.8737 28.4961C18.9454 28.4961 21.1327 25.9373 22.3105 23.1444L28.0143 9.21323C23.9931 9.21323 21.8731 11.9393 20.7794 14.8492ZM58.8554 8.76168C56.3484 8.76168 54.4303 10.1163 52.815 12.1065V12.0898L54.262 0.5C50.9306 0.5 48.2217 3.37654 47.7001 7.6579L45.1763 28.3456C47.0944 28.3456 49.1303 27.7937 50.2239 26.3888C51.1998 27.6431 52.6636 28.6466 54.8341 28.6466C60.4538 28.6466 64.3068 22.1577 64.3068 16.0701C64.2732 10.5177 61.5643 8.76168 58.8554 8.76168ZM58.3338 18.7125C57.7449 22.1075 55.8436 24.4154 54.0096 24.4154C52.1588 24.4154 51.368 23.5959 51.368 23.5959C51.7214 20.619 51.9401 18.7961 52.6131 17.2241C53.2861 15.652 54.8846 13.1434 56.5503 13.1434C58.1824 13.1434 58.9227 15.3008 58.3338 18.7125ZM78.3392 9.21323H74.4189L74.4357 9.01254C74.7049 6.47049 75.3106 5.13256 77.3129 4.91515C78.6757 4.78136 79.2814 4.07895 79.4329 3.30964C79.5507 2.70758 79.9208 0.617069 79.9208 0.617069C72.0465 0.566897 69.5732 3.94516 68.9338 9.09616L68.917 9.21323H68.8329C67.5541 9.21323 66.1408 10.6515 65.9052 12.4744L65.8211 13.1434H68.4459L66.2417 31.2388L65.5687 34.4833C65.6528 34.4833 65.7538 34.5 65.8379 34.5C69.5227 34.3662 71.8783 31.473 72.3998 27.2752L74.116 13.1434H75.3443C76.5557 13.1434 77.9691 11.9393 78.2214 9.93237L78.3392 9.21323ZM98.7317 8.87875C94.2056 8.87875 89.9319 12.1901 88.6196 17.3913C87.3072 22.5925 89.2926 28.7469 95.9555 28.7469C102.602 28.7469 106.438 22.3416 106.438 17.0066C106.438 11.7051 102.82 8.87875 98.7317 8.87875ZM100.566 18.5453C100.33 20.9033 99.2869 24.4823 96.4266 24.4823C93.5494 24.4823 93.9532 20.3013 94.2393 18.3111C94.5421 16.1872 95.7367 13.1601 98.311 13.1601C100.616 13.1601 100.835 15.8861 100.566 18.5453ZM128.799 14.8492C128.799 14.8492 126.527 21.9402 126.342 22.5256C126.275 21.9235 124.609 9.19651 124.609 9.19651C120.739 9.19651 118.67 11.9393 117.576 14.8325C117.576 14.8325 114.817 21.9402 114.581 22.5423C114.564 21.9904 114.161 14.9161 114.161 14.9161C113.925 11.3706 110.661 9.21323 108.019 9.21323L111.199 28.4961C115.254 28.4793 117.442 25.7533 118.586 22.8601C118.586 22.8601 121.025 16.5885 121.109 16.3042C121.126 16.5718 122.859 28.4961 122.859 28.4961C126.931 28.4961 129.118 25.9373 130.296 23.1444L136 9.21323C131.996 9.21323 129.876 11.9393 128.799 14.8492ZM82.0408 0.617069L78.743 27.0578L78.07 30.319C78.1541 30.319 78.2551 30.3357 78.3392 30.3357C81.8894 30.2855 84.4132 27.1916 84.8843 23.2949L86.7856 8.12617C87.3577 3.49361 84.5815 0.617069 82.0408 0.617069Z" fill="#0e1323"/>
</g>
<defs>
<clipPath id="clip0">
<rect width="136" height="34" fill="white" transform="translate(0 0.5)"/>
</clipPath>
</defs>
</svg>
