<svg width="68" height="68" viewBox="0 0 68 68" fill="none" xmlns="http://www.w3.org/2000/svg">
<rect width="68" height="68" rx="14.9041" fill="#7AAFFF"/>
<path d="M52.7393 29.1797H50.4791V26.9699C50.4791 26.0265 49.7225 25.2573 48.7903 25.2573C47.8599 25.2573 47.1014 26.0265 47.1014 26.9699V29.1797H44.8451C43.9129 29.1797 43.1562 29.9489 43.1562 30.8923C43.1562 31.8357 43.9129 32.6049 44.8451 32.6049H47.1014V34.8166C47.1014 35.76 47.8599 36.5292 48.7903 36.5292C49.7225 36.5292 50.4791 35.76 50.4791 34.8166V32.6049H52.7393C53.6696 32.6049 54.4281 31.8357 54.4281 30.8923C54.4281 29.9489 53.6696 29.1797 52.7393 29.1797" fill="white"/>
<path d="M30.9453 39.377C23.3447 39.377 16.8555 40.5921 16.8555 45.447C16.8555 50.3001 23.3052 51.559 30.9453 51.559C38.544 51.559 45.0352 50.3439 45.0352 45.4889C45.0352 40.634 38.5854 39.377 30.9453 39.377" fill="white"/>
<path opacity="0.6" d="M30.9441 34.7526C36.119 34.7526 40.2671 30.5509 40.2671 25.3094C40.2671 20.0678 36.119 15.8643 30.9441 15.8643C25.7693 15.8643 21.6211 20.0678 21.6211 25.3094C21.6211 30.5509 25.7693 34.7526 30.9441 34.7526" fill="white"/>
</svg>
