<svg width="168" height="43" viewBox="0 0 168 43" fill="none" xmlns="http://www.w3.org/2000/svg">
<path d="M29.6167 0H12.2629C5.49029 0 0 5.49029 0 12.2629V30.4714C0 37.244 5.49029 42.7343 12.2629 42.7343H29.6167C36.3893 42.7343 41.8796 37.244 41.8796 30.4714V12.2629C41.8796 5.49029 36.3893 0 29.6167 0Z" fill="url(#paint0_linear_222_2)"/>
<path d="M11.4835 22.942H11.4835C9.6621 22.942 8.18555 24.4186 8.18555 26.24V27.933C8.18555 29.7545 9.6621 31.231 11.4835 31.231H11.4835C13.3049 31.231 14.7815 29.7545 14.7815 27.933V26.24C14.7815 24.4186 13.3049 22.942 11.4835 22.942Z" fill="white"/>
<path d="M24.0198 19.6089C24.0198 17.7875 22.5432 16.3109 20.7218 16.3109C18.9004 16.3109 17.4238 17.7875 17.4238 19.6089V27.9331C17.4238 29.7546 18.9004 31.2311 20.7218 31.2311C22.5432 31.2311 24.0198 29.7546 24.0198 27.9331V19.6089Z" fill="white" fill-opacity="0.73"/>
<path d="M33.2151 14.6355C33.2151 12.8141 31.7385 11.3375 29.9171 11.3375C28.0957 11.3375 26.6191 12.8141 26.6191 14.6355V27.9331C26.6191 29.7546 28.0957 31.2311 29.9171 31.2311C31.7385 31.2311 33.2151 29.7546 33.2151 27.9331V14.6355Z" fill="white" fill-opacity="0.32"/>
<path d="M68.3685 10.8826V14.274H63.09V30.0276H59.5345V14.274H54.2833V10.8826H68.3685ZM74.256 15.9971C75.5688 15.9971 76.7449 16.3253 77.7842 16.9817C78.8417 17.6198 79.6622 18.4859 80.2457 19.5799C80.8291 20.6739 81.1209 21.8864 81.1209 23.2174C81.1209 23.655 81.0844 24.0562 81.0115 24.4208H70.4544C70.7279 25.3872 71.2111 26.1439 71.9039 26.6909C72.5968 27.2197 73.4811 27.484 74.5569 27.484C75.2133 27.484 75.8423 27.3382 76.444 27.0464C77.064 26.7547 77.5289 26.3809 77.8389 25.9251L80.4371 27.4567C79.799 28.4048 78.9693 29.1342 77.9483 29.6447C76.9455 30.137 75.7876 30.3831 74.4748 30.3831C73.0162 30.3831 71.7216 30.0732 70.5911 29.4532C69.4607 28.8333 68.5855 27.9763 67.9655 26.8823C67.3638 25.7883 67.063 24.5576 67.063 23.1901C67.063 21.8408 67.3638 20.6192 67.9655 19.5252C68.5855 18.4312 69.4424 17.5742 70.5364 16.9543C71.6304 16.3161 72.8703 15.9971 74.256 15.9971ZM77.9483 21.7679C77.8024 20.8927 77.3922 20.209 76.7175 19.7167C76.0611 19.2061 75.2315 18.9509 74.2287 18.9509C73.5358 18.9509 72.8977 19.0785 72.3142 19.3338C71.749 19.589 71.2931 19.9355 70.9467 20.3731C70.6003 20.8107 70.4179 21.2756 70.3997 21.7679H77.9483ZM95.5467 27.3746C94.8721 28.3045 94.0242 29.043 93.0032 29.59C91.9821 30.137 90.879 30.4105 89.6938 30.4105C88.3992 30.4105 87.1958 30.0914 86.0836 29.4532C84.9896 28.7968 84.1144 27.9216 83.458 26.8276C82.8199 25.7154 82.5008 24.512 82.5008 23.2174C82.5008 21.9229 82.8199 20.7286 83.458 19.6346C84.1144 18.5224 84.9896 17.6472 86.0836 17.009C87.1958 16.3526 88.3992 16.0244 89.6938 16.0244C90.8607 16.0244 91.9547 16.2979 92.9758 16.8449C93.9969 17.3737 94.8447 18.0939 95.5194 19.0056L92.7297 20.8927C91.8727 19.8899 90.8607 19.3885 89.6938 19.3885C89.0009 19.3885 88.3628 19.5617 87.7793 19.9081C87.1958 20.2545 86.7309 20.7195 86.3845 21.3029C86.038 21.8864 85.8648 22.5246 85.8648 23.2174C85.8648 23.9103 86.038 24.5485 86.3845 25.1319C86.7309 25.7154 87.1958 26.1804 87.7793 26.5268C88.3628 26.855 89.0009 27.0191 89.6938 27.0191C90.8607 27.0191 91.8727 26.5177 92.7297 25.5148L95.5467 27.3746ZM110.13 30.0276H106.766V21.932C106.766 20.9109 106.475 20.1816 105.891 19.744C105.326 19.2882 104.651 19.0603 103.867 19.0603C103.247 19.0603 102.682 19.2517 102.172 19.6346C101.679 20.0175 101.36 20.6283 101.214 21.467V30.0276H97.8229V10.8826H101.214V17.5013C101.67 17.0637 102.19 16.7173 102.773 16.462C103.375 16.2067 104.013 16.0791 104.688 16.0791C105.49 16.0791 106.301 16.2523 107.122 16.5988C107.942 16.927 108.644 17.5195 109.228 18.3765C109.83 19.2335 110.13 20.3913 110.13 21.8499V30.0276ZM121.27 15.9971C122.656 15.9971 123.869 16.307 124.908 16.927C125.965 17.5469 126.768 18.4039 127.315 19.4979C127.88 20.5919 128.163 21.8226 128.163 23.1901C128.163 24.5576 127.88 25.7883 127.315 26.8823C126.768 27.9763 125.965 28.8424 124.908 29.4806C123.869 30.1005 122.656 30.4105 121.27 30.4105C120.45 30.4105 119.657 30.2646 118.891 29.9729C118.143 29.6629 117.451 29.2344 116.812 28.6874V35.4976H113.421V16.3526H116.812V17.6928C117.432 17.1458 118.125 16.7264 118.891 16.4347C119.657 16.1429 120.45 15.9971 121.27 15.9971ZM120.86 27.1285C121.991 27.1285 122.921 26.7638 123.65 26.0345C124.397 25.2869 124.771 24.3388 124.771 23.1901C124.771 22.0414 124.397 21.1024 123.65 20.3731C122.921 19.6255 121.991 19.2517 120.86 19.2517C120.113 19.2517 119.429 19.4249 118.809 19.7714C118.189 20.0996 117.697 20.5645 117.332 21.1662C116.986 21.7679 116.812 22.4516 116.812 23.2174C116.812 24.3661 117.195 25.3052 117.961 26.0345C118.745 26.7638 119.711 27.1285 120.86 27.1285ZM133.853 26.1712C133.853 26.463 133.926 26.6727 134.071 26.8003C134.217 26.9279 134.445 26.9917 134.755 26.9917C134.992 26.9917 135.275 26.9644 135.603 26.9097V30.0276C134.928 30.137 134.299 30.1917 133.716 30.1917C132.658 30.1917 131.847 29.9182 131.282 29.3712C130.735 28.806 130.461 27.8122 130.461 26.39V10.8826H133.853V26.1712ZM146.528 16.3526H149.92V30.0276H146.528V28.8789C146.036 29.3347 145.489 29.6994 144.887 29.9729C144.286 30.2464 143.647 30.3831 142.973 30.3831C142.171 30.3831 141.35 30.219 140.511 29.8908C139.691 29.5444 138.98 28.9336 138.378 28.0584C137.795 27.1832 137.503 26.0071 137.503 24.5302V16.3526H140.894V24.5302C140.894 25.5513 141.177 26.2898 141.742 26.7456C142.326 27.1832 143 27.402 143.766 27.402C144.532 27.402 145.179 27.1376 145.708 26.6088C146.255 26.0618 146.528 25.1958 146.528 24.0106V16.3526ZM155.851 20.1816C155.851 20.5645 156.06 20.8562 156.48 21.0568C156.917 21.2391 157.601 21.4306 158.531 21.6311C159.588 21.8499 160.473 22.0961 161.184 22.3696C161.895 22.6431 162.506 23.0807 163.016 23.6824C163.545 24.2659 163.809 25.059 163.809 26.0618C163.809 26.9553 163.536 27.7302 162.989 28.3866C162.46 29.043 161.749 29.5444 160.856 29.8908C159.962 30.219 158.987 30.3831 157.929 30.3831C156.489 30.3831 155.249 30.1096 154.21 29.5626C153.189 29.0156 152.432 28.2316 151.94 27.2105L154.729 25.761C155.222 27.0191 156.288 27.6481 157.929 27.6481C158.64 27.6481 159.251 27.5114 159.762 27.2379C160.272 26.9644 160.527 26.5724 160.527 26.0618C160.527 25.6242 160.29 25.3052 159.816 25.1046C159.361 24.8858 158.613 24.6488 157.574 24.3935C156.498 24.1382 155.623 23.883 154.948 23.6277C154.273 23.3724 153.69 22.9804 153.198 22.4516C152.705 21.9046 152.459 21.1844 152.459 20.291C152.459 19.4158 152.705 18.6591 153.198 18.021C153.69 17.3646 154.355 16.8631 155.194 16.5167C156.033 16.1703 156.954 15.9971 157.957 15.9971C159.142 15.9971 160.199 16.2432 161.129 16.7355C162.077 17.2278 162.807 17.9298 163.317 18.8415L160.555 20.2363C160.081 19.2152 159.215 18.7047 157.957 18.7047C157.318 18.7047 156.808 18.8415 156.425 19.115C156.042 19.3702 155.851 19.7258 155.851 20.1816Z" fill="#0e1323"/>
<defs>
<linearGradient id="paint0_linear_222_2" x1="0.455213" y1="18.8091" x2="41.8759" y2="15.7491" gradientUnits="userSpaceOnUse">
<stop stop-color="#0e1323"/>
<stop offset="1" stop-color="#0e1323"/>
</linearGradient>
</defs>
</svg>
