<svg width="126" height="25" viewBox="0 0 126 25" fill="none" xmlns="http://www.w3.org/2000/svg">
<g clip-path="url(#clip0)">
<path d="M7.9821 24.1301H3.23429V12.4821H0V8.68972H3.23417V5.99119C3.23417 2.79342 4.66465 0.5 9.3996 0.5C10.401 0.5 11.9733 0.698651 11.9733 0.698651V4.22007H10.3219C8.63932 4.22007 7.98235 4.72376 7.98235 6.11631V8.68972H11.9103L11.5605 12.4821H7.98223L7.9821 24.1301ZM18.8761 8.38666C18.8069 8.38666 18.7357 8.38914 18.6653 8.39088C14.2628 8.39088 12.2486 11.6499 12.2486 16.2762C12.2486 22.104 14.8613 24.4365 18.6997 24.4365C20.8957 24.4365 22.3385 23.5268 23.2155 21.8292V24.1317H27.7313V8.69134H23.2155V11.0659C22.4994 9.53815 21.0163 8.40477 18.8761 8.38666ZM20.0243 12.0352C21.8733 12.0352 22.9832 13.3045 22.9832 15.4635L22.9874 17.6686C22.9874 19.1238 22.0708 20.8262 20.0243 20.8262C16.8781 20.8262 16.9621 17.4828 16.9621 16.3693C16.9621 12.6236 18.6384 12.0352 20.0243 12.0352ZM29.5551 16.4123C29.5551 14.5361 29.4638 8.39671 37.5913 8.39671C40.8539 8.39671 42.2162 9.41762 42.2162 9.41762L41.1212 12.7598C41.1212 12.7598 39.7607 12.0225 37.9879 12.0225C35.7172 12.0225 34.2683 13.318 34.2683 15.5973L34.2709 17.2316C34.2709 19.4217 35.6688 20.8837 37.9925 20.8837C39.6076 20.8837 41.0962 20.1395 41.0962 20.1395L42.1883 23.4119C42.1883 23.4119 40.9427 24.4392 37.6141 24.4392C29.8755 24.4392 29.5552 18.9311 29.5552 16.4123H29.5551ZM68.6942 8.39088C73.0968 8.39088 75.1427 11.6499 75.1427 16.2762C75.1427 22.104 72.5299 24.4365 68.6915 24.4365C66.4955 24.4365 64.8721 23.527 63.9952 21.8292V24.1317L59.5361 24.13V0.969472L64.2705 0.563117V10.8567C64.9538 9.05578 67.1993 8.39088 68.6943 8.39088H68.6942ZM67.3669 12.0352C65.5179 12.0352 64.2705 13.3045 64.2705 15.4635L64.266 17.6686C64.2633 19.1238 65.1299 20.8262 67.3669 20.8262C70.5131 20.8262 70.4291 17.4828 70.4291 16.3693C70.4291 12.6236 68.7529 12.0352 67.3669 12.0352ZM50.4306 8.40365C45.4372 8.40365 42.8011 11.083 42.8011 15.8444V16.729C42.8011 22.9089 46.5031 24.5 50.9166 24.5C55.2065 24.5 57.1483 23.3191 57.1483 23.3191L56.2624 20.1744C56.2624 20.1744 53.9783 21.1309 51.4842 21.1309C48.8987 21.1309 47.7868 20.4823 47.5017 18.037H57.5268V15.5142C57.5268 10.3492 54.5682 8.40353 50.4305 8.40353L50.4306 8.40365ZM50.5509 11.5526C52.2794 11.5526 53.3994 12.5957 53.3379 15.0148H47.5104C47.6115 12.4687 48.8193 11.5527 50.5509 11.5527V11.5526ZM84.5828 8.38245C79.455 8.38245 76.7554 11.2263 76.7554 16.3227C76.7554 23.3152 81.4089 24.4407 84.5914 24.4407C89.2503 24.4407 92.3499 21.9722 92.3499 16.3862C92.3499 10.5721 88.8648 8.38245 84.5828 8.38245V8.38245ZM84.5183 12.0478C86.7731 12.0478 87.6665 13.7086 87.6665 15.599V17.2243C87.6665 19.5144 86.4163 20.839 84.5097 20.839C82.7266 20.839 81.4734 19.5999 81.4734 17.2243V15.599C81.4734 13.0654 82.9646 12.0478 84.5183 12.0478V12.0478ZM101.782 8.38245C96.6537 8.38245 93.9542 11.2263 93.9542 16.3227C93.9542 23.3152 98.6076 24.4407 101.79 24.4407C106.449 24.4407 109.549 21.9722 109.549 16.3862C109.549 10.5721 106.063 8.38245 101.782 8.38245V8.38245ZM101.717 12.0478C103.972 12.0478 104.865 13.7086 104.865 15.599V17.2243C104.865 19.5144 103.615 20.839 101.708 20.839C99.9253 20.839 98.6721 19.5999 98.6721 17.2243V15.599C98.6721 13.0654 100.163 12.0478 101.717 12.0478V12.0478ZM111.338 24.1301V0.969472L116.086 0.563117V16.0868L120.796 8.68972H125.811L120.897 16.351L126 24.1301H120.971L116.086 16.5766V24.1301H111.338Z" fill="#0e1323"/>
</g>
<defs>
<clipPath id="clip0">
<rect width="126" height="24" fill="white" transform="translate(0 0.5)"/>
</clipPath>
</defs>
</svg>
