<svg width="110" height="111" viewBox="0 0 110 111" fill="none" xmlns="http://www.w3.org/2000/svg">
<rect width="110" height="111" fill="white"/>
<rect y="0.622559" width="110" height="110" fill="white"/>
<path d="M55.0589 25.8789C37.7519 25.8789 25.2109 39.9986 25.2109 55.6673C25.2109 60.6718 26.6706 65.8252 29.2324 70.5317C29.709 71.3062 29.7686 72.2892 29.4409 73.2127L27.4451 79.8853C26.9982 81.4939 28.3685 82.6854 29.8877 82.2088L35.905 80.4215C37.5433 79.8853 38.8242 80.5704 40.3464 81.4939C44.6955 84.0557 50.114 85.3663 54.9993 85.3663C69.7744 85.3663 84.7877 73.9574 84.7877 55.5779C84.7877 39.7305 71.9787 25.8789 55.0589 25.8789" fill="#A3A7FF"/>
<path fill-rule="evenodd" clip-rule="evenodd" d="M64.8576 55.6972C64.8576 57.7824 66.5555 59.5101 68.6705 59.5101C70.7855 59.5101 72.4834 57.7824 72.4834 55.6972C72.4834 53.5822 70.7855 51.8843 68.6705 51.8843C66.5555 51.8843 64.8576 53.5822 64.8576 55.6972ZM54.9399 59.5105C52.8249 59.4807 51.127 57.7828 51.127 55.6678C51.127 53.5826 52.8547 51.8549 54.9399 51.8847C57.0548 51.8847 58.7528 53.5826 58.7528 55.6976C58.7528 57.7828 57.0548 59.5105 54.9399 59.5105ZM41.2065 59.5106C39.1213 59.5106 37.3936 57.7829 37.3936 55.6977C37.3936 53.5827 39.0915 51.8848 41.2065 51.8848C43.3214 51.8848 45.0194 53.5827 45.0194 55.6977C45.0194 57.7829 43.3214 59.4808 41.2065 59.5106Z" fill="white"/>
</svg>
