<svg width="68" height="68" viewBox="0 0 68 68" fill="none" xmlns="http://www.w3.org/2000/svg">
<rect width="68" height="68" rx="14.9041" fill="#C39FFF"/>
<path fill-rule="evenodd" clip-rule="evenodd" d="M41.4676 20.1658C41.4676 24.46 44.9538 27.9411 49.2543 27.9411C49.7278 27.9388 50.2001 27.8933 50.6654 27.8053V43.2201C50.6654 49.7052 46.8401 53.5419 40.3455 53.5419H26.2002C19.6886 53.5419 15.8633 49.7052 15.8633 43.2201V29.0955C15.8633 22.6104 19.6886 18.7397 26.2002 18.7397H41.6036C41.5122 19.2096 41.4666 19.6872 41.4676 20.1658ZM37.4233 39.8074L42.9488 32.6773V32.6433C43.4218 32.0077 43.3011 31.1114 42.6767 30.6231C42.3745 30.3898 41.9905 30.2888 41.6124 30.3432C41.2344 30.3976 40.8945 30.6027 40.6706 30.9117L36.0121 36.9044L30.7077 32.7282C30.4048 32.4922 30.0196 32.3881 29.6389 32.4392C29.2582 32.4903 28.9142 32.6924 28.6845 32.9998L22.972 40.3677C22.7712 40.618 22.6631 40.9298 22.6659 41.2505C22.6328 41.8986 23.0421 42.4873 23.6617 42.6829C24.2814 42.8785 24.9552 42.6317 25.3012 42.0823L30.0786 35.9028L35.3831 40.0621C35.6848 40.3053 36.0726 40.4156 36.4574 40.3676C36.8421 40.3196 37.1908 40.1174 37.4233 39.8074Z" fill="white"/>
<circle opacity="0.4" cx="49.6989" cy="19.7062" r="4.83363" fill="white"/>
</svg>
