<svg width="123" height="27" viewBox="0 0 123 27" fill="none" xmlns="http://www.w3.org/2000/svg">
<path d="M20.5143 26.9654L12.454 26.8189C9.84421 26.7679 7.22799 26.8698 4.66947 26.3411C0.777189 25.5511 0.501459 21.6778 0.212905 18.4288C-0.184659 13.8611 -0.0307637 9.21056 0.719478 4.68106C1.14269 2.1392 2.8099 0.622996 5.38765 0.45736C14.0892 -0.141476 22.8484 -0.0713991 31.5307 0.208907C32.4477 0.234389 33.371 0.374543 34.2752 0.533807C38.7381 1.31102 38.8472 5.70036 39.1357 9.3953C39.4243 13.1285 39.3024 16.8808 38.751 20.5884C38.3085 23.6591 37.4621 26.2328 33.8904 26.4812C29.4146 26.8061 25.0414 27.0673 20.5528 26.9845C20.5528 26.9654 20.5271 26.9654 20.5143 26.9654V26.9654ZM15.7756 19.1933C19.1485 17.2694 22.4573 15.3773 25.8109 13.4661C22.4316 11.5422 19.1293 9.65013 15.7756 7.73895V19.1933Z" fill="#0e1323"/>
<path d="M103.787 23.4743C103.633 24.0986 103.499 24.5891 103.364 25.1115H100.209V0.93512H103.89V9.85395C104.082 9.61187 104.178 9.50994 104.262 9.40164C104.89 8.54161 105.704 7.981 106.756 7.7644C108.43 7.4395 109.86 8.17211 110.366 9.77113C110.693 10.7649 110.905 11.8288 110.93 12.8672C110.982 15.5365 110.943 18.1994 110.847 20.8687C110.809 21.6841 110.559 22.5187 110.244 23.2832C109.212 25.8059 105.839 26.1882 104.165 24.003C104.063 23.8693 103.967 23.7227 103.787 23.4743V23.4743ZM103.967 16.8234V21.2446C103.967 21.9645 104.351 22.404 105.076 22.5697C105.788 22.7353 106.365 22.4614 106.653 21.8052C106.775 21.5312 106.897 21.2446 106.904 20.9579C106.974 18.2568 107.038 15.5556 107.057 12.8481C107.057 12.3449 106.936 11.8225 106.782 11.3319C106.493 10.4464 105.698 10.1852 104.916 10.7012C104.326 11.0962 103.967 11.6568 103.967 12.4022V16.8234ZM93.9635 8.10841H97.8173V25.1243H94.8099C94.7009 24.4808 94.5919 23.8183 94.4636 23.0411C94.2584 23.3405 94.1366 23.5316 94.0084 23.7227C93.008 25.1561 91.5909 25.6467 89.9173 25.3855C88.4874 25.1561 87.6281 24.0604 87.4357 22.2639C87.378 21.7287 87.3524 21.1872 87.3524 20.6521C87.3395 16.6705 87.3524 12.6761 87.3524 8.6945V8.09567H91.2511V8.79006C91.2511 12.6379 91.2382 16.4794 91.2639 20.3272C91.2639 20.8751 91.3216 21.4421 91.4178 21.9899C91.5268 22.5505 91.9372 22.7544 92.4886 22.7162C93.38 22.6461 93.9955 21.9899 93.9955 21.1108V8.86014C93.9635 8.61169 93.9635 8.38234 93.9635 8.10841V8.10841ZM67.4293 8.09567H71.3023V8.81554C71.3023 12.6443 71.2895 16.4666 71.3152 20.2826C71.3152 20.8305 71.3665 21.3975 71.4819 21.9326C71.6294 22.5633 72.0013 22.7671 72.6361 22.6843C73.5146 22.5633 74.0468 21.9581 74.0532 21.0726V8.88562V8.12115H77.907V25.1243H74.9125C74.8035 24.4936 74.6945 23.8438 74.5534 23.022C74.361 23.3086 74.252 23.4743 74.143 23.6463C73.1427 25.1052 71.7384 25.6403 70.0263 25.3791C68.654 25.1752 67.814 24.1687 67.5575 22.5187C67.487 22.0027 67.4357 21.493 67.4357 20.977C67.4229 16.8425 67.4229 12.6889 67.4229 8.55435L67.4293 8.09567ZM65.4415 17.1801C65.4286 17.7535 65.3902 18.3268 65.3581 18.9002C65.2106 20.6203 65.1401 23.0602 63.7422 24.3152C62.8509 25.1052 61.7223 25.3918 60.5553 25.4301C60.0359 25.4428 59.5101 25.4428 58.9907 25.3727C56.5348 25.0032 55.3934 23.9266 54.983 21.2446C54.5149 18.1485 54.4764 15.0014 55.0343 11.9053C55.6114 8.70087 57.5992 7.56691 60.6899 7.77714C63.5755 7.981 64.8644 9.86032 65.2042 12.536C65.3902 14.0713 65.4799 15.6257 65.4415 17.1801V17.1801ZM61.5171 16.594C61.5171 15.5047 61.5428 14.4089 61.5043 13.3196C61.4787 12.6889 61.3953 12.0518 61.2606 11.4275C61.1067 10.7076 60.6451 10.3636 60.0679 10.3763C59.5037 10.3891 59.1061 10.7331 58.9009 11.402C58.8304 11.6505 58.7534 11.9053 58.7534 12.1537C58.7534 13.8611 58.7406 15.5747 58.7278 17.2821C58.7149 18.8747 58.5097 20.5438 59.0163 22.0664C59.1702 22.5314 59.5678 22.7863 60.0872 22.7863C60.5938 22.7863 60.9272 22.5378 61.1132 22.0919C61.2606 21.7478 61.3889 21.372 61.3889 21.0025C61.4338 19.5373 61.5171 18.0656 61.5171 16.594ZM49.3273 13.3896C49.6672 11.7396 49.9878 10.1279 50.3405 8.50976C50.7829 6.45205 51.2767 4.39435 51.7127 2.33028C51.8217 1.827 52.0269 1.70596 52.5078 1.7187C53.5402 1.75693 54.5918 1.73144 55.6947 1.73144C55.3356 3.04379 54.983 4.29242 54.6367 5.52195C53.5402 9.38253 52.4437 13.2558 51.36 17.1292C51.2767 17.4286 51.2382 17.7535 51.2382 18.072C51.2254 20.1871 51.2382 22.2957 51.2382 24.4108V25.0988H47.4741C47.4613 24.9077 47.4357 24.7165 47.4357 24.5254C47.4357 23.3278 47.3395 22.1237 47.4485 20.9388C47.7242 18.0911 46.8137 15.4728 46.0763 12.8226C45.1016 9.31882 44.1141 5.80225 43.1394 2.29843C43.0881 2.13279 43.0689 1.95441 43.0176 1.75056H46.8586C47.6665 5.61751 48.4809 9.48446 49.3273 13.3896ZM122.973 17.8299H116.484C116.554 19.1232 116.58 20.3527 116.714 21.5695C116.811 22.4168 117.279 22.7799 118.016 22.7863C118.786 22.799 119.234 22.4168 119.414 21.5758C119.472 21.3019 119.51 21.028 119.536 20.7477C119.561 20.4992 119.574 20.2316 119.594 19.8749C120.69 19.9322 121.761 19.9959 122.819 20.0405C123.435 21.8562 122.325 24.1878 120.459 24.9077C118.991 25.481 117.484 25.481 115.983 25.0414C114.874 24.7165 114.047 24.0158 113.675 22.9392C113.329 21.9326 113.002 20.8814 112.931 19.8303C112.739 17.2375 112.668 14.6192 113.066 12.02C113.136 11.5868 113.258 11.1727 113.393 10.7522C113.931 9.0194 115.105 7.95551 116.92 7.77714C117.907 7.68158 118.927 7.7198 119.901 7.88544C121.479 8.15937 122.319 9.28697 122.684 10.7649C122.851 11.4593 122.973 12.1728 122.998 12.88C123.005 14.5045 122.973 16.1162 122.973 17.8299ZM119.286 15.5939C119.286 14.3134 119.299 13.1093 119.273 11.8989C119.273 11.6122 119.164 11.3128 119.055 11.0389C118.837 10.5038 118.382 10.3572 117.837 10.3572C117.292 10.3572 116.945 10.6312 116.811 11.1217C116.4 12.5933 116.535 14.0968 116.548 15.6066C117.529 15.5939 118.42 15.5939 119.286 15.5939V15.5939Z" fill="#0e1323"/>
<path d="M80.8837 4.85291H77.0684V1.78229H88.4566V4.8338H84.667V25.0987H80.8901L80.8837 4.85291Z" fill="#0e1323"/>
</svg>
