<svg width="293" height="439" viewBox="0 0 293 439" fill="none" xmlns="http://www.w3.org/2000/svg">
<rect x="0.660156" y="0.0664062" width="291.587" height="438.861" rx="14" fill="white" fill-opacity="0.82"/>
<circle cx="138.682" cy="101.516" r="13" fill="#9FC5FF"/>
<path d="M145.183 100.03C145.143 100.008 145.098 99.9965 145.053 99.9978C145.007 99.999 144.963 100.013 144.924 100.037L139.907 103.175C139.541 103.402 139.12 103.522 138.691 103.522C138.261 103.522 137.84 103.402 137.475 103.175L132.449 100.037C132.411 100.013 132.366 99.999 132.321 99.9978C132.275 99.9965 132.23 100.008 132.19 100.03C132.15 100.052 132.117 100.084 132.094 100.123C132.071 100.163 132.059 100.207 132.059 100.253V105.085C132.059 105.49 132.219 105.879 132.505 106.165C132.792 106.452 133.18 106.614 133.585 106.614H143.781C144.187 106.614 144.576 106.453 144.862 106.166C145.149 105.88 145.31 105.491 145.31 105.085V100.253C145.311 100.208 145.299 100.163 145.277 100.124C145.254 100.085 145.222 100.052 145.183 100.03Z" fill="white"/>
<path d="M143.78 96.4182H133.584C133.178 96.4182 132.789 96.5793 132.503 96.8662C132.216 97.153 132.055 97.542 132.055 97.9476C132.055 97.9606 132.058 97.9734 132.064 97.9846C132.071 97.9959 132.08 98.0053 132.091 98.0119L138.277 101.878C138.4 101.955 138.541 101.995 138.685 101.995C138.829 101.995 138.971 101.955 139.093 101.878L145.28 98.0119C145.29 98.0042 145.297 97.9944 145.302 97.9833C145.308 97.9721 145.31 97.9599 145.31 97.9476C145.31 97.542 145.148 97.153 144.862 96.8662C144.575 96.5793 144.186 96.4182 143.78 96.4182Z" fill="white"/>
<circle cx="175.305" cy="101.516" r="13" fill="#9FC5FF"/>
<circle cx="138.682" cy="194.623" r="13" fill="#9FB4FF"/>
<path d="M145.183 193.137C145.143 193.115 145.098 193.104 145.053 193.105C145.007 193.106 144.963 193.12 144.924 193.144L139.907 196.282C139.541 196.509 139.12 196.629 138.691 196.629C138.261 196.629 137.84 196.509 137.475 196.282L132.449 193.144C132.411 193.12 132.366 193.106 132.321 193.105C132.275 193.104 132.23 193.115 132.19 193.137C132.15 193.159 132.117 193.191 132.094 193.231C132.071 193.27 132.059 193.315 132.059 193.36V198.192C132.059 198.597 132.219 198.986 132.505 199.273C132.792 199.559 133.18 199.721 133.585 199.722H143.781C144.187 199.722 144.576 199.56 144.862 199.274C145.149 198.987 145.31 198.598 145.31 198.192V193.36C145.311 193.315 145.299 193.271 145.277 193.231C145.254 193.192 145.222 193.16 145.183 193.137Z" fill="white"/>
<path d="M143.78 189.525H133.584C133.178 189.525 132.789 189.687 132.503 189.973C132.216 190.26 132.055 190.649 132.055 191.055C132.055 191.068 132.058 191.081 132.064 191.092C132.071 191.103 132.08 191.112 132.091 191.119L138.277 194.985C138.4 195.062 138.541 195.102 138.685 195.102C138.829 195.102 138.971 195.062 139.093 194.985L145.28 191.119C145.29 191.111 145.297 191.102 145.302 191.09C145.308 191.079 145.31 191.067 145.31 191.055C145.31 190.649 145.148 190.26 144.862 189.973C144.575 189.687 144.186 189.525 143.78 189.525Z" fill="white"/>
<circle cx="175.305" cy="194.623" r="13" fill="#9FB4FF"/>
<circle cx="138.682" cy="287.73" r="13" fill="#A19FFF"/>
<path d="M145.183 286.244C145.143 286.221 145.098 286.21 145.053 286.212C145.007 286.213 144.963 286.226 144.924 286.251L139.907 289.389C139.541 289.616 139.12 289.736 138.691 289.736C138.261 289.736 137.84 289.616 137.475 289.389L132.449 286.251C132.411 286.226 132.366 286.213 132.321 286.212C132.275 286.21 132.23 286.221 132.19 286.244C132.15 286.266 132.117 286.298 132.094 286.337C132.071 286.377 132.059 286.421 132.059 286.467V291.299C132.059 291.704 132.219 292.092 132.505 292.379C132.792 292.666 133.18 292.827 133.585 292.828H143.781C144.187 292.828 144.576 292.667 144.862 292.38C145.149 292.093 145.31 291.704 145.31 291.299V286.467C145.311 286.422 145.299 286.377 145.277 286.338C145.254 286.299 145.222 286.266 145.183 286.244Z" fill="white"/>
<path d="M143.78 282.632H133.584C133.178 282.632 132.789 282.793 132.503 283.08C132.216 283.367 132.055 283.756 132.055 284.161C132.055 284.174 132.058 284.187 132.064 284.198C132.071 284.21 132.08 284.219 132.091 284.226L138.277 288.092C138.4 288.169 138.541 288.209 138.685 288.209C138.829 288.209 138.971 288.169 139.093 288.092L145.28 284.226C145.29 284.218 145.297 284.208 145.302 284.197C145.308 284.186 145.31 284.174 145.31 284.161C145.31 283.756 145.148 283.367 144.862 283.08C144.575 282.793 144.186 282.632 143.78 282.632Z" fill="white"/>
<circle cx="175.305" cy="287.73" r="13" fill="#A19FFF"/>
<circle cx="138.682" cy="380.837" r="13" fill="#C39FFF"/>
<path d="M145.183 379.35C145.143 379.328 145.098 379.317 145.053 379.318C145.007 379.319 144.963 379.333 144.924 379.357L139.907 382.496C139.541 382.722 139.12 382.842 138.691 382.842C138.261 382.842 137.84 382.722 137.475 382.496L132.449 379.357C132.411 379.333 132.366 379.319 132.321 379.318C132.275 379.317 132.23 379.328 132.19 379.35C132.15 379.372 132.117 379.405 132.094 379.444C132.071 379.483 132.059 379.528 132.059 379.573V384.405C132.059 384.81 132.219 385.199 132.505 385.486C132.792 385.772 133.18 385.934 133.585 385.935H143.781C144.187 385.935 144.576 385.774 144.862 385.487C145.149 385.2 145.31 384.811 145.31 384.405V379.573C145.311 379.528 145.299 379.484 145.277 379.445C145.254 379.405 145.222 379.373 145.183 379.35Z" fill="white"/>
<path d="M143.78 375.739H133.584C133.178 375.739 132.789 375.9 132.503 376.187C132.216 376.473 132.055 376.862 132.055 377.268C132.055 377.281 132.058 377.294 132.064 377.305C132.071 377.316 132.08 377.326 132.091 377.332L138.277 381.199C138.4 381.275 138.541 381.316 138.685 381.316C138.829 381.316 138.971 381.275 139.093 381.199L145.28 377.332C145.29 377.325 145.297 377.315 145.302 377.304C145.308 377.293 145.31 377.28 145.31 377.268C145.31 376.862 145.148 376.473 144.862 376.187C144.575 375.9 144.186 375.739 143.78 375.739Z" fill="white"/>
<circle cx="175.305" cy="380.837" r="13" fill="#C39FFF"/>
<rect x="125.682" y="65.4736" width="142.347" height="9.78212" rx="4.89106" fill="#E4E6EE"/>
<rect x="125.682" y="158.581" width="142.347" height="9.78212" rx="4.89106" fill="#E4E6EE"/>
<rect x="125.682" y="251.687" width="142.347" height="9.78212" rx="4.89106" fill="#E4E6EE"/>
<rect x="125.682" y="344.794" width="142.347" height="9.78212" rx="4.89106" fill="#E4E6EE"/>
<rect x="125.682" y="47.3787" width="92.4944" height="9" rx="4.5" fill="#A9AFC0"/>
<rect x="125.682" y="140.486" width="92.4944" height="9" rx="4.5" fill="#A9AFC0"/>
<rect x="125.682" y="233.593" width="92.4944" height="9" rx="4.5" fill="#A9AFC0"/>
<rect x="125.682" y="326.699" width="92.4944" height="9" rx="4.5" fill="#A9AFC0"/>
<circle cx="71.3725" cy="80.7355" r="33.3568" fill="#9FC5FF"/>
<path d="M71.6945 82.2569C76.7541 82.2569 80.8558 78.1552 80.8558 73.0956C80.8558 68.036 76.7541 63.9343 71.6945 63.9343C66.6348 63.9343 62.5332 68.036 62.5332 73.0956C62.5332 78.1552 66.6348 82.2569 71.6945 82.2569Z" fill="white"/>
<path d="M71.6948 84.401C68.3327 84.2639 65.0229 85.2677 62.3034 87.2493C59.5839 89.231 57.6143 92.074 56.7148 95.3165C56.6502 95.6544 56.6804 96.0036 56.8021 96.3253C56.9238 96.6471 57.1322 96.9289 57.4042 97.1394C58.0623 97.6705 58.887 97.9518 59.7325 97.9335H83.6608C84.5062 97.9518 85.3309 97.6705 85.989 97.1394C86.2611 96.9289 86.4695 96.6471 86.5912 96.3253C86.7129 96.0036 86.7431 95.6544 86.6785 95.3165C85.7788 92.0734 83.8087 89.2299 81.0884 87.2482C78.3682 85.2665 75.0576 84.263 71.6948 84.401Z" fill="white"/>
<circle cx="71.3725" cy="173.843" r="33.3568" fill="#9FB4FF"/>
<path d="M71.6945 175.257C76.7541 175.257 80.8558 171.155 80.8558 166.096C80.8558 161.036 76.7541 156.934 71.6945 156.934C66.6348 156.934 62.5332 161.036 62.5332 166.096C62.5332 171.155 66.6348 175.257 71.6945 175.257Z" fill="white"/>
<path d="M71.6948 177.401C68.3327 177.264 65.0229 178.268 62.3034 180.249C59.5839 182.231 57.6143 185.074 56.7148 188.317C56.6502 188.654 56.6804 189.004 56.8021 189.325C56.9238 189.647 57.1322 189.929 57.4042 190.139C58.0623 190.67 58.887 190.952 59.7325 190.934H83.6608C84.5062 190.952 85.3309 190.67 85.989 190.139C86.2611 189.929 86.4695 189.647 86.5912 189.325C86.7129 189.004 86.7431 188.654 86.6785 188.317C85.7788 185.073 83.8087 182.23 81.0884 180.248C78.3682 178.266 75.0576 177.263 71.6948 177.401Z" fill="white"/>
<circle cx="71.3725" cy="266.949" r="33.3568" fill="#A19FFF"/>
<path d="M71.6945 268.257C76.7541 268.257 80.8558 264.155 80.8558 259.096C80.8558 254.036 76.7541 249.934 71.6945 249.934C66.6348 249.934 62.5332 254.036 62.5332 259.096C62.5332 264.155 66.6348 268.257 71.6945 268.257Z" fill="white"/>
<path d="M71.6948 270.401C68.3327 270.264 65.0229 271.268 62.3034 273.249C59.5839 275.231 57.6143 278.074 56.7148 281.317C56.6502 281.654 56.6804 282.004 56.8021 282.325C56.9238 282.647 57.1322 282.929 57.4042 283.139C58.0623 283.67 58.887 283.952 59.7325 283.934H83.6608C84.5062 283.952 85.3309 283.67 85.989 283.139C86.2611 282.929 86.4695 282.647 86.5912 282.325C86.7129 282.004 86.7431 281.654 86.6785 281.317C85.7788 278.073 83.8087 275.23 81.0884 273.248C78.3682 271.266 75.0576 270.263 71.6948 270.401Z" fill="white"/>
<circle cx="71.0385" cy="360.291" r="33.3568" fill="#C39FFF"/>
<path d="M71.6945 361.257C76.7541 361.257 80.8558 357.155 80.8558 352.096C80.8558 347.036 76.7541 342.934 71.6945 342.934C66.6348 342.934 62.5332 347.036 62.5332 352.096C62.5332 357.155 66.6348 361.257 71.6945 361.257Z" fill="white"/>
<path d="M71.6948 363.269C68.3327 363.132 65.0229 364.136 62.3034 366.118C59.5839 368.099 57.6143 370.942 56.7148 374.185C56.6502 374.523 56.6804 374.872 56.8021 375.194C56.9238 375.516 57.1322 375.797 57.4042 376.008C58.0623 376.539 58.887 376.82 59.7325 376.802H83.6608C84.5062 376.82 85.3309 376.539 85.989 376.008C86.2611 375.797 86.4695 375.516 86.5912 375.194C86.7129 374.872 86.7431 374.523 86.6785 374.185C85.7788 370.942 83.8087 368.098 81.0884 366.117C78.3682 364.135 75.0576 363.131 71.6948 363.269Z" fill="white"/>
</svg>
