<svg width="232" height="453" viewBox="0 0 232 453" fill="none" xmlns="http://www.w3.org/2000/svg">
<rect width="232" height="453" rx="14" fill="white" fill-opacity="0.9"/>
<ellipse cx="160.618" cy="183.785" rx="15.9327" ry="15.4848" fill="#92BBFC"/>
<ellipse cx="71.9132" cy="183.785" rx="15.9327" ry="15.4848" fill="#92BBFC"/>
<ellipse cx="116.266" cy="183.785" rx="15.5021" ry="15.4848" fill="#92BBFC"/>
<path d="M121.663 185.415C121.488 185.24 121.28 185.101 121.052 185.006C120.823 184.912 120.578 184.863 120.33 184.863C120.083 184.863 119.838 184.912 119.609 185.006C119.38 185.101 119.172 185.24 118.997 185.415L118.708 185.705C117.129 184.381 115.669 182.922 114.344 181.344L114.635 181.055C114.987 180.701 115.185 180.223 115.185 179.724C115.185 179.225 114.987 178.746 114.635 178.393L113.033 176.794C112.673 176.451 112.196 176.26 111.7 176.26C111.203 176.26 110.726 176.451 110.367 176.794L109.489 177.67C109.061 178.101 108.794 178.665 108.734 179.268C108.673 179.872 108.823 180.478 109.156 180.984C111.765 184.911 115.134 188.277 119.064 190.883C119.573 191.211 120.179 191.357 120.781 191.297C121.384 191.236 121.948 190.973 122.382 190.55L123.259 189.674C123.612 189.321 123.811 188.843 123.811 188.343C123.811 187.844 123.612 187.365 123.259 187.012L121.663 185.415Z" fill="white"/>
<line x1="23.2685" y1="225.83" x2="210.872" y2="225.83" stroke="#E5ECF5" stroke-width="0.861228" stroke-linecap="round"/>
<rect x="22.8379" y="268.881" width="144.779" height="8.41522" rx="4.20761" fill="#E4E6EE"/>
<rect x="44.0312" y="140.303" width="144.779" height="10.9942" rx="5.49709" fill="#E4E6EE"/>
<rect x="22.8379" y="252.423" width="93.4526" height="8.41522" rx="4.20761" fill="#B9BDC9"/>
<rect x="69.6934" y="121.566" width="93.4526" height="10.9942" rx="5.49709" fill="#A9AFC0"/>
<rect x="22.8379" y="315.262" width="65.5757" height="8.41522" rx="4.20761" fill="#E4E6EE"/>
<rect x="22.8379" y="298.803" width="129.645" height="8.41522" rx="4.20761" fill="#B9BDC9"/>
<rect x="22.8379" y="361.643" width="154.759" height="8.41522" rx="4.20761" fill="#E4E6EE"/>
<rect x="22.8379" y="345.184" width="46.4811" height="8.41522" rx="4.20761" fill="#B9BDC9"/>
<rect x="22.8379" y="408.023" width="71.1273" height="8.41522" rx="4.20761" fill="#E4E6EE"/>
<rect x="22.8379" y="391.564" width="133.785" height="8.41522" rx="4.20761" fill="#B9BDC9"/>
<path d="M155.883 183.719H160.984M160.984 183.719H166.085M160.984 183.719V178.623M160.984 183.719V188.814" stroke="white" stroke-width="2.58368" stroke-linecap="round" stroke-linejoin="round"/>
<path d="M78.2239 182.133C78.1851 182.112 78.1413 182.101 78.0969 182.102C78.0526 182.103 78.0094 182.116 77.9719 182.14L73.0904 185.19C72.7352 185.41 72.3255 185.527 71.9074 185.527C71.4894 185.527 71.0797 185.41 70.7245 185.19L65.835 182.14C65.7975 182.116 65.7543 182.103 65.71 182.102C65.6656 182.101 65.6218 182.112 65.583 182.133C65.5443 182.155 65.512 182.186 65.4895 182.224C65.467 182.262 65.4551 182.306 65.4551 182.35V187.046C65.4551 187.44 65.6114 187.817 65.8898 188.096C66.1682 188.375 66.546 188.531 66.9401 188.532H76.8599C77.2545 188.532 77.633 188.376 77.912 188.097C78.1911 187.818 78.3479 187.44 78.3479 187.046V182.35C78.3482 182.306 78.3369 182.263 78.3151 182.225C78.2933 182.187 78.2619 182.155 78.2239 182.133Z" fill="white"/>
<path d="M76.8609 178.623H66.9411C66.5465 178.623 66.168 178.78 65.8889 179.059C65.6099 179.337 65.4531 179.715 65.4531 180.11C65.4531 180.122 65.4564 180.135 65.4627 180.146C65.4689 180.157 65.478 180.166 65.4888 180.172L71.5072 183.929C71.6261 184.004 71.7636 184.043 71.904 184.043C72.0443 184.043 72.1818 184.004 72.3008 183.929L78.3201 180.172C78.3295 180.165 78.3369 180.155 78.3419 180.144C78.3469 180.133 78.3493 180.122 78.3489 180.11C78.3489 179.715 78.1921 179.337 77.9131 179.059C77.634 178.78 77.2555 178.623 76.8609 178.623Z" fill="white"/>
<ellipse cx="116.894" cy="70.3622" rx="37.894" ry="37.8517" fill="#92BBFC"/>
<path d="M116.829 72.2247C122.837 72.2247 127.708 67.3593 127.708 61.3575C127.708 55.3557 122.837 50.4902 116.829 50.4902C110.82 50.4902 105.949 55.3557 105.949 61.3575C105.949 67.3593 110.82 72.2247 116.829 72.2247Z" fill="white"/>
<path d="M116.829 74.7683C112.836 74.6056 108.906 75.7964 105.676 78.1471C102.447 80.4977 100.108 83.8702 99.0394 87.7165C98.9626 88.1173 98.9985 88.5315 99.143 88.9132C99.2875 89.2948 99.5351 89.6291 99.8581 89.8788C100.64 90.5088 101.619 90.8424 102.623 90.8208H131.039C132.043 90.8424 133.022 90.5088 133.804 89.8788C134.127 89.6291 134.374 89.2948 134.519 88.9132C134.663 88.5315 134.699 88.1173 134.623 87.7165C133.554 83.8695 131.215 80.4965 127.984 78.1457C124.754 75.795 120.822 74.6047 116.829 74.7683V74.7683Z" fill="white"/>
</svg>
