<svg width="869" height="599" viewBox="0 0 869 599" fill="none" xmlns="http://www.w3.org/2000/svg">
<rect x="0.890625" y="0.310791" width="864.172" height="598.554" rx="18" fill="white" fill-opacity="0.5"/>
<rect x="37.457" y="36.2969" width="269.383" height="526.582" rx="14" fill="white"/>
<ellipse cx="223.957" cy="249.934" rx="18.5" ry="18" fill="#9FB4FF"/>
<ellipse cx="120.957" cy="249.934" rx="18.5" ry="18" fill="#9FB4FF"/>
<circle cx="172.457" cy="249.934" r="18" fill="#9FB4FF"/>
<path d="M178.074 251.632C177.891 251.45 177.675 251.305 177.437 251.207C177.199 251.108 176.944 251.057 176.686 251.057C176.429 251.057 176.174 251.108 175.936 251.207C175.698 251.305 175.481 251.45 175.299 251.632L174.999 251.935C173.355 250.556 171.836 249.035 170.457 247.391L170.76 247.09C171.126 246.722 171.332 246.223 171.332 245.703C171.332 245.184 171.126 244.685 170.76 244.317L169.092 242.651C168.719 242.294 168.222 242.095 167.705 242.095C167.189 242.095 166.692 242.294 166.318 242.651L165.405 243.564C164.96 244.012 164.682 244.6 164.619 245.229C164.556 245.858 164.711 246.489 165.059 247.016C167.773 251.107 171.279 254.614 175.369 257.329C175.899 257.671 176.529 257.823 177.156 257.76C177.783 257.697 178.37 257.423 178.821 256.982L179.734 256.07C180.102 255.702 180.308 255.203 180.308 254.683C180.308 254.163 180.102 253.664 179.734 253.296L178.074 251.632Z" fill="white"/>
<line x1="64.4746" y1="298.81" x2="282.307" y2="298.81" stroke="#E5ECF5" stroke-linecap="round"/>
<rect x="63.9746" y="348.854" width="168.107" height="9.78212" rx="4.89106" fill="#E4E6EE"/>
<rect x="88.582" y="199.39" width="168.107" height="12.78" rx="6.39" fill="#E4E6EE"/>
<rect x="63.9746" y="329.721" width="108.511" height="9.78212" rx="4.89106" fill="#B9BDC9"/>
<rect x="118.381" y="177.61" width="108.511" height="12.78" rx="6.39" fill="#A9AFC0"/>
<rect x="63.9746" y="402.768" width="76.1421" height="9.78212" rx="4.89106" fill="#E4E6EE"/>
<rect x="63.9746" y="383.636" width="150.535" height="9.78212" rx="4.89106" fill="#B9BDC9"/>
<rect x="63.9746" y="456.682" width="179.695" height="9.78212" rx="4.89106" fill="#E4E6EE"/>
<rect x="63.9746" y="437.55" width="53.9707" height="9.78212" rx="4.89106" fill="#B9BDC9"/>
<rect x="63.9746" y="510.596" width="82.5882" height="9.78212" rx="4.89106" fill="#E4E6EE"/>
<rect x="63.9746" y="491.464" width="155.343" height="9.78212" rx="4.89106" fill="#B9BDC9"/>
<path d="M218.457 249.858H224.38M224.38 249.858H230.304M224.38 249.858V243.934M224.38 249.858V255.781" stroke="white" stroke-width="3" stroke-linecap="round" stroke-linejoin="round"/>
<path d="M128.285 248.014C128.24 247.989 128.189 247.977 128.138 247.978C128.086 247.98 128.036 247.995 127.993 248.022L122.325 251.568C121.912 251.824 121.436 251.959 120.951 251.959C120.466 251.959 119.99 251.824 119.577 251.568L113.9 248.022C113.857 247.995 113.806 247.98 113.755 247.978C113.703 247.977 113.653 247.989 113.608 248.014C113.563 248.039 113.525 248.076 113.499 248.12C113.473 248.165 113.459 248.215 113.459 248.266V253.725C113.459 254.183 113.641 254.622 113.964 254.945C114.287 255.269 114.726 255.452 115.183 255.453H126.701C127.16 255.453 127.599 255.271 127.923 254.947C128.247 254.623 128.429 254.183 128.429 253.725V248.266C128.43 248.215 128.416 248.165 128.391 248.121C128.366 248.077 128.329 248.04 128.285 248.014Z" fill="white"/>
<path d="M126.703 243.934H115.185C114.727 243.934 114.287 244.116 113.963 244.44C113.639 244.764 113.457 245.204 113.457 245.662C113.457 245.677 113.461 245.691 113.468 245.704C113.475 245.717 113.486 245.727 113.498 245.735L120.487 250.102C120.625 250.189 120.784 250.235 120.947 250.235C121.11 250.235 121.27 250.189 121.408 250.102L128.397 245.735C128.408 245.726 128.417 245.715 128.423 245.702C128.428 245.69 128.431 245.676 128.431 245.662C128.431 245.204 128.249 244.764 127.925 244.44C127.601 244.116 127.161 243.934 126.703 243.934Z" fill="white"/>
<circle cx="172.637" cy="118.091" r="44" fill="#9FB4FF"/>
<mask id="mask0" mask-type="alpha" maskUnits="userSpaceOnUse" x="128" y="74" width="89" height="89">
<circle cx="172.637" cy="118.091" r="44" fill="#B3A6FC"/>
</mask>
<g mask="url(#mask0)">
<path d="M172.264 119.888C178.603 119.888 183.741 114.75 183.741 108.411C183.741 102.073 178.603 96.9343 172.264 96.9343C165.926 96.9343 160.787 102.073 160.787 108.411C160.787 114.75 165.926 119.888 172.264 119.888Z" fill="white"/>
<path d="M172.265 122.574C168.053 122.402 163.907 123.66 160.5 126.143C157.093 128.625 154.625 132.187 153.499 136.249C153.418 136.672 153.455 137.11 153.608 137.513C153.76 137.916 154.021 138.269 154.362 138.532C155.187 139.198 156.22 139.55 157.279 139.527H187.256C188.315 139.55 189.348 139.198 190.172 138.532C190.513 138.269 190.774 137.916 190.927 137.513C191.079 137.11 191.117 136.672 191.036 136.249C189.909 132.186 187.441 128.624 184.033 126.141C180.625 123.658 176.478 122.401 172.265 122.574Z" fill="white"/>
</g>
<g filter="url(#filter0_d)">
<rect x="347.061" y="47.4615" width="497.039" height="504.512" rx="35" fill="white"/>
</g>
<rect x="340.541" y="36.2969" width="503.557" height="526.582" rx="14" fill="white"/>
<mask id="mask1" mask-type="alpha" maskUnits="userSpaceOnUse" x="340" y="36" width="505" height="527">
<rect x="340.541" y="36.2969" width="503.557" height="526.582" rx="14" fill="white"/>
</mask>
<g mask="url(#mask1)">
<rect x="411.018" y="184.632" width="3" height="367.341" rx="1.5" fill="#E4E6EE"/>
<rect x="375.521" y="162.286" width="434.116" height="84.3357" rx="11.25" fill="white" stroke="#E5ECF5" stroke-width="1.5"/>
<rect x="446.01" y="195.46" width="160.96" height="9.78212" rx="4.89106" fill="#E4E6EE"/>
<rect x="447.895" y="177.365" width="108.511" height="9" rx="4.5" fill="#A9AFC0"/>
<rect x="749.062" y="178.921" width="52.7304" height="9.78212" rx="4.89106" fill="#D3D7E3"/>
<rect x="446.01" y="212.062" width="219.359" height="9.78212" rx="4.89106" fill="#E4E6EE"/>
<circle cx="417.457" cy="192.934" r="17" fill="#9FB4FF"/>
<path d="M410.457 193.192L414.4 197.135L423.6 187.934" stroke="white" stroke-width="2.5" stroke-linecap="round" stroke-linejoin="round"/>
<rect x="375.521" y="280.122" width="434.116" height="84.3357" rx="11.25" fill="white" stroke="#E5ECF5" stroke-width="1.5"/>
<rect x="446.01" y="313.296" width="205.784" height="9.78212" rx="4.89106" fill="#E4E6EE"/>
<rect x="447.895" y="295.201" width="151.381" height="9" rx="4.5" fill="#A9AFC0"/>
<rect x="725" y="296.756" width="76.7924" height="9.78212" rx="4.89106" fill="#D3D7E3"/>
<rect x="446.01" y="329.898" width="86.4256" height="9.78212" rx="4.89106" fill="#E4E6EE"/>
<circle cx="417.457" cy="309.934" r="17" fill="#A19FFF"/>
<path d="M423.074 311.632C422.891 311.45 422.675 311.305 422.437 311.207C422.199 311.108 421.944 311.057 421.686 311.057C421.429 311.057 421.174 311.108 420.936 311.207C420.698 311.305 420.481 311.45 420.299 311.632L419.999 311.935C418.355 310.556 416.836 309.035 415.457 307.391L415.76 307.09C416.126 306.722 416.332 306.223 416.332 305.703C416.332 305.184 416.126 304.685 415.76 304.317L414.092 302.651C413.719 302.294 413.222 302.095 412.705 302.095C412.189 302.095 411.692 302.294 411.318 302.651L410.405 303.564C409.96 304.012 409.682 304.6 409.619 305.229C409.556 305.858 409.711 306.489 410.059 307.016C412.773 311.107 416.279 314.614 420.369 317.329C420.899 317.671 421.529 317.823 422.156 317.76C422.783 317.697 423.37 317.423 423.821 316.982L424.734 316.07C425.102 315.702 425.308 315.203 425.308 314.683C425.308 314.163 425.102 313.664 424.734 313.296L423.074 311.632Z" fill="white"/>
<rect x="375.521" y="397.958" width="434.116" height="84.3357" rx="11.25" fill="white" stroke="#E5ECF5" stroke-width="1.5"/>
<rect x="446.01" y="431.131" width="99.0518" height="9.78212" rx="4.89106" fill="#E4E6EE"/>
<rect x="447.895" y="413.037" width="199.167" height="9" rx="4.5" fill="#A9AFC0"/>
<rect x="756.912" y="414.592" width="44.8797" height="9.78212" rx="4.89106" fill="#D3D7E3"/>
<rect x="446.01" y="447.734" width="169.638" height="9.78212" rx="4.89106" fill="#E4E6EE"/>
<circle cx="417.457" cy="427.934" r="17" fill="#C39FFF"/>
<rect x="375.521" y="515.793" width="434.116" height="84.3357" rx="11.25" fill="white" stroke="#E5ECF5" stroke-width="1.5"/>
<rect x="446.01" y="548.967" width="99.0518" height="9.78212" rx="4.89106" fill="#E4E6EE"/>
<rect x="447.895" y="530.872" width="133.875" height="9" rx="4.5" fill="#A9AFC0"/>
<rect x="725.795" y="532.428" width="75.9967" height="9.78212" rx="4.89106" fill="#D3D7E3"/>
<circle cx="417.457" cy="545.934" r="17" fill="#A19FFF"/>
<path d="M424.164 540.209C424.026 540.115 423.865 540.06 423.698 540.049C423.531 540.039 423.365 540.074 423.216 540.15C422.447 540.463 421.628 540.638 420.798 540.669C419.851 540.599 418.917 540.406 418.02 540.095C416.052 539.52 415.37 539.384 413.861 539.579C413.649 539.607 413.455 539.711 413.314 539.871C413.173 540.032 413.095 540.239 413.096 540.452V549.257C413.096 549.381 413.122 549.503 413.173 549.616C413.223 549.729 413.297 549.831 413.39 549.913C413.483 549.996 413.591 550.058 413.71 550.095C413.828 550.132 413.953 550.144 414.076 550.13C415.398 549.978 416.013 550.107 417.852 550.645C418.803 550.975 419.794 551.176 420.798 551.244C421.824 551.206 422.834 550.977 423.776 550.569C424.17 550.419 424.526 550.217 424.526 549.673V540.927C424.527 540.787 424.495 540.649 424.432 540.524C424.369 540.399 424.277 540.291 424.164 540.209Z" fill="white"/>
<path d="M411.336 538.934C411.103 538.934 410.879 539.027 410.715 539.192C410.55 539.357 410.457 539.58 410.457 539.814V552.123C410.457 552.356 410.55 552.58 410.715 552.745C410.879 552.91 411.103 553.002 411.336 553.002C411.569 553.002 411.793 552.91 411.958 552.745C412.123 552.58 412.216 552.356 412.216 552.123V539.814C412.216 539.58 412.123 539.357 411.958 539.192C411.793 539.027 411.569 538.934 411.336 538.934V538.934Z" fill="white"/>
<rect x="375.771" y="137.47" width="78.705" height="9.78212" rx="4.89106" fill="#C5C9D4"/>
<rect x="374.771" y="56.9343" width="196.29" height="12" rx="6" fill="#A9AFC0"/>
<rect x="714.457" y="50.9343" width="96" height="25" rx="6.62603" fill="#9FB4FF"/>
<line x1="808.449" y1="100.099" x2="374.833" y2="100.099" stroke="#E5ECF5" stroke-linecap="round"/>
</g>
<defs>
<filter id="filter0_d" x="323.061" y="28.4615" width="545.039" height="552.512" filterUnits="userSpaceOnUse" color-interpolation-filters="sRGB">
<feFlood flood-opacity="0" result="BackgroundImageFix"/>
<feColorMatrix in="SourceAlpha" type="matrix" values="0 0 0 0 0 0 0 0 0 0 0 0 0 0 0 0 0 0 127 0" result="hardAlpha"/>
<feOffset dy="5"/>
<feGaussianBlur stdDeviation="12"/>
<feColorMatrix type="matrix" values="0 0 0 0 0.227451 0 0 0 0 0.351059 0 0 0 0 1 0 0 0 0.05 0"/>
<feBlend mode="normal" in2="BackgroundImageFix" result="effect1_dropShadow"/>
<feBlend mode="normal" in="SourceGraphic" in2="effect1_dropShadow" result="shape"/>
</filter>
</defs>
</svg>
