<svg width="643" height="566" viewBox="0 0 643 566" fill="none" xmlns="http://www.w3.org/2000/svg">
<rect opacity="0.7" width="643" height="566" rx="18" fill="white"/>
<rect x="35.6914" y="46.5588" width="102.488" height="13.7632" rx="6.88158" fill="#A9AFC0"/>
<rect x="504.088" y="39.5571" width="103.133" height="28.0072" rx="6.63" fill="#9FB4FF"/>
<rect x="35.6914" y="103.181" width="178.835" height="128.386" rx="6" fill="white"/>
<ellipse cx="68.8354" cy="197.733" rx="16.5737" ry="16.5566" fill="#9FB4FF"/>
<path d="M68.9152 197.837C71.7463 197.837 74.0413 195.544 74.0413 192.716C74.0413 189.888 71.7463 187.595 68.9152 187.595C66.0841 187.595 63.7891 189.888 63.7891 192.716C63.7891 195.544 66.0841 197.837 68.9152 197.837Z" fill="white"/>
<path d="M68.9162 199.035C67.0349 198.959 65.1829 199.52 63.6612 200.627C62.1395 201.735 61.0375 203.324 60.5342 205.137C60.498 205.326 60.5149 205.521 60.583 205.701C60.6511 205.88 60.7677 206.038 60.92 206.156C61.2882 206.453 61.7496 206.61 62.2227 206.6H75.6116C76.0847 206.61 76.5462 206.453 76.9144 206.156C77.0666 206.038 77.1832 205.88 77.2513 205.701C77.3194 205.521 77.3363 205.326 77.3002 205.137C76.7968 203.324 75.6944 201.735 74.1723 200.627C72.6502 199.519 70.7978 198.958 68.9162 199.035V199.035Z" fill="white"/>
<rect x="50.8184" y="159.93" width="77.1231" height="10.3401" rx="5.17007" fill="#E4E6EE"/>
<rect x="50.8184" y="143.579" width="135.962" height="10.3401" rx="5.17007" fill="#B4BBCE"/>
<rect x="50.8184" y="119.889" width="31.8219" height="5.66264" rx="2.83132" fill="#9FB4FF"/>
<rect x="89.3809" y="119.889" width="31.8219" height="5.66264" rx="2.83132" fill="#E1E3EC"/>
<rect x="127.941" y="119.889" width="31.8219" height="5.66264" rx="2.83132" fill="#E1E3EC"/>
<rect x="166.506" y="119.889" width="31.8219" height="5.66264" rx="2.83132" fill="#E1E3EC"/>
<rect x="35.6914" y="247.572" width="178.835" height="128.386" rx="6" fill="white"/>
<ellipse cx="68.8354" cy="342.122" rx="16.5737" ry="16.5566" fill="#9FB4FF"/>
<mask id="mask0" mask-type="alpha" maskUnits="userSpaceOnUse" x="52" y="325" width="34" height="34">
<ellipse cx="68.8354" cy="342.122" rx="16.5737" ry="16.5566" fill="#9FC5FF"/>
</mask>
<g mask="url(#mask0)">
<path d="M68.9152 342.874C71.7463 342.874 74.0413 340.582 74.0413 337.753C74.0413 334.925 71.7463 332.633 68.9152 332.633C66.0841 332.633 63.7891 334.925 63.7891 337.753C63.7891 340.582 66.0841 342.874 68.9152 342.874Z" fill="white"/>
<path d="M68.9162 343.881C67.0349 343.805 65.1829 344.366 63.6612 345.473C62.1395 346.581 61.0375 348.17 60.5342 349.983C60.498 350.172 60.5149 350.367 60.583 350.547C60.6511 350.726 60.7677 350.884 60.92 351.002C61.2882 351.298 61.7496 351.456 62.2227 351.445H75.6116C76.0847 351.456 76.5462 351.298 76.9144 351.002C77.0666 350.884 77.1832 350.726 77.2513 350.547C77.3194 350.367 77.3363 350.172 77.3002 349.983C76.7968 348.17 75.6944 346.58 74.1723 345.473C72.6502 344.365 70.7978 343.804 68.9162 343.881V343.881Z" fill="white"/>
</g>
<rect x="50.8184" y="304.32" width="147.506" height="10.3401" rx="5.17007" fill="#E4E6EE"/>
<rect x="50.8184" y="287.969" width="95.2129" height="10.3401" rx="5.17007" fill="#B4BBCE"/>
<rect x="50.8184" y="264.28" width="31.8219" height="5.66264" rx="2.83132" fill="#9FB4FF"/>
<rect x="89.3809" y="264.28" width="31.8219" height="5.66264" rx="2.83132" fill="#E1E3EC"/>
<rect x="127.941" y="264.28" width="31.8219" height="5.66264" rx="2.83132" fill="#E1E3EC"/>
<rect x="166.506" y="264.28" width="31.8219" height="5.66264" rx="2.83132" fill="#E1E3EC"/>
<rect x="232.084" y="247.572" width="178.835" height="128.386" rx="6" fill="white"/>
<ellipse cx="265.228" cy="342.122" rx="16.5737" ry="16.5566" fill="#A19FFF"/>
<path d="M265.169 342.874C268 342.874 270.295 340.582 270.295 337.753C270.295 334.925 268 332.633 265.169 332.633C262.338 332.633 260.043 334.925 260.043 337.753C260.043 340.582 262.338 342.874 265.169 342.874Z" fill="white"/>
<path d="M265.17 343.881C263.289 343.805 261.437 344.366 259.915 345.473C258.393 346.581 257.291 348.17 256.788 349.983C256.752 350.172 256.769 350.367 256.837 350.547C256.905 350.726 257.022 350.884 257.174 351.002C257.542 351.298 258.004 351.456 258.477 351.445H271.866C272.339 351.456 272.8 351.298 273.168 351.002C273.321 350.884 273.437 350.726 273.505 350.547C273.573 350.367 273.59 350.172 273.554 349.983C273.051 348.17 271.948 346.58 270.426 345.473C268.904 344.365 267.052 343.804 265.17 343.881V343.881Z" fill="white"/>
<rect x="247.211" y="304.32" width="95.1645" height="10.3401" rx="5.17007" fill="#E4E6EE"/>
<rect x="247.211" y="287.969" width="127.587" height="10.3401" rx="5.17007" fill="#B4BBCE"/>
<rect x="247.211" y="264.28" width="31.8219" height="5.66264" rx="2.83132" fill="#A19FFF"/>
<rect x="285.773" y="264.28" width="31.8219" height="5.66264" rx="2.83132" fill="#A19FFF"/>
<rect x="324.332" y="264.28" width="31.8219" height="5.66264" rx="2.83132" fill="#E1E3EC"/>
<rect x="362.896" y="264.28" width="31.8219" height="5.66264" rx="2.83132" fill="#E1E3EC"/>
<rect x="428.477" y="247.572" width="178.835" height="128.386" rx="6" fill="white"/>
<ellipse cx="461.621" cy="342.122" rx="16.5737" ry="16.5566" fill="#C39FFF"/>
<path d="M462.425 342.874C465.256 342.874 467.551 340.582 467.551 337.753C467.551 334.925 465.256 332.633 462.425 332.633C459.594 332.633 457.299 334.925 457.299 337.753C457.299 340.582 459.594 342.874 462.425 342.874Z" fill="white"/>
<path d="M462.424 343.881C460.543 343.805 458.691 344.366 457.169 345.473C455.647 346.581 454.545 348.17 454.042 349.983C454.006 350.172 454.023 350.367 454.091 350.547C454.159 350.726 454.276 350.884 454.428 351.002C454.796 351.298 455.257 351.456 455.731 351.445H469.119C469.593 351.456 470.054 351.298 470.422 351.002C470.574 350.884 470.691 350.726 470.759 350.547C470.827 350.367 470.844 350.172 470.808 349.983C470.305 348.17 469.202 346.58 467.68 345.473C466.158 344.365 464.306 343.804 462.424 343.881V343.881Z" fill="white"/>
<rect x="443.604" y="304.32" width="60.7941" height="10.3401" rx="5.17007" fill="#E4E6EE"/>
<rect x="443.604" y="287.969" width="133.063" height="10.3401" rx="5.17007" fill="#B4BBCE"/>
<rect x="443.604" y="264.28" width="31.8219" height="5.66264" rx="2.83132" fill="#C39FFF"/>
<rect x="482.168" y="264.28" width="31.8219" height="5.66264" rx="2.83132" fill="#C39FFF"/>
<rect x="520.727" y="264.28" width="31.8219" height="5.66264" rx="2.83132" fill="#E1E3EC"/>
<rect x="520.729" y="264.28" width="31.8219" height="5.66264" rx="2.83132" fill="#C39FFF"/>
<rect x="559.287" y="264.28" width="31.8219" height="5.66264" rx="2.83132" fill="#E1E3EC"/>
<rect x="231.736" y="391.962" width="178.835" height="128.386" rx="6" fill="white"/>
<ellipse cx="264.882" cy="486.513" rx="16.5737" ry="16.5566" fill="#A19FFF"/>
<mask id="mask1" mask-type="alpha" maskUnits="userSpaceOnUse" x="248" y="469" width="34" height="35">
<ellipse cx="264.882" cy="486.513" rx="16.5737" ry="16.5566" fill="#A19FFF"/>
</mask>
<g mask="url(#mask1)">
<path d="M265.169 486.911C268 486.911 270.295 484.618 270.295 481.79C270.295 478.962 268 476.669 265.169 476.669C262.338 476.669 260.043 478.962 260.043 481.79C260.043 484.618 262.338 486.911 265.169 486.911Z" fill="white"/>
<path d="M265.17 487.918C263.289 487.842 261.437 488.403 259.915 489.511C258.393 490.618 257.291 492.207 256.788 494.02C256.752 494.209 256.769 494.404 256.837 494.584C256.905 494.764 257.022 494.921 257.174 495.039C257.542 495.336 258.004 495.493 258.477 495.483H271.866C272.339 495.493 272.8 495.336 273.168 495.039C273.321 494.921 273.437 494.764 273.505 494.584C273.573 494.404 273.59 494.209 273.554 494.02C273.051 492.207 271.948 490.618 270.426 489.51C268.904 488.402 267.052 487.841 265.17 487.918V487.918Z" fill="white"/>
</g>
<rect x="246.865" y="448.71" width="95.2129" height="10.3401" rx="5.17007" fill="#E4E6EE"/>
<rect x="246.865" y="432.359" width="129.495" height="10.3401" rx="5.17007" fill="#B4BBCE"/>
<rect x="246.865" y="408.67" width="31.8219" height="5.66264" rx="2.83132" fill="#A19FFF"/>
<rect x="323.986" y="408.67" width="31.8219" height="5.66264" rx="2.83132" fill="#E1E3EC"/>
<rect x="285.426" y="408.67" width="31.8219" height="5.66264" rx="2.83132" fill="#E1E3EC"/>
<rect x="362.549" y="408.67" width="31.8219" height="5.66264" rx="2.83132" fill="#E1E3EC"/>
<rect x="231.547" y="103.181" width="178.835" height="128.386" rx="6" fill="white"/>
<ellipse cx="264.691" cy="197.733" rx="16.5737" ry="16.5566" fill="#A19FFF"/>
<path d="M265.169 198.837C268 198.837 270.295 196.544 270.295 193.716C270.295 190.888 268 188.595 265.169 188.595C262.338 188.595 260.043 190.888 260.043 193.716C260.043 196.544 262.338 198.837 265.169 198.837Z" fill="white"/>
<path d="M265.17 199.844C263.289 199.768 261.437 200.329 259.915 201.436C258.393 202.544 257.291 204.133 256.788 205.946C256.752 206.134 256.769 206.33 256.837 206.509C256.905 206.689 257.022 206.847 257.174 206.964C257.542 207.261 258.004 207.419 258.477 207.408H271.866C272.339 207.419 272.8 207.261 273.168 206.964C273.321 206.847 273.437 206.689 273.505 206.509C273.573 206.33 273.59 206.134 273.554 205.946C273.051 204.133 271.948 202.543 270.426 201.436C268.904 200.328 267.052 199.767 265.17 199.844V199.844Z" fill="white"/>
<rect x="246.678" y="159.93" width="108.944" height="10.3401" rx="5.17007" fill="#E4E6EE"/>
<rect x="246.678" y="143.579" width="50.6175" height="10.3401" rx="5.17007" fill="#B4BBCE"/>
<rect x="246.678" y="119.889" width="31.8219" height="5.66264" rx="2.83132" fill="#A19FFF"/>
<rect x="285.238" y="119.889" width="31.8219" height="5.66264" rx="2.83132" fill="#A19FFF"/>
<rect x="323.799" y="119.889" width="31.8219" height="5.66264" rx="2.83132" fill="#E1E3EC"/>
<rect x="362.359" y="119.889" width="31.8219" height="5.66264" rx="2.83132" fill="#E1E3EC"/>
<rect x="427.939" y="103.181" width="178.835" height="128.386" rx="6" fill="white"/>
<ellipse cx="461.083" cy="197.733" rx="16.5737" ry="16.5566" fill="#C39FFF"/>
<path d="M461.423 198.837C464.254 198.837 466.549 196.544 466.549 193.716C466.549 190.888 464.254 188.595 461.423 188.595C458.592 188.595 456.297 190.888 456.297 193.716C456.297 196.544 458.592 198.837 461.423 198.837Z" fill="white"/>
<path d="M461.424 199.844C459.543 199.768 457.691 200.329 456.169 201.436C454.647 202.544 453.545 204.133 453.042 205.946C453.006 206.134 453.023 206.33 453.091 206.509C453.159 206.689 453.276 206.847 453.428 206.964C453.796 207.261 454.257 207.419 454.731 207.408H468.119C468.593 207.419 469.054 207.261 469.422 206.964C469.574 206.847 469.691 206.689 469.759 206.509C469.827 206.33 469.844 206.134 469.808 205.946C469.305 204.133 468.202 202.543 466.68 201.436C465.158 200.328 463.306 199.767 461.424 199.844V199.844Z" fill="white"/>
<rect x="443.07" y="159.93" width="25.5961" height="10.3401" rx="5.17007" fill="#E4E6EE"/>
<rect x="443.07" y="143.579" width="88.4859" height="10.3401" rx="5.17007" fill="#B4BBCE"/>
<rect x="443.07" y="119.889" width="31.8219" height="5.66264" rx="2.83132" fill="#C39FFF"/>
<rect x="481.631" y="119.889" width="31.8219" height="5.66264" rx="2.83132" fill="#C39FFF"/>
<rect x="520.189" y="119.889" width="31.8219" height="5.66264" rx="2.83132" fill="#E1E3EC"/>
<rect x="520.191" y="119.889" width="31.8219" height="5.66264" rx="2.83132" fill="#C39FFF"/>
<rect x="558.752" y="119.889" width="31.8219" height="5.66264" rx="2.83132" fill="#E1E3EC"/>
</svg>
