<svg width="68" height="68" viewBox="0 0 68 68" fill="none" xmlns="http://www.w3.org/2000/svg">
<rect width="68" height="68" rx="14.9041" fill="#A19FFF"/>
<path opacity="0.5" d="M54.1339 39.1696C53.7104 38.5152 53.1085 37.8608 52.3283 37.4463C51.7041 37.1409 51.3028 36.6392 50.9461 36.0503C49.8092 34.1743 50.478 31.7094 52.3729 30.5969C54.6021 29.3536 55.3154 26.5833 54.0225 24.4238L52.5289 21.8498C51.2582 19.6903 48.4717 18.9268 46.2648 20.192C44.3031 21.239 41.784 20.541 40.6471 18.6869C40.2904 18.0761 40.0898 17.4217 40.1344 16.7673C40.2013 15.9166 39.9338 15.1095 39.5325 14.4551C38.7077 13.1027 37.2141 12.1865 35.5645 12.1865H32.4213C30.7939 12.2302 29.3004 13.1027 28.4755 14.4551C28.052 15.1095 27.8068 15.9166 27.8514 16.7673C27.8959 17.4217 27.6953 18.0761 27.3386 18.6869C26.2017 20.541 23.6827 21.239 21.7433 20.192C19.5141 18.9268 16.7498 19.6903 15.4569 21.8498L13.9633 24.4238C12.6926 26.5833 13.406 29.3536 15.6129 30.5969C17.5078 31.7094 18.1765 34.1743 17.0619 36.0503C16.6829 36.6392 16.2817 37.1409 15.6575 37.4463C14.8996 37.8608 14.2308 38.5152 13.8741 39.1696C13.0493 40.522 13.0939 42.2234 13.9187 43.6413L15.4569 46.2589C16.2817 47.655 17.8198 48.5275 19.4249 48.5275C20.1828 48.5275 21.0745 48.3094 21.7879 47.8731C22.3452 47.5023 23.0139 47.3714 23.7496 47.3714C25.9565 47.3714 27.8068 49.1819 27.8514 51.3414C27.8514 53.8499 29.9023 55.8131 32.4882 55.8131H35.5199C38.0835 55.8131 40.1344 53.8499 40.1344 51.3414C40.2013 49.1819 42.0515 47.3714 44.2585 47.3714C44.9718 47.3714 45.6406 47.5023 46.2202 47.8731C46.9335 48.3094 47.8029 48.5275 48.5832 48.5275C50.1659 48.5275 51.7041 47.655 52.5289 46.2589L54.0894 43.6413C54.8919 42.1798 54.9588 40.522 54.1339 39.1696Z" fill="white"/>
<path d="M34.0341 40.1624C30.5342 40.1624 27.7031 37.4357 27.7031 34.0111C27.7031 30.5864 30.5342 27.8379 34.0341 27.8379C37.534 27.8379 40.2983 30.5864 40.2983 34.0111C40.2983 37.4357 37.534 40.1624 34.0341 40.1624" fill="white"/>
</svg>
