<svg width="147" height="147" viewBox="0 0 147 147" fill="none" xmlns="http://www.w3.org/2000/svg">
<g clip-path="url(#clip0)">
<rect width="146" height="146" transform="translate(0.0537109 0.142334)" fill="white"/>
<rect x="0.0537109" y="0.142334" width="146" height="146" fill="#0e1323"/>
<path d="M69.5555 29.7722C64.7607 30.3095 57.5685 32.5416 53.4764 34.7737C42.4814 40.6845 35.0411 49.9021 31.321 62.1785C30.577 64.5759 29.709 71.1067 29.7503 74.1655C29.7503 76.8522 30.577 83.4244 31.073 84.9951C31.321 85.7392 31.8584 87.5166 32.3131 88.8806C33.0571 91.1953 36.6532 98.4702 37.2732 98.9662C37.3972 99.0902 38.0586 99.9169 38.6786 100.868C40.208 103.141 44.2174 107.192 47.2348 109.507C49.5496 111.284 56.0804 115.045 56.9071 115.087C57.1138 115.087 57.1551 113.516 57.0311 111.449C56.7418 106.861 57.6098 100.62 59.4699 94.2541C59.8005 93.1794 60.0485 91.774 60.0485 91.154C60.0485 90.534 60.2139 89.8726 60.4206 89.666C60.6272 89.418 60.9992 88.2192 61.2059 86.9792C61.4539 85.7392 61.8673 83.8378 62.1566 82.7631C62.57 81.151 62.5286 80.531 61.9499 78.795C61.1232 76.1496 61.0819 71.8508 61.9086 69.784C63.8513 64.8652 66.0007 63.0052 69.6382 63.0052C74.0196 63.0052 76.1277 66.3119 75.301 71.8508C74.929 74.3722 73.8956 78.3403 73.2343 79.5803C73.0689 79.9523 72.7796 80.9857 72.6556 81.8537C72.4902 82.7631 72.1596 84.0445 71.9529 84.7471C71.3742 86.3592 72.4902 89.5006 73.9783 90.6993C75.3837 91.8154 78.3184 92.146 81.0052 91.526C82.9066 91.1127 83.6919 90.6167 85.676 88.7153C88.032 86.4005 89.8094 83.7138 89.8094 82.4324C90.0954 81.8537 90.0161 81.5644 90.2641 81.3164C91.4215 80.159 92.0415 71.1481 91.1735 67.3453C90.2228 63.1705 87.288 59.0784 83.4852 56.681C79.6825 54.2422 71.8289 53.5396 66.9928 55.1929C63.6033 56.3503 60.5859 58.293 58.6432 60.5664C56.9071 62.5918 55.0884 65.8986 55.0884 67.056C55.0884 67.4693 54.8817 68.0066 54.6337 68.2547C54.3857 68.5027 54.0964 70.0734 53.9724 71.7681C53.7657 74.2895 53.931 75.4469 54.6751 77.9269C55.1711 79.6217 56.0804 81.6057 56.6178 82.3497C57.7338 83.8378 57.7338 84.4165 56.7004 88.3846C56.4111 89.4593 55.9151 90.4513 55.6258 90.5753C53.0217 91.5673 47.7309 85.3258 45.9535 79.1256C45.2921 76.7696 45.2508 68.3787 45.9121 65.8986C46.2015 64.8652 46.6975 63.4598 47.0282 62.7158C47.3588 62.0131 47.6482 61.3104 47.6482 61.1451C47.6482 60.9798 48.4749 59.5744 49.5082 58.045C54.8817 49.9434 63.6033 45.6447 74.6396 45.6447C77.1611 45.6447 79.7651 45.81 80.4678 46.0167C86.172 47.7941 87.7014 48.3727 89.9334 49.6954C94.2736 52.2995 97.415 55.8543 100.556 61.8065C100.763 62.1785 101.052 63.1705 101.176 63.9972C101.342 64.8239 101.631 65.6092 101.838 65.7332C102.044 65.8573 102.21 68.544 102.21 71.7268C102.21 77.4723 101.796 79.787 100.06 84.4991C98.1177 89.666 93.1162 95.3701 88.5694 97.6022C85.9653 98.8422 81.0878 100.206 79.1451 100.206C76.541 100.206 71.4155 98.0569 70.0102 96.3208C69.3488 95.5355 68.7288 95.8248 68.7288 96.9408C68.7288 97.3542 68.5635 98.0569 68.3155 98.4702C68.1088 98.8422 67.7368 99.9996 67.5301 101.033C66.3314 106.489 64.6367 110.912 62.0326 115.045C61.2473 116.327 61.9086 117.071 64.058 117.36C65.1327 117.525 66.5794 117.815 67.2408 118.021C68.8941 118.559 77.8637 118.476 80.8812 117.939C83.6092 117.443 88.032 116.203 90.0161 115.376C102.499 110.251 111.965 99.8343 116.057 86.5659C118.248 79.4977 118.372 71.2721 116.388 63.0052C115.726 60.3184 115.52 59.6984 113.742 55.5649C111.179 49.5301 105.393 42.4619 99.523 38.1218C94.4802 34.4017 89.5201 32.2523 81.7905 30.3922C79.6411 29.8962 71.9942 29.4828 69.5555 29.7722Z" fill="white"/>
</g>
<defs>
<clipPath id="clip0">
<rect width="146" height="146" fill="white" transform="translate(0.0537109 0.142334)"/>
</clipPath>
</defs>
</svg>
