<svg width="110" height="110" viewBox="0 0 110 110" fill="none" xmlns="http://www.w3.org/2000/svg">
<rect width="110" height="110" fill="white"/>
<rect width="110" height="110" fill="white"/>
<path d="M24.3838 52.1895C24.5363 59.321 24.9633 71.519 25.0243 72.8641C25.2409 75.7405 26.3421 78.6474 28.0563 80.6972C30.4416 83.5736 33.379 84.8577 37.4755 84.8577C43.1368 84.8882 49.3776 84.8882 55.4385 84.8882C61.5238 84.8882 67.4291 84.8882 72.4162 84.8577C76.4548 84.8577 79.4837 83.54 81.8385 80.6972C83.5527 78.6474 84.6539 75.71 84.8094 72.8641C84.8704 71.7325 85.1755 58.4913 85.3585 52.1895H24.3838Z" fill="#A3BAFF"/>
<path d="M52.584 65.3229V69.2699C52.584 70.5327 53.6089 71.5576 54.8717 71.5576C56.1345 71.5576 57.1594 70.5327 57.1594 69.2699V65.3229C57.1594 64.06 56.1345 63.0352 54.8717 63.0352C53.6089 63.0352 52.584 64.06 52.584 65.3229" fill="white"/>
<path fill-rule="evenodd" clip-rule="evenodd" d="M49.4295 62.7981C49.1244 63.9053 48.0599 64.613 46.9069 64.4605C39.1257 63.3746 31.6892 60.6141 25.4117 56.4688C24.7681 56.0479 24.3838 55.328 24.3838 54.5593V43.9871C24.3838 37.5816 29.6058 32.3717 36.0266 32.3717H42.0265C42.5999 27.9428 46.3518 24.499 50.9333 24.499H58.809C63.3875 24.499 67.1423 27.9428 67.7158 32.3717H73.7461C80.1486 32.3717 85.3585 37.5816 85.3585 43.9871V54.5593C85.3585 55.328 84.9711 56.0448 84.3336 56.4688C78.044 60.6324 70.5769 63.4051 62.7439 64.4879C62.6371 64.5032 62.5334 64.5093 62.4297 64.5093C61.3956 64.5093 60.4714 63.8108 60.2121 62.7859C59.596 60.3579 57.3907 58.6589 54.8559 58.6589C52.2876 58.6589 50.1066 60.3213 49.4295 62.7981ZM58.8076 29.0744H50.9319C48.879 29.0744 47.1648 30.4776 46.6523 32.3718H63.0841C62.5717 30.4776 60.8574 29.0744 58.8076 29.0744Z" fill="#DAE6FF"/>
</svg>
