<svg width="111" height="111" viewBox="0 0 111 111" fill="none" xmlns="http://www.w3.org/2000/svg">
<rect width="111" height="111" fill="white"/>
<rect x="0.528809" y="0.131958" width="110" height="110" fill="white"/>
<path fill-rule="evenodd" clip-rule="evenodd" d="M43.8342 24.5712C51.2014 20.2905 60.2569 20.3654 67.555 24.7672C74.7814 29.2587 79.1733 37.2747 79.1324 45.8977C78.9642 54.4641 74.2548 62.5165 68.368 68.7414C64.9703 72.3504 61.1693 75.5417 57.0429 78.2501C56.6179 78.4958 56.1524 78.6603 55.6693 78.7355C55.2043 78.7157 54.7515 78.5783 54.3517 78.3358C48.0519 74.2662 42.5249 69.0717 38.0369 63.0019C34.2814 57.9352 32.1478 51.8139 31.9258 45.4693C31.9209 36.8298 36.467 28.8519 43.8342 24.5712ZM48.0902 49.0448C49.3295 52.1 52.2546 54.0928 55.4999 54.0928C57.6259 54.1081 59.6696 53.2565 61.1756 51.7278C62.6815 50.1992 63.5247 48.1204 63.5172 45.9548C63.5285 42.6491 61.5824 39.6625 58.5874 38.3894C55.5925 37.1164 52.1395 37.808 49.8408 40.1414C47.542 42.4748 46.851 45.9896 48.0902 49.0448Z" fill="#7AAFFF"/>
<ellipse opacity="0.4" cx="55.5292" cy="85.4794" rx="16.8597" ry="3.37194" fill="#7AAFFF"/>
</svg>
