<svg width="110" height="110" viewBox="0 0 110 110" fill="none" xmlns="http://www.w3.org/2000/svg">
<rect width="110" height="110" fill="white"/>
<rect width="110" height="110" fill="white"/>
<path d="M67.4258 25.8785H42.2285C37.2204 25.8785 33.0092 27.6384 30.0507 30.7271C27.0935 33.8146 25.4122 38.2041 25.4122 43.4214V67.1656C25.4122 72.3686 27.0936 76.7508 30.0509 79.8345C33.0093 82.9195 37.2204 84.6793 42.2285 84.6793H67.4258C72.434 84.6793 76.638 82.9194 79.5892 79.8342C82.5392 76.7503 84.213 72.3682 84.213 67.1656V43.4214C84.213 38.2045 82.5393 33.8151 79.5893 30.7274C76.6381 27.6385 72.434 25.8785 67.4258 25.8785Z" fill="#A3A7FF" stroke="url(#paint0_linear)" stroke-width="0.675539" stroke-linecap="round" stroke-linejoin="round"/>
<path d="M61.6068 60.7671L61.6068 60.7671L61.6055 60.7688C61.2781 61.2053 60.787 61.4901 60.2449 61.5578C59.7029 61.6254 59.1566 61.4701 58.7317 61.1274L58.7303 61.1263L50.7568 54.8743L50.6498 54.7904L50.5666 54.898L43.3854 64.1867L43.3849 64.1863L43.378 64.1973C42.8907 64.9711 41.9416 65.3188 41.0686 65.0433C40.1957 64.7677 39.6194 63.9385 39.6661 63.0258L39.5311 63.0189L39.6662 63.0177C39.6622 62.5669 39.8142 62.1284 40.0965 61.7765L40.0965 61.7765L40.0979 61.7748L48.6847 50.6998L48.6847 50.6998L48.6861 50.6978C49.0096 50.2649 49.4942 49.9802 50.0305 49.9082C50.5666 49.8362 51.1092 49.9829 51.5357 50.315C51.5358 50.3151 51.5359 50.3152 51.536 50.3153L59.5089 56.5924L59.6157 56.6765L59.6991 56.5691L66.7014 47.5611L66.7015 47.5612L66.7041 47.5575C67.0193 47.1227 67.4976 46.834 68.0298 46.7574C68.5618 46.6809 69.1022 46.823 69.5275 47.1511C70.4079 47.84 70.5779 49.104 69.9108 50.0004L69.8841 50.0363V50.0811V50.0859L61.6068 60.7671Z" fill="white" stroke="url(#paint1_linear)" stroke-width="0.270215"/>
<defs>
<linearGradient id="paint0_linear" x1="35.0026" y1="32.988" x2="72.0803" y2="78.9096" gradientUnits="userSpaceOnUse">
<stop stop-color="white" stop-opacity="0.25"/>
<stop offset="1" stop-color="white" stop-opacity="0"/>
</linearGradient>
<linearGradient id="paint1_linear" x1="44.451" y1="48.7771" x2="54.048" y2="68.465" gradientUnits="userSpaceOnUse">
<stop stop-color="white" stop-opacity="0.25"/>
<stop offset="1" stop-color="white" stop-opacity="0"/>
</linearGradient>
</defs>
</svg>
