<svg width="111" height="111" viewBox="0 0 111 111" fill="none" xmlns="http://www.w3.org/2000/svg">
<rect width="111" height="111" fill="white"/>
<rect x="0.20459" y="0.131958" width="110" height="110" fill="white"/>
<path d="M86.9235 55.1319C86.9235 72.6534 72.723 86.8508 55.2047 86.8508C37.6864 86.8508 23.4858 72.6534 23.4858 55.1319C23.4858 37.6168 37.6864 23.4131 55.2047 23.4131C72.723 23.4131 86.9235 37.6168 86.9235 55.1319" fill="#A3BAFF"/>
<path d="M66.5395 67.231C66.124 67.231 65.7053 67.1232 65.3215 66.898L52.8687 59.4694C52.1518 59.038 51.7109 58.2609 51.7109 57.4235V41.415C51.7109 40.1019 52.7767 39.0361 54.0899 39.0361C55.403 39.0361 56.4688 40.1019 56.4688 41.415V56.0723L67.7607 62.8062C68.8867 63.4818 69.2578 64.9409 68.5854 66.0701C68.1381 66.8155 67.3483 67.231 66.5395 67.231" fill="white"/>
</svg>
