<svg width="147" height="147" viewBox="0 0 147 147" fill="none" xmlns="http://www.w3.org/2000/svg">
<g clip-path="url(#clip0)">
<rect width="146" height="146" transform="translate(0.526855 0.142334)" fill="white"/>
<rect x="0.526855" y="0.142334" width="146" height="146" fill="#0e1323"/>
<path d="M94.4552 61.408C94.4552 61.408 87.6764 82.6983 87.1241 84.4558C86.9232 82.6481 81.9521 44.436 81.9521 44.436C70.4031 44.436 64.2269 52.671 60.9631 61.3578C60.9631 61.3578 52.7282 82.6983 52.0252 84.506C51.975 82.849 50.7699 61.6089 50.7699 61.6089C50.0669 50.9637 40.3256 44.4862 32.4421 44.4862L41.9826 102.382C54.0839 102.332 60.6116 94.1469 64.0261 85.46C64.0261 85.46 71.307 66.6302 71.6083 65.7766C71.6585 66.58 76.8304 102.382 76.8304 102.382C88.982 102.382 95.5096 94.6992 99.0245 86.3137L116.047 44.4862C104.046 44.4862 97.719 52.671 94.4552 61.408Z" fill="white"/>
</g>
<defs>
<clipPath id="clip0">
<rect width="146" height="146" fill="white" transform="translate(0.526855 0.142334)"/>
</clipPath>
</defs>
</svg>
