<svg width="111" height="111" viewBox="0 0 111 111" fill="none" xmlns="http://www.w3.org/2000/svg">
<rect width="111" height="111" fill="white"/>
<rect x="0.366699" y="0.131958" width="110" height="110" fill="white"/>
<path opacity="0.4" d="M26.9731 52.7998C27.1152 59.4417 27.5129 70.8022 27.5697 72.055C27.7714 74.7339 28.797 77.4413 30.3935 79.3503C32.6151 82.0292 35.3508 83.2252 39.166 83.2252C44.4386 83.2536 50.251 83.2536 55.8957 83.2536C61.5632 83.2536 67.0631 83.2536 71.7079 83.2252C75.4691 83.2252 78.2901 81.998 80.4832 79.3503C82.0798 77.4413 83.1053 74.7055 83.2502 72.055C83.307 71.0011 83.5911 58.669 83.7616 52.7998H26.9731Z" fill="#A3C1FF"/>
<path d="M53.2368 65.0315V68.7076C53.2368 69.8837 54.1913 70.8382 55.3674 70.8382C56.5436 70.8382 57.4981 69.8837 57.4981 68.7076V65.0315C57.4981 63.8554 56.5436 62.9009 55.3674 62.9009C54.1913 62.9009 53.2368 63.8554 53.2368 65.0315" fill="white"/>
<path fill-rule="evenodd" clip-rule="evenodd" d="M50.2993 62.6799C50.0152 63.7111 49.0238 64.3702 47.9499 64.2281C40.7029 63.2168 33.777 60.6458 27.9305 56.7851C27.3311 56.3931 26.9731 55.7226 26.9731 55.0067V45.1604C26.9731 39.1946 31.8367 34.3425 37.8166 34.3425H43.4046C43.9386 30.2176 47.4329 27.0103 51.6998 27.0103H59.0349C63.299 27.0103 66.7961 30.2176 67.3301 34.3425H72.9465C78.9094 34.3425 83.7616 39.1946 83.7616 45.1604V55.0067C83.7616 55.7226 83.4008 56.3902 82.807 56.7851C76.9492 60.6629 69.9948 63.2452 62.6996 64.2537C62.6001 64.2679 62.5035 64.2736 62.407 64.2736C61.4439 64.2736 60.5831 63.623 60.3417 62.6685C59.7678 60.4072 57.7139 58.8248 55.3531 58.8248C52.9612 58.8248 50.93 60.3731 50.2993 62.6799ZM59.0335 31.2716H51.6985C49.7866 31.2716 48.19 32.5783 47.7128 34.3425H63.0164C62.5391 32.5783 60.9426 31.2716 59.0335 31.2716Z" fill="#A3C1FF"/>
</svg>
