<svg width="111" height="110" viewBox="0 0 111 110" fill="none" xmlns="http://www.w3.org/2000/svg">
<rect width="111" height="110" fill="white"/>
<rect x="1.49268" y="0.5" width="109" height="109" fill="white" stroke="#F5F9FF"/>
<path fill-rule="evenodd" clip-rule="evenodd" d="M52.8833 34.6456C51.2745 34.6456 49.9058 35.7635 49.5216 37.2704H62.44C62.0558 35.7635 60.6872 34.6456 59.0784 34.6456H52.8833ZM66.0897 37.2703H70.8441C75.8866 37.2703 79.9927 41.4263 79.9927 46.53C79.9927 46.53 79.8486 48.6906 79.8006 51.6994C79.7958 51.9376 79.6805 52.1709 79.4908 52.3119C78.3358 53.165 77.2793 53.8698 77.1833 53.9184C73.1973 56.5918 68.5654 58.4729 63.6309 59.4086C63.3091 59.4718 62.9922 59.3041 62.8289 59.0173C61.4458 56.6209 58.8621 55.0606 55.9807 55.0606C53.1184 55.0606 50.5107 56.6039 49.0868 59.0027C48.9211 59.2846 48.609 59.4475 48.2896 59.3867C43.396 58.4486 38.7641 56.5699 34.8021 53.9427L32.4969 52.3386C32.3048 52.2171 32.1848 51.9984 32.1848 51.7553C32.1127 50.5159 31.9927 46.53 31.9927 46.53C31.9927 41.4263 36.0987 37.2703 41.1413 37.2703H45.8716C46.3278 33.7463 49.2813 31 52.8831 31H59.0782C62.68 31 65.6335 33.7463 66.0897 37.2703ZM79.1764 56.9566L79.0803 57.0052C74.2299 60.2619 68.395 62.4249 62.2719 63.3242C61.4075 63.4457 60.5431 62.8867 60.3029 62.0118C59.7747 60.0189 58.0698 58.7065 56.0288 58.7065H56.0048H55.9568C53.9158 58.7065 52.2109 60.0189 51.6826 62.0118C51.4425 62.8867 50.5781 63.4457 49.7137 63.3242C43.5906 62.4249 37.7557 60.2619 32.9052 57.0052C32.8812 56.9809 32.6411 56.8351 32.449 56.9566C32.2329 57.0781 32.2329 57.3698 32.2329 57.3698L32.401 69.7646C32.401 74.8684 36.483 79 41.5256 79H70.436C75.4785 79 79.5606 74.8684 79.5606 69.7646L79.7527 57.3698C79.7527 57.3698 79.7527 57.0781 79.5366 56.9566C79.4165 56.8837 79.2724 56.908 79.1764 56.9566ZM57.7816 67.1398C57.7816 68.1606 56.9892 68.9626 55.9807 68.9626C54.9962 68.9626 54.1798 68.1606 54.1798 67.1398V64.0046C54.1798 63.0082 54.9962 62.1819 55.9807 62.1819C56.9892 62.1819 57.7816 63.0082 57.7816 64.0046V67.1398Z" fill="#7AAFFF"/>
</svg>
