<svg width="63" height="63" viewBox="0 0 63 63" fill="none" xmlns="http://www.w3.org/2000/svg">
<rect width="63" height="63" fill="white"/>
<rect x="0.308594" y="0.431641" width="62" height="62" fill="white"/>
<path d="M38.3977 14.5166H24.2211C19.0789 14.5166 16.085 17.5275 16.085 22.6866V40.16C16.085 45.4037 19.0789 48.3469 24.2211 48.3469H38.3977C43.6228 48.3469 46.5322 45.4037 46.5322 40.16V22.6866C46.5322 17.5275 43.6228 14.5166 38.3977 14.5166" fill="#0e1323"/>
<path fill-rule="evenodd" clip-rule="evenodd" d="M24.6802 22.3823V22.3992C23.9511 22.3992 23.3608 22.9913 23.3608 23.7186C23.3608 24.446 23.9511 25.038 24.6802 25.038H29.7361C30.4652 25.038 31.0572 24.446 31.0572 23.7C31.0572 22.9744 30.4652 22.3823 29.7361 22.3823H24.6802ZM37.941 32.6838H24.6795C23.9505 32.6838 23.3601 32.0917 23.3601 31.3644C23.3601 30.637 23.9505 30.0433 24.6795 30.0433H37.941C38.6683 30.0433 39.2604 30.637 39.2604 31.3644C39.2604 32.0917 38.6683 32.6838 37.941 32.6838ZM37.9416 40.4138H24.6801C24.1727 40.4815 23.6821 40.2278 23.4115 39.8049C23.1408 39.3651 23.1408 38.8069 23.4115 38.384C23.6821 37.9442 24.1727 37.7074 24.6801 37.7582H37.9416C38.6165 37.8258 39.1256 38.4009 39.1256 39.0945C39.1256 39.7694 38.6165 40.3462 37.9416 40.4138Z" fill="white"/>
</svg>
