<svg width="146" height="147" viewBox="0 0 146 147" fill="none" xmlns="http://www.w3.org/2000/svg">
<g clip-path="url(#clip0)">
<rect width="146" height="146" transform="translate(0 0.142334)" fill="white"/>
<rect y="0.142334" width="146" height="146" fill="#0e1323"/>
<path d="M73.9132 101.271L57.7659 100.976C52.5375 100.873 47.2964 101.078 42.1709 100.012C34.3734 98.4192 33.821 90.6089 33.2429 84.0574C32.4465 74.8469 32.7548 65.4693 34.2578 56.3358C35.1056 51.2103 38.4455 48.153 43.6096 47.819C61.0416 46.6115 78.5892 46.7528 95.9826 47.318C97.8196 47.3694 99.6694 47.652 101.481 47.9731C110.421 49.5403 110.64 58.3912 111.218 65.8418C111.796 73.3696 111.552 80.9359 110.447 88.4122C109.561 94.604 107.865 99.7937 100.71 100.295C91.7434 100.95 82.9825 101.477 73.9903 101.31C73.9903 101.271 73.9389 101.271 73.9132 101.271V101.271ZM64.4201 85.5989C71.177 81.7195 77.8055 77.9042 84.524 74.0504C77.7542 70.1709 71.1385 66.3557 64.4201 62.5019V85.5989Z" fill="white"/>
</g>
<defs>
<clipPath id="clip0">
<rect width="146" height="146" fill="white" transform="translate(0 0.142334)"/>
</clipPath>
</defs>
</svg>
