<svg width="147" height="146" viewBox="0 0 147 146" fill="none" xmlns="http://www.w3.org/2000/svg">
<g clip-path="url(#clip0)">
<rect width="146" height="146" transform="translate(0.0537109)" fill="white"/>
<rect x="0.0537109" width="146" height="146" fill="#0e1323"/>
<path d="M111.605 73.9426C111.605 71.2299 111.266 68.5171 110.927 65.9739H73.6262V81.2332H94.9893C94.1415 85.9805 91.4287 90.5583 87.1901 93.1015V102.935H100.076C107.536 95.9838 111.605 85.811 111.605 73.9426V73.9426Z" fill="white"/>
<path d="M73.7943 112.43C84.4758 112.43 93.4618 108.869 100.074 102.935L87.1885 93.1012C83.628 95.4749 79.2198 97.0008 73.7943 97.0008C63.6214 97.0008 54.6354 90.2189 51.7531 80.5547H38.6979V90.7276C45.4798 103.952 58.8741 112.43 73.7943 112.43Z" fill="white"/>
<path d="M51.7541 80.5547C49.8891 75.8074 49.8891 70.3819 51.7541 65.2954V55.1226H38.699C33.1039 66.1432 33.1039 79.1984 38.699 90.5581L51.7541 80.5547Z" fill="white"/>
<path d="M73.7951 49.1887C79.3902 49.1887 84.8158 51.2232 89.0544 55.1228L100.414 43.7631C93.2931 37.1508 83.7985 33.2512 74.1342 33.5903C59.214 33.5903 45.4807 41.8981 39.0378 55.2924L52.093 65.4653C54.8058 55.9706 63.6223 49.1887 73.7951 49.1887Z" fill="white"/>
</g>
<defs>
<clipPath id="clip0">
<rect width="146" height="146" fill="white" transform="translate(0.0537109)"/>
</clipPath>
</defs>
</svg>
