<svg width="63" height="63" viewBox="0 0 63 63" fill="none" xmlns="http://www.w3.org/2000/svg">
<rect width="63" height="63" fill="white"/>
<rect x="0.308594" y="0.943359" width="62" height="62" fill="white"/>
<path fill-rule="evenodd" clip-rule="evenodd" d="M16.6089 25.8323C18.5646 18.5338 26.0035 14.1857 33.2243 16.1205C36.6919 17.0496 39.6444 19.333 41.4322 22.4683C43.2201 25.6036 43.6969 29.334 42.7578 32.8389C40.8022 40.1374 33.3632 44.4855 26.1424 42.5507C18.9216 40.6159 14.6533 33.1308 16.6089 25.8323ZM39.6899 43.4264L42.7416 47.6129L42.8092 47.6311C43.3836 48.6384 43.0377 49.9294 42.0365 50.5146C41.0354 51.0998 39.7581 50.7575 39.1837 49.7502L36.9446 45.1808C36.7216 44.7913 36.6619 44.3273 36.7787 43.8913C36.8955 43.4554 37.1792 43.0834 37.5671 42.8576C38.3131 42.4303 39.2575 42.6833 39.6899 43.4264Z" fill="#0e1323"/>
<g filter="url(#filter0_f)">
<path d="M31.613 22.1363C27.6788 21.0821 23.6257 23.4512 22.5602 27.4277C21.4947 31.4042 23.8203 35.4824 27.7545 36.5366C31.6887 37.5908 35.7418 35.2217 36.8073 31.2452C37.3189 29.3356 37.0592 27.3031 36.085 25.5948C35.1109 23.8866 33.5023 22.6425 31.613 22.1363Z" fill="#0e1323"/>
</g>
<defs>
<filter id="filter0_f" x="12.1316" y="11.7155" width="35.1026" height="35.2418" filterUnits="userSpaceOnUse" color-interpolation-filters="sRGB">
<feFlood flood-opacity="0" result="BackgroundImageFix"/>
<feBlend mode="normal" in="SourceGraphic" in2="BackgroundImageFix" result="shape"/>
<feGaussianBlur stdDeviation="5.0851" result="effect1_foregroundBlur"/>
</filter>
</defs>
</svg>
