<svg width="818" height="567" viewBox="0 0 818 567" fill="none" xmlns="http://www.w3.org/2000/svg">
<rect x="0.513672" y="0.838745" width="817.086" height="565.941" rx="17.0192" fill="white" fill-opacity="0.5"/>
<rect x="35.0876" y="34.8641" width="254.705" height="497.89" rx="13.2372" fill="white"/>
<ellipse cx="211.426" cy="236.861" rx="17.492" ry="17.0192" fill="#9FB4FF"/>
<ellipse cx="114.038" cy="236.861" rx="17.492" ry="17.0192" fill="#9FB4FF"/>
<circle cx="162.732" cy="236.861" r="17.0192" fill="#9FB4FF"/>
<path d="M168.043 238.467C167.87 238.294 167.666 238.158 167.441 238.064C167.216 237.971 166.975 237.923 166.731 237.923C166.488 237.923 166.246 237.971 166.021 238.064C165.796 238.158 165.592 238.294 165.42 238.467L165.135 238.753C163.582 237.449 162.145 236.011 160.841 234.457L161.127 234.172C161.474 233.824 161.669 233.352 161.669 232.861C161.669 232.369 161.474 231.898 161.127 231.55L159.551 229.975C159.198 229.637 158.728 229.449 158.239 229.449C157.751 229.449 157.281 229.637 156.928 229.975L156.064 230.838C155.643 231.262 155.381 231.818 155.321 232.412C155.262 233.007 155.409 233.603 155.737 234.102C158.303 237.971 161.618 241.286 165.486 243.853C165.986 244.176 166.582 244.32 167.175 244.26C167.768 244.201 168.323 243.942 168.75 243.525L169.612 242.662C169.96 242.315 170.155 241.843 170.155 241.351C170.155 240.859 169.96 240.388 169.612 240.04L168.043 238.467Z" fill="white"/>
<line x1="60.6332" y1="283.074" x2="266.597" y2="283.074" stroke="#E5ECF5" stroke-width="0.945514" stroke-linecap="round"/>
<rect x="60.1604" y="330.391" width="158.948" height="9.24913" rx="4.62456" fill="#E4E6EE"/>
<rect x="83.427" y="189.071" width="158.948" height="12.0837" rx="6.04183" fill="#E4E6EE"/>
<rect x="60.1604" y="312.301" width="102.599" height="9.24913" rx="4.62456" fill="#B9BDC9"/>
<rect x="111.602" y="168.477" width="102.599" height="12.0837" rx="6.04183" fill="#A9AFC0"/>
<rect x="60.1604" y="381.367" width="71.9934" height="9.24913" rx="4.62456" fill="#E4E6EE"/>
<rect x="60.1604" y="363.278" width="142.333" height="9.24913" rx="4.62456" fill="#B9BDC9"/>
<rect x="60.1604" y="432.344" width="169.904" height="9.24913" rx="4.62456" fill="#E4E6EE"/>
<rect x="60.1604" y="414.254" width="51.03" height="9.24913" rx="4.62456" fill="#B9BDC9"/>
<rect x="60.1604" y="483.321" width="78.0883" height="9.24913" rx="4.62456" fill="#E4E6EE"/>
<rect x="60.1604" y="465.231" width="146.879" height="9.24913" rx="4.62456" fill="#B9BDC9"/>
<path d="M206.226 236.789H211.826M211.826 236.789H217.427M211.826 236.789V231.188M211.826 236.789V242.389" stroke="white" stroke-width="2.83654" stroke-linecap="round" stroke-linejoin="round"/>
<path d="M120.968 235.046C120.925 235.022 120.877 235.01 120.828 235.012C120.78 235.013 120.732 235.027 120.691 235.053L115.332 238.406C114.942 238.648 114.492 238.776 114.033 238.776C113.574 238.776 113.124 238.648 112.734 238.406L107.366 235.053C107.325 235.027 107.278 235.013 107.229 235.012C107.18 235.01 107.132 235.022 107.09 235.046C107.047 235.069 107.012 235.104 106.987 235.146C106.962 235.188 106.949 235.236 106.949 235.284V240.445C106.949 240.878 107.121 241.293 107.427 241.599C107.732 241.906 108.147 242.078 108.58 242.079H119.47C119.903 242.079 120.319 241.907 120.625 241.601C120.932 241.294 121.104 240.879 121.104 240.445V235.284C121.104 235.236 121.092 235.189 121.068 235.147C121.044 235.105 121.009 235.07 120.968 235.046Z" fill="white"/>
<path d="M119.471 231.188H108.58C108.147 231.188 107.732 231.36 107.425 231.667C107.119 231.973 106.947 232.389 106.947 232.822C106.947 232.836 106.95 232.849 106.957 232.861C106.964 232.873 106.974 232.883 106.986 232.89L113.593 237.02C113.724 237.102 113.875 237.145 114.029 237.145C114.183 237.145 114.334 237.102 114.465 237.02L121.073 232.89C121.083 232.882 121.091 232.872 121.097 232.86C121.102 232.848 121.105 232.835 121.105 232.822C121.105 232.389 120.932 231.973 120.626 231.667C120.32 231.36 119.904 231.188 119.471 231.188Z" fill="white"/>
<circle cx="162.902" cy="112.202" r="41.6026" fill="#9FB4FF"/>
<mask id="mask0" style="mask-type:alpha" maskUnits="userSpaceOnUse" x="121" y="70" width="84" height="84">
<circle cx="162.902" cy="112.202" r="41.6026" fill="#B3A6FC"/>
</mask>
<g mask="url(#mask0)">
<path d="M162.55 113.901C168.543 113.901 173.402 109.042 173.402 103.049C173.402 97.0561 168.543 92.1976 162.55 92.1976C156.557 92.1976 151.698 97.0561 151.698 103.049C151.698 109.042 156.557 113.901 162.55 113.901Z" fill="white"/>
<path d="M162.551 116.44C158.568 116.278 154.648 117.467 151.426 119.814C148.205 122.162 145.872 125.529 144.807 129.37C144.73 129.77 144.766 130.184 144.91 130.565C145.054 130.946 145.301 131.28 145.623 131.529C146.403 132.158 147.38 132.491 148.381 132.47H176.724C177.726 132.491 178.703 132.158 179.482 131.529C179.804 131.28 180.051 130.946 180.195 130.565C180.34 130.184 180.375 129.77 180.299 129.37C179.233 125.528 176.9 122.16 173.677 119.813C170.455 117.466 166.534 116.277 162.551 116.44V116.44Z" fill="white"/>
</g>
<g filter="url(#filter0_d)">
<rect x="330.792" y="48.4358" width="464.016" height="470.992" rx="33.093" fill="white"/>
</g>
<rect x="321.658" y="34.8641" width="476.12" height="497.89" rx="13.2372" fill="white"/>
<mask id="mask1" style="mask-type:alpha" maskUnits="userSpaceOnUse" x="321" y="34" width="477" height="499">
<rect x="321.658" y="34.8641" width="476.12" height="497.89" rx="13.2372" fill="white"/>
</mask>
<g mask="url(#mask1)">
<rect x="388.295" y="175.117" width="2.83654" height="347.326" rx="1.41827" fill="#E4E6EE"/>
<rect x="354.733" y="153.989" width="410.463" height="79.7405" rx="10.637" fill="white" stroke="#E5ECF5" stroke-width="1.41827"/>
<rect x="421.381" y="185.355" width="152.189" height="9.24913" rx="4.62456" fill="#E4E6EE"/>
<rect x="423.163" y="168.246" width="102.599" height="8.50962" rx="4.25481" fill="#A9AFC0"/>
<rect x="707.92" y="169.717" width="49.8573" height="9.24913" rx="4.62456" fill="#D3D7E3"/>
<rect x="421.381" y="201.053" width="207.407" height="9.24913" rx="4.62456" fill="#E4E6EE"/>
<circle cx="394.383" cy="182.967" r="16.0737" fill="#9FB4FF"/>
<path d="M387.764 183.21L391.492 186.938L400.191 178.24" stroke="white" stroke-width="2.36378" stroke-linecap="round" stroke-linejoin="round"/>
<rect x="354.733" y="265.404" width="410.463" height="79.7405" rx="10.637" fill="white" stroke="#E5ECF5" stroke-width="1.41827"/>
<rect x="421.381" y="296.77" width="194.571" height="9.24913" rx="4.62456" fill="#E4E6EE"/>
<rect x="423.163" y="279.661" width="143.133" height="8.50962" rx="4.25481" fill="#A9AFC0"/>
<rect x="685.169" y="281.132" width="72.6083" height="9.24913" rx="4.62456" fill="#D3D7E3"/>
<rect x="421.381" y="312.468" width="81.7166" height="9.24913" rx="4.62456" fill="#E4E6EE"/>
<circle cx="394.383" cy="293.592" r="16.0737" fill="#A19FFF"/>
<path d="M399.694 295.197C399.521 295.025 399.317 294.888 399.092 294.795C398.867 294.702 398.626 294.654 398.382 294.654C398.138 294.654 397.897 294.702 397.672 294.795C397.447 294.888 397.243 295.025 397.07 295.197L396.786 295.484C395.232 294.179 393.796 292.742 392.492 291.188L392.778 290.903C393.125 290.555 393.32 290.083 393.32 289.592C393.32 289.1 393.125 288.629 392.778 288.28L391.202 286.705C390.848 286.368 390.379 286.18 389.89 286.18C389.402 286.18 388.932 286.368 388.579 286.705L387.715 287.569C387.294 287.993 387.032 288.549 386.972 289.143C386.913 289.737 387.059 290.334 387.388 290.833C389.954 294.701 393.269 298.017 397.136 300.584C397.637 300.907 398.233 301.051 398.826 300.991C399.419 300.931 399.974 300.672 400.401 300.256L401.263 299.393C401.611 299.045 401.806 298.574 401.806 298.082C401.806 297.59 401.611 297.119 401.263 296.771L399.694 295.197Z" fill="white"/>
<rect x="354.733" y="376.819" width="410.463" height="79.7405" rx="10.637" fill="white" stroke="#E5ECF5" stroke-width="1.41827"/>
<rect x="421.381" y="408.186" width="93.6548" height="9.24913" rx="4.62456" fill="#E4E6EE"/>
<rect x="423.163" y="391.077" width="188.315" height="8.50962" rx="4.25481" fill="#A9AFC0"/>
<rect x="715.344" y="392.547" width="42.4343" height="9.24913" rx="4.62456" fill="#D3D7E3"/>
<rect x="421.381" y="423.883" width="160.395" height="9.24913" rx="4.62456" fill="#E4E6EE"/>
<circle cx="394.383" cy="405.163" r="16.0737" fill="#C39FFF"/>
<path d="M401.99 403.423C401.944 403.397 401.891 403.384 401.838 403.385C401.784 403.387 401.732 403.403 401.687 403.431L395.814 407.104C395.387 407.37 394.894 407.51 394.391 407.51C393.888 407.51 393.395 407.37 392.968 407.104L387.086 403.431C387.04 403.403 386.988 403.387 386.935 403.385C386.882 403.384 386.829 403.397 386.782 403.423C386.736 403.449 386.697 403.486 386.67 403.532C386.643 403.578 386.628 403.631 386.628 403.684V409.34C386.628 409.814 386.817 410.269 387.151 410.604C387.486 410.94 387.941 411.129 388.415 411.13H400.349C400.824 411.13 401.279 410.941 401.615 410.606C401.951 410.27 402.14 409.814 402.14 409.34V403.684C402.14 403.631 402.126 403.579 402.1 403.533C402.074 403.487 402.036 403.449 401.99 403.423Z" fill="white"/>
<path d="M400.35 399.195H388.416C387.941 399.195 387.486 399.384 387.15 399.72C386.814 400.055 386.625 400.511 386.625 400.986C386.625 401.001 386.629 401.016 386.637 401.029C386.645 401.042 386.655 401.053 386.668 401.061L393.909 405.586C394.052 405.676 394.218 405.723 394.386 405.723C394.555 405.723 394.721 405.676 394.864 405.586L402.106 401.061C402.117 401.052 402.126 401.04 402.132 401.027C402.138 401.014 402.141 401 402.14 400.986C402.14 400.511 401.952 400.055 401.616 399.72C401.28 399.384 400.825 399.195 400.35 399.195Z" fill="white"/>
<rect x="354.733" y="488.235" width="410.463" height="79.7405" rx="10.637" fill="white" stroke="#E5ECF5" stroke-width="1.41827"/>
<rect x="421.381" y="519.601" width="93.6548" height="9.24913" rx="4.62456" fill="#E4E6EE"/>
<rect x="423.163" y="502.492" width="126.581" height="8.50962" rx="4.25481" fill="#A9AFC0"/>
<rect x="685.922" y="503.963" width="71.8559" height="9.24913" rx="4.62456" fill="#D3D7E3"/>
<circle cx="394.383" cy="516.733" r="16.0737" fill="#A19FFF"/>
<path d="M400.723 511.32C400.593 511.231 400.441 511.179 400.283 511.169C400.125 511.159 399.968 511.192 399.828 511.264C399.1 511.56 398.326 511.726 397.541 511.755C396.645 511.689 395.762 511.506 394.914 511.212C393.053 510.669 392.409 510.54 390.982 510.724C390.782 510.751 390.598 510.849 390.464 511.001C390.331 511.153 390.258 511.348 390.258 511.55V519.875C390.258 519.992 390.283 520.108 390.331 520.215C390.379 520.322 390.449 520.417 390.537 520.495C390.624 520.573 390.727 520.632 390.839 520.667C390.951 520.703 391.069 520.714 391.185 520.701C392.435 520.557 393.017 520.679 394.755 521.188C395.655 521.499 396.591 521.69 397.541 521.754C398.511 521.718 399.466 521.501 400.356 521.115C400.729 520.973 401.066 520.783 401.066 520.268V511.999C401.067 511.867 401.036 511.736 400.977 511.618C400.917 511.5 400.83 511.397 400.723 511.32V511.32Z" fill="white"/>
<path d="M388.596 510.115C388.375 510.115 388.164 510.202 388.008 510.358C387.852 510.514 387.764 510.726 387.764 510.946V522.585C387.764 522.805 387.852 523.017 388.008 523.173C388.164 523.329 388.375 523.416 388.596 523.416C388.816 523.416 389.028 523.329 389.184 523.173C389.34 523.017 389.427 522.805 389.427 522.585V510.946C389.427 510.726 389.34 510.514 389.184 510.358C389.028 510.202 388.816 510.115 388.596 510.115V510.115Z" fill="white"/>
<rect x="354.969" y="130.524" width="74.4167" height="9.24913" rx="4.62456" fill="#C5C9D4"/>
<rect x="354.024" y="54.3772" width="185.595" height="11.3462" rx="5.67308" fill="#A9AFC0"/>
<rect x="675.2" y="48.7041" width="90.7693" height="23.6378" rx="6.265" fill="#9FB4FF"/>
<line x1="764.071" y1="95.1898" x2="354.081" y2="95.1898" stroke="#E5ECF5" stroke-width="0.945514" stroke-linecap="round"/>
</g>
<defs>
<filter id="filter0_d" x="308.099" y="30.471" width="509.401" height="516.377" filterUnits="userSpaceOnUse" color-interpolation-filters="sRGB">
<feFlood flood-opacity="0" result="BackgroundImageFix"/>
<feColorMatrix in="SourceAlpha" type="matrix" values="0 0 0 0 0 0 0 0 0 0 0 0 0 0 0 0 0 0 127 0" result="hardAlpha"/>
<feOffset dy="4.72757"/>
<feGaussianBlur stdDeviation="11.3462"/>
<feColorMatrix type="matrix" values="0 0 0 0 0.227451 0 0 0 0 0.351059 0 0 0 0 1 0 0 0 0.05 0"/>
<feBlend mode="normal" in2="BackgroundImageFix" result="effect1_dropShadow"/>
<feBlend mode="normal" in="SourceGraphic" in2="effect1_dropShadow" result="shape"/>
</filter>
</defs>
</svg>
