<svg width="111" height="110" viewBox="0 0 111 110" fill="none" xmlns="http://www.w3.org/2000/svg">
<rect width="111" height="110" fill="white"/>
<rect x="1.49268" y="0.5" width="109" height="109" fill="white" stroke="#F5F9FF"/>
<path fill-rule="evenodd" clip-rule="evenodd" d="M69.1635 31C72.7395 31 76.1795 32.4133 78.7102 34.9493C81.2435 37.48 82.6595 40.8933 82.6595 44.4667V65.5333C82.6595 72.9733 76.6062 79 69.1635 79H42.8195C35.3768 79 29.3262 72.9733 29.3262 65.5333V44.4667C29.3262 37.0267 35.3502 31 42.8195 31H69.1635ZM73.4063 48.4401L73.6196 48.2267C74.257 47.4534 74.257 46.3334 73.5903 45.5601C73.2196 45.1627 72.7103 44.9201 72.1796 44.8667C71.6196 44.8374 71.0863 45.0267 70.6836 45.4001L58.6596 55.0001C57.113 56.2827 54.897 56.2827 53.3263 55.0001L41.3263 45.4001C40.497 44.7867 39.3503 44.8667 38.6596 45.5867C37.9396 46.3067 37.8596 47.4534 38.4703 48.2534L38.8196 48.6001L50.953 58.0667C52.4463 59.2401 54.257 59.8801 56.153 59.8801C58.0436 59.8801 59.8863 59.2401 61.377 58.0667L73.4063 48.4401Z" fill="#A3BDFF"/>
</svg>
