<svg width="147" height="146" viewBox="0 0 147 146" fill="none" xmlns="http://www.w3.org/2000/svg">
<g clip-path="url(#clip0)">
<rect width="146" height="146" transform="translate(0.526855)" fill="white"/>
<rect x="0.526855" width="146" height="146" fill="#0e1323"/>
<path d="M58.2814 106.166C89.0933 106.166 105.89 80.5961 105.89 58.557C105.89 57.8081 105.89 57.0592 105.89 56.4173C109.207 54.0636 111.988 51.068 114.235 47.7514C111.239 49.0353 108.03 49.9981 104.606 50.4261C108.03 48.3933 110.704 45.0768 111.988 41.1183C108.779 43.044 105.141 44.4349 101.397 45.1838C98.2941 41.8672 94.0146 39.8345 89.2003 39.8345C79.8925 39.8345 72.4035 47.3235 72.4035 56.6312C72.4035 57.9151 72.5105 59.1989 72.8315 60.4827C58.9233 59.7338 46.62 53.1007 38.2751 42.9371C36.8843 45.3977 36.0284 48.2864 36.0284 51.282C36.0284 57.0592 39.024 62.1945 43.5174 65.1901C40.7358 65.0831 38.1681 64.3342 35.9214 63.0504C35.9214 63.1574 35.9214 63.1574 35.9214 63.2644C35.9214 71.3953 41.6987 78.1354 49.4016 79.6332C48.0108 80.0611 46.513 80.2751 45.0152 80.2751C43.9454 80.2751 42.8755 80.1681 41.9126 79.9541C44.0523 86.5873 50.2575 91.4016 57.5325 91.6156C51.7553 96.109 44.5873 98.7836 36.7773 98.7836C35.3865 98.7836 34.1027 98.6767 32.8188 98.5697C40.0939 103.384 48.8667 106.166 58.2814 106.166Z" fill="white"/>
</g>
<defs>
<clipPath id="clip0">
<rect width="146" height="146" fill="white" transform="translate(0.526855)"/>
</clipPath>
</defs>
</svg>
