<svg width="111" height="111" viewBox="0 0 111 111" fill="none" xmlns="http://www.w3.org/2000/svg">
<rect width="111" height="111" fill="white"/>
<rect x="0.530762" y="0.608521" width="110" height="110" fill="white"/>
<path d="M55.8051 87.5567C55.4095 87.5567 55.0171 87.4658 54.66 87.281L43.1545 81.3255C39.8866 79.6338 37.3326 77.7354 35.3416 75.5236C30.9736 70.6866 28.5483 64.4774 28.5065 58.0364L28.3746 36.8367C28.3586 34.39 29.9346 32.1939 32.2956 31.3669L53.4217 24.0017C54.6793 23.5537 56.0785 23.5474 57.3523 23.9798L78.5588 31.0943C80.9326 31.8869 82.5376 34.0674 82.5505 36.5109L82.6856 57.7262C82.7274 64.1578 80.3858 70.3921 76.0885 75.2824C74.1135 77.5255 71.5854 79.4521 68.3528 81.1752L56.9502 87.2653C56.5964 87.4564 56.2007 87.5535 55.8051 87.5567" fill="#A3B6FF"/>
<path d="M57.9428 57.1419L63.9993 57.2218C65.3148 57.2392 66.3648 56.1891 66.3475 54.8737C66.3301 53.5582 65.2498 52.4779 63.9343 52.4605L57.88 52.3784L57.8002 46.3264C57.7828 45.0109 56.7025 43.9306 55.387 43.9132C54.0716 43.8959 53.0216 44.9459 53.0389 46.2614L53.1188 52.3179L47.0622 52.238C45.7468 52.2207 44.6968 53.2707 44.7141 54.5862C44.7228 55.2461 44.9978 55.8445 45.4345 56.2812C45.8689 56.7156 46.4673 56.9906 47.1273 56.9993L53.1793 57.0791L53.2614 63.1334C53.2701 63.7934 53.5428 64.3895 53.9795 64.8262C54.4162 65.2629 55.0146 65.5379 55.6746 65.5466C56.99 65.564 58.04 64.5139 58.0227 63.1985L57.9428 57.1419Z" fill="white"/>
</svg>
