<svg width="111" height="110" viewBox="0 0 111 110" fill="none" xmlns="http://www.w3.org/2000/svg">
<rect width="111" height="110" fill="white"/>
<rect x="1.49268" y="0.5" width="109" height="109" fill="white" stroke="#F5F9FF"/>
<path fill-rule="evenodd" clip-rule="evenodd" d="M44.8193 28.3333H67.1687C75.406 28.3333 79.9927 33.0799 79.9927 41.2133V68.7599C79.9927 77.0266 75.406 81.6666 67.1687 81.6666H44.8193C36.7127 81.6666 31.9927 77.0266 31.9927 68.7599V41.2133C31.9927 33.0799 36.7127 28.3333 44.8193 28.3333ZM45.5395 40.76V40.7333H53.5101C54.6595 40.7333 55.5928 41.6667 55.5928 42.8107C55.5928 43.9867 54.6595 44.92 53.5101 44.92H45.5395C44.3901 44.92 43.4595 43.9867 43.4595 42.84C43.4595 41.6933 44.3901 40.76 45.5395 40.76ZM45.5395 56.9733H66.4461C67.5928 56.9733 68.5261 56.04 68.5261 54.8933C68.5261 53.7466 67.5928 52.8106 66.4461 52.8106H45.5395C44.3901 52.8106 43.4595 53.7466 43.4595 54.8933C43.4595 56.04 44.3901 56.9733 45.5395 56.9733ZM45.5392 69.16H66.4459C67.5099 69.0533 68.3126 68.144 68.3126 67.08C68.3126 65.9867 67.5099 65.08 66.4459 64.9733H45.5392C44.7392 64.8933 43.9659 65.2667 43.5392 65.96C43.1126 66.6267 43.1126 67.5067 43.5392 68.2C43.9659 68.8667 44.7392 69.2667 45.5392 69.16Z" fill="#A3B2FF"/>
</svg>
