<svg width="643" height="566" viewBox="0 0 643 566" fill="none" xmlns="http://www.w3.org/2000/svg">
<rect opacity="0.7" width="643" height="566" rx="18" fill="white"/>
<path d="M36.0466 107.168C36.0466 97.2273 44.1055 89.1685 54.0466 89.1685H589.786C599.727 89.1685 607.786 97.2273 607.786 107.168V284.223C607.786 294.164 599.727 302.223 589.786 302.223H54.0467C44.1055 302.223 36.0466 294.164 36.0466 284.223V107.168Z" fill="white"/>
<rect x="58.0751" y="120.176" width="23.0298" height="8.00206" rx="4.00103" fill="#E1E3EC"/>
<rect x="67.0867" y="154.185" width="14.0181" height="8.00206" rx="4.00103" fill="#E1E3EC"/>
<rect x="61.079" y="191.195" width="20.0259" height="8.00206" rx="4.00103" fill="#E1E3EC"/>
<rect x="65.0841" y="228.204" width="16.0207" height="8.00206" rx="4.00103" fill="#E1E3EC"/>
<rect x="59.0763" y="261.213" width="22.0285" height="8.00206" rx="4.00103" fill="#E1E3EC"/>
<line x1="86.1113" y1="123.677" x2="580.751" y2="123.677" stroke="#D5DBEB"/>
<line x1="86.1113" y1="159.687" x2="580.751" y2="159.687" stroke="#D5DBEB"/>
<path d="M208.269 137.681L91.1178 265.214H579.249V120.176L362.469 137.681H208.269Z" fill="#F3EBFF"/>
<line x1="86.1113" y1="195.696" x2="580.751" y2="195.696" stroke="#D5DBEB"/>
<line x1="86.1113" y1="231.705" x2="580.751" y2="231.705" stroke="#D5DBEB"/>
<path d="M209.771 176.691L91.1178 267.714H580.25V142.182L363.97 160.187L209.771 176.691Z" fill="#EFEEFF"/>
<path d="M209.27 235.206L89.6158 267.714H579.749V183.193L363.47 216.201L209.27 235.206Z" fill="#EEF1FF"/>
<path d="M90.6171 266.714L209.27 235.206L363.47 216.201L579.249 183.193" stroke="#9FB4FF" stroke-width="2" stroke-linecap="round" stroke-linejoin="round"/>
<path d="M91.1178 267.714L209.771 176.691L363.97 160.187L579.749 142.182" stroke="#A19FFF" stroke-width="2" stroke-linecap="round" stroke-linejoin="round"/>
<path d="M92.119 265.714L209.27 138.181H363.47L580.25 120.677" stroke="#C39FFF" stroke-width="2" stroke-linecap="round" stroke-linejoin="round"/>
<line x1="86.1113" y1="267.714" x2="580.751" y2="267.714" stroke="#D5DBEB"/>
<path d="M36.0466 340.229C36.0466 330.287 44.1055 322.229 54.0466 322.229H293.402C303.344 322.229 311.402 330.287 311.402 340.229V517.283C311.402 527.224 303.344 535.283 293.402 535.283H54.0466C44.1055 535.283 36.0466 527.224 36.0466 517.283V340.229Z" fill="white"/>
<path d="M186.483 428.876C186.483 463.47 158.41 491.513 123.781 491.513C89.1516 491.513 61.079 463.47 61.079 428.876C61.079 394.283 89.1516 366.24 123.781 366.24C158.41 366.24 186.483 394.283 186.483 428.876ZM96.2014 428.876C96.2014 444.092 108.549 456.427 123.781 456.427C139.013 456.427 151.36 444.092 151.36 428.876C151.36 413.66 139.013 401.326 123.781 401.326C108.549 401.326 96.2014 413.66 96.2014 428.876Z" fill="#ECEDF4"/>
<path d="M142.654 369.144C150.614 371.654 157.992 375.727 164.356 381.123C170.72 386.519 175.941 393.13 179.714 400.568C183.486 408.006 185.734 416.122 186.325 424.44C186.916 432.758 185.839 441.109 183.157 449.006C180.474 456.902 176.241 464.184 170.704 470.424C165.167 476.664 158.439 481.737 150.914 485.345C143.388 488.954 135.218 491.025 126.881 491.437C118.544 491.849 110.208 490.594 102.363 487.746L114.36 454.77C117.811 456.023 121.477 456.575 125.144 456.394C128.811 456.212 132.405 455.301 135.715 453.714C139.025 452.127 141.985 449.896 144.42 447.151C146.855 444.406 148.717 441.203 149.897 437.73C151.077 434.257 151.551 430.584 151.291 426.925C151.031 423.267 150.042 419.697 148.383 416.425C146.724 413.153 144.427 410.245 141.628 407.872C138.829 405.498 135.584 403.707 132.082 402.603L142.654 369.144Z" fill="#9FC5FF"/>
<path d="M103.428 488.122C87.6992 482.73 74.7586 471.316 67.4532 456.393L99.0051 440.98C102.218 447.544 107.91 452.564 114.829 454.936L103.428 488.122Z" fill="#9FAEFF"/>
<path d="M67.4211 456.327C61.8429 444.898 59.8787 432.044 61.7896 419.473L96.514 424.74C95.6735 430.27 96.5374 435.924 98.991 440.951L67.4211 456.327Z" fill="#A19FFF"/>
<path d="M61.7881 419.483C63.697 406.911 69.3905 395.218 78.1121 385.957L103.693 409.998C99.8572 414.072 97.3529 419.215 96.5133 424.745L61.7881 419.483Z" fill="#C39FFF"/>
<rect x="225.141" y="382.252" width="42.4298" height="7.53527" rx="3.76764" fill="#E1E3EC"/>
<rect x="225.141" y="410.509" width="62.2304" height="7.53527" rx="3.76764" fill="#E1E3EC"/>
<rect x="225.141" y="438.767" width="30.1723" height="7.53527" rx="3.76764" fill="#E1E3EC"/>
<rect x="225.141" y="467.024" width="56.5731" height="7.53527" rx="3.76764" fill="#E1E3EC"/>
<ellipse cx="210.998" cy="386.02" rx="8.48597" ry="8.47718" fill="#9FC5FF"/>
<ellipse cx="210.998" cy="414.277" rx="8.48597" ry="8.47718" fill="#9FAEFF"/>
<ellipse cx="210.998" cy="442.534" rx="8.48597" ry="8.47718" fill="#A19FFF"/>
<ellipse cx="210.998" cy="470.792" rx="8.48597" ry="8.47718" fill="#C39FFF"/>
<path d="M331.428 340.229C331.428 330.287 339.487 322.229 349.428 322.229H589.786C599.727 322.229 607.786 330.287 607.786 340.229V517.283C607.786 527.224 599.727 535.283 589.786 535.283H349.428C339.487 535.283 331.428 527.224 331.428 517.283V340.229Z" fill="white"/>
<rect x="353.457" y="343.234" width="58.0751" height="12.0031" rx="6.00154" fill="#E1E3EC"/>
<rect x="364.471" y="508.276" width="14.0181" height="8.00206" rx="4.00103" fill="#E1E3EC"/>
<rect x="410.531" y="508.276" width="20.0259" height="8.00206" rx="4.00103" fill="#E1E3EC"/>
<rect x="462.598" y="508.276" width="14.0181" height="8.00206" rx="4.00103" fill="#E1E3EC"/>
<rect x="508.657" y="508.276" width="19.0246" height="8.00206" rx="4.00103" fill="#E1E3EC"/>
<rect x="561.726" y="508.276" width="12.0155" height="8.00206" rx="4.00103" fill="#E1E3EC"/>
<line x1="355.459" y1="496.773" x2="582.753" y2="496.773" stroke="#D5DBEB"/>
<rect x="358.463" y="434.832" width="10.0129" height="49.4384" rx="5.00647" fill="#C39FFF"/>
<rect x="377.488" y="413.259" width="10.0129" height="71.0115" rx="5.00647" fill="#9FAEFF"/>
<rect x="406.025" y="397.978" width="10.0129" height="86.2925" rx="5.00647" fill="#9FAEFF"/>
<rect x="425.049" y="415.955" width="10.0129" height="68.3149" rx="5.00647" fill="#C39FFF"/>
<rect x="454.587" y="383.595" width="10.0129" height="100.675" rx="5.00647" fill="#9FC5FF"/>
<rect x="473.612" y="404.27" width="10.0129" height="80.0003" rx="5.00647" fill="#C39FFF"/>
<rect x="502.649" y="383.595" width="10.0129" height="100.675" rx="5.00647" fill="#9FAEFF"/>
<rect x="521.674" y="371.91" width="10.0129" height="112.36" rx="5.00647" fill="#C39FFF"/>
<rect x="550.211" y="364.719" width="10.0129" height="119.551" rx="5.00647" fill="#9FC5FF"/>
<rect x="569.236" y="351.236" width="10.0129" height="133.034" rx="5.00647" fill="#9FAEFF"/>
<rect x="36.0466" y="48.158" width="102.488" height="13.7632" rx="6.88158" fill="#A9AFC0"/>
<rect x="504.445" y="41.156" width="103.133" height="28.0072" rx="6.63" fill="#9FB4FF"/>
<path d="M210.272 255.211L91.6184 267.714H579.749V239.207L363.97 251.71L210.272 255.211Z" fill="#E8EDFF"/>
<path d="M91.1178 266.714L210.272 254.211L363.97 250.71L575.744 239.207" stroke="#9FC5FF" stroke-width="2" stroke-linecap="round" stroke-linejoin="round"/>
<path d="M214.278 254.211C214.278 256.972 212.037 259.212 209.27 259.212C206.504 259.212 204.263 256.972 204.263 254.211C204.263 251.449 206.504 249.209 209.27 249.209C212.037 249.209 214.278 251.449 214.278 254.211Z" fill="#DCEAFF" stroke="#9FC5FF" stroke-width="2"/>
<path d="M214.278 236.206C214.278 238.968 212.037 241.208 209.27 241.208C206.504 241.208 204.263 238.968 204.263 236.206C204.263 233.445 206.504 231.205 209.27 231.205C212.037 231.205 214.278 233.445 214.278 236.206Z" fill="#E0E7FF" stroke="#9FB4FF" stroke-width="2"/>
<path d="M214.278 177.191C214.278 179.953 212.037 182.193 209.27 182.193C206.504 182.193 204.263 179.953 204.263 177.191C204.263 174.43 206.504 172.19 209.27 172.19C212.037 172.19 214.278 174.43 214.278 177.191Z" fill="#D1D0FF" stroke="#A19FFF" stroke-width="2"/>
<path d="M368.477 160.187C368.477 162.948 366.236 165.188 363.47 165.188C360.703 165.188 358.462 162.948 358.462 160.187C358.462 157.426 360.703 155.185 363.47 155.185C366.236 155.185 368.477 157.426 368.477 160.187Z" fill="#D1D0FF" stroke="#A19FFF" stroke-width="2"/>
<path d="M583.756 142.182C583.756 144.944 581.515 147.184 578.748 147.184C575.981 147.184 573.74 144.944 573.74 142.182C573.74 139.421 575.981 137.181 578.748 137.181C581.515 137.181 583.756 139.421 583.756 142.182Z" fill="#D1D0FF" stroke="#A19FFF" stroke-width="2"/>
<path d="M214.278 138.181C214.278 140.942 212.037 143.183 209.27 143.183C206.504 143.183 204.263 140.942 204.263 138.181C204.263 135.42 206.504 133.179 209.27 133.179C212.037 133.179 214.278 135.42 214.278 138.181Z" fill="#E8D9FF" stroke="#C39FFF" stroke-width="2"/>
<path d="M368.477 139.181C368.477 141.943 366.236 144.183 363.47 144.183C360.703 144.183 358.462 141.943 358.462 139.181C358.462 136.42 360.703 134.18 363.47 134.18C366.236 134.18 368.477 136.42 368.477 139.181Z" fill="#E8D9FF" stroke="#C39FFF" stroke-width="2"/>
<path d="M584.757 120.176C584.757 122.938 582.516 125.178 579.749 125.178C576.983 125.178 574.741 122.938 574.741 120.176C574.741 117.415 576.983 115.175 579.749 115.175C582.516 115.175 584.757 117.415 584.757 120.176Z" fill="#E8D9FF" stroke="#C39FFF" stroke-width="2"/>
<path d="M368.477 216.201C368.477 218.962 366.236 221.203 363.47 221.203C360.703 221.203 358.462 218.962 358.462 216.201C358.462 213.44 360.703 211.199 363.47 211.199C366.236 211.199 368.477 213.44 368.477 216.201Z" fill="#E0E7FF" stroke="#9FB4FF" stroke-width="2"/>
<path d="M583.756 182.192C583.756 184.954 581.515 187.194 578.748 187.194C575.981 187.194 573.74 184.954 573.74 182.192C573.74 179.431 575.981 177.191 578.748 177.191C581.515 177.191 583.756 179.431 583.756 182.192Z" fill="#E0E7FF" stroke="#9FB4FF" stroke-width="2"/>
<path d="M368.477 251.21C368.477 253.971 366.236 256.212 363.47 256.212C360.703 256.212 358.462 253.971 358.462 251.21C358.462 248.449 360.703 246.208 363.47 246.208C366.236 246.208 368.477 248.449 368.477 251.21Z" fill="#DCEAFF" stroke="#9FC5FF" stroke-width="2"/>
<path d="M583.756 239.207C583.756 241.968 581.515 244.209 578.748 244.209C575.981 244.209 573.74 241.968 573.74 239.207C573.74 236.446 575.981 234.206 578.748 234.206C581.515 234.206 583.756 236.446 583.756 239.207Z" fill="#DCEAFF" stroke="#9FC5FF" stroke-width="2"/>
<path d="M96.1255 266.214C96.1255 268.975 93.8844 271.215 91.1178 271.215C88.3511 271.215 86.11 268.975 86.11 266.214C86.11 263.453 88.3511 261.212 91.1178 261.212C93.8844 261.212 96.1255 263.453 96.1255 266.214Z" fill="#DCEAFF" stroke="#9FC5FF" stroke-width="2"/>
</svg>
