<svg width="111" height="111" viewBox="0 0 111 111" fill="none" xmlns="http://www.w3.org/2000/svg">
<rect width="111" height="111" fill="white"/>
<rect x="0.206543" y="0.608521" width="110" height="110" fill="white"/>
<path opacity="0.4" d="M59.1879 36.946V37.5044C57.691 37.475 56.1941 37.475 54.6973 37.475V36.9754C54.6973 34.9475 52.9908 33.3017 50.9551 33.3017H47.9912C44.6083 33.3017 41.854 30.5979 41.854 27.3063C41.854 26.1013 42.8719 25.1021 44.0993 25.1021C45.3567 25.1021 46.3447 26.1013 46.3447 27.3063C46.3447 28.1879 47.0931 28.8933 47.9912 28.8933H50.9551C55.4756 28.9227 59.158 32.5376 59.1879 36.946" fill="#A3A7FF"/>
<path fill-rule="evenodd" clip-rule="evenodd" d="M64.8589 37.5569C65.8202 37.57 66.7837 37.5833 67.7506 37.5931C78.1389 37.5931 85.7132 44.9993 85.7132 55.2268V68.3638C85.7132 78.5914 78.1389 85.9975 67.7506 85.9975C63.5892 86.0857 59.4279 86.115 55.2366 86.115C51.0453 86.115 46.8241 86.0857 42.6628 85.9975C32.2744 85.9975 24.7002 78.5914 24.7002 68.3638V55.2268C24.7002 44.9993 32.2744 37.5931 42.6927 37.5931C46.6146 37.5344 50.6262 37.4756 54.6977 37.4756C56.1946 37.4756 57.6915 37.4756 59.1884 37.505C61.0757 37.505 62.9629 37.5309 64.8589 37.5569ZM51.7038 63.9846H48.5603V67.0999C48.5603 68.3049 47.5425 69.3041 46.315 69.3041C45.0576 69.3041 44.0697 68.3049 44.0697 67.0999V63.9846H40.8963C39.6689 63.9846 38.651 63.0148 38.651 61.7804C38.651 60.5755 39.6689 59.5762 40.8963 59.5762H44.0697V56.4903C44.0697 55.2854 45.0576 54.2861 46.315 54.2861C47.5425 54.2861 48.5603 55.2854 48.5603 56.4903V59.5762H51.7038C52.9312 59.5762 53.9491 60.5755 53.9491 61.7804C53.9491 63.0148 52.9312 63.9846 51.7038 63.9846ZM64.4274 59.0179H64.7268C65.9543 59.0179 66.9721 58.048 66.9721 56.8136C66.9721 55.6087 65.9543 54.6094 64.7268 54.6094H64.4274C63.17 54.6094 62.1821 55.6087 62.1821 56.8136C62.1821 58.048 63.17 59.0179 64.4274 59.0179ZM69.5472 69.128H69.8466C71.074 69.128 72.0919 68.1581 72.0919 66.9237C72.0919 65.7188 71.074 64.7195 69.8466 64.7195H69.5472C68.2898 64.7195 67.3019 65.7188 67.3019 66.9237C67.3019 68.1581 68.2898 69.128 69.5472 69.128Z" fill="#A3A7FF"/>
</svg>
