<svg width="110" height="110" viewBox="0 0 110 110" fill="none" xmlns="http://www.w3.org/2000/svg">
<rect width="110" height="110" fill="white"/>
<rect width="110" height="110" fill="white"/>
<path d="M69.0969 23.9736H42.1967C31.6786 23.9736 24.6045 31.358 24.6045 42.3415V67.6903C24.6045 78.6428 31.6786 86.0271 42.1967 86.0271H69.0969C79.6149 86.0271 86.658 78.6428 86.658 67.6903V42.3415C86.658 31.358 79.6149 23.9736 69.0969 23.9736" fill="#A3C1FF"/>
<path d="M51.9482 65.0784C51.2532 65.0784 50.5582 64.8147 50.0276 64.2841L42.665 56.9215C41.6039 55.8604 41.6039 54.1415 42.665 53.0835C43.7261 52.0223 45.4419 52.0192 46.503 53.0804L51.9482 58.5256L64.756 45.7177C65.8171 44.6566 67.5329 44.6566 68.594 45.7177C69.6552 46.7788 69.6552 48.4977 68.594 49.5588L53.8687 64.2841C53.3382 64.8147 52.6432 65.0784 51.9482 65.0784" fill="white"/>
</svg>
