<svg width="63" height="63" viewBox="0 0 63 63" fill="none" xmlns="http://www.w3.org/2000/svg">
<rect width="63" height="63" fill="white"/>
<rect x="0.308594" y="0.431641" width="62" height="62" fill="white"/>
<path fill-rule="evenodd" clip-rule="evenodd" d="M16.0286 39.7095V26.7695H46.6235V39.8132C46.6235 45.1486 43.2651 48.4291 37.8917 48.4291H24.7436C19.4205 48.4291 16.0286 45.0806 16.0286 39.7095ZM24.4573 35.5283C23.6848 35.564 23.0467 34.9504 23.0131 34.1702C23.0131 33.3884 23.6177 32.7425 24.3901 32.7068C25.1457 32.7068 25.767 33.3034 25.7838 34.0665C25.8174 34.8501 25.2129 35.496 24.4573 35.5283ZM31.3587 35.5283C30.5863 35.564 29.9482 34.9504 29.9146 34.1702C29.9146 33.3884 30.5191 32.7425 31.2915 32.7068C32.0472 32.7068 32.6685 33.3034 32.6853 34.0665C32.7188 34.8501 32.1143 35.496 31.3587 35.5283ZM38.2111 41.7832C37.4386 41.7662 36.8173 41.1203 36.8173 40.3385C36.8005 39.5566 37.4218 38.9124 38.1943 38.8954H38.2111C39.0003 38.8954 39.6384 39.5413 39.6384 40.3385C39.6384 41.1373 39.0003 41.7832 38.2111 41.7832ZM29.9146 40.3384C29.9482 41.1203 30.5863 41.7339 31.3587 41.6982C32.1143 41.6659 32.7188 41.02 32.6853 40.2381C32.6685 39.4733 32.0472 38.8767 31.2915 38.8767C30.5191 38.9123 29.9146 39.5565 29.9146 40.3384ZM22.9968 40.3384C23.0304 41.1203 23.6685 41.7339 24.4409 41.6982C25.1966 41.6659 25.8011 41.02 25.7675 40.2381C25.7507 39.4733 25.1294 38.8767 24.3738 38.8767C23.6013 38.9123 22.9968 39.5565 22.9968 40.3384ZM36.8333 34.1531C36.8333 33.3713 37.4378 32.7424 38.2103 32.7254C38.9659 32.7254 39.5704 33.3356 39.604 34.0851C39.6208 34.867 39.0163 35.5129 38.2607 35.5282C37.4882 35.5452 36.8501 34.9503 36.8333 34.1701V34.1531Z" fill="#0e1323"/>
<path d="M16.0337 26.7691C16.0555 25.7714 16.1395 23.7912 16.2973 23.1538C17.1033 19.5691 19.8404 17.2914 23.753 16.9668H38.8993C42.7783 17.3084 45.5489 19.6014 46.355 23.1538C46.5111 23.7742 46.5951 25.7697 46.6169 26.7691H16.0337Z" fill="#0e1323"/>
<mask id="path-4-outside-1" maskUnits="userSpaceOnUse" x="22.752" y="13.4346" width="5" height="10" fill="black">
<rect fill="white" x="22.752" y="13.4346" width="5" height="10"/>
<path d="M25.0449 22.2363C25.7838 22.2363 26.3379 21.6771 26.3379 20.9275V15.7451C26.3379 14.9955 25.7838 14.4346 25.0449 14.4346C24.3061 14.4346 23.752 14.9955 23.752 15.7451V20.9275C23.752 21.6771 24.3061 22.2363 25.0449 22.2363"/>
</mask>
<path d="M25.0449 22.2363C25.7838 22.2363 26.3379 21.6771 26.3379 20.9275V15.7451C26.3379 14.9955 25.7838 14.4346 25.0449 14.4346C24.3061 14.4346 23.752 14.9955 23.752 15.7451V20.9275C23.752 21.6771 24.3061 22.2363 25.0449 22.2363" fill="#0e1323"/>
<path d="M25.0449 23.2363C26.3466 23.2363 27.3379 22.2187 27.3379 20.9275H25.3379C25.3379 21.0498 25.2958 21.1211 25.2574 21.1599C25.2195 21.1982 25.1546 21.2363 25.0449 21.2363V23.2363ZM27.3379 20.9275V15.7451H25.3379V20.9275H27.3379ZM27.3379 15.7451C27.3379 14.4555 26.3483 13.4346 25.0449 13.4346V15.4346C25.1537 15.4346 25.2185 15.4724 25.2568 15.5112C25.2956 15.5505 25.3379 15.6226 25.3379 15.7451H27.3379ZM25.0449 13.4346C23.7415 13.4346 22.752 14.4555 22.752 15.7451H24.752C24.752 15.6226 24.7942 15.5505 24.8331 15.5112C24.8714 15.4724 24.9362 15.4346 25.0449 15.4346V13.4346ZM22.752 15.7451V20.9275H24.752V15.7451H22.752ZM22.752 20.9275C22.752 22.2187 23.7432 23.2363 25.0449 23.2363V21.2363C24.9353 21.2363 24.8703 21.1982 24.8324 21.1599C24.7941 21.1211 24.752 21.0498 24.752 20.9275H22.752Z" fill="white" mask="url(#path-4-outside-1)"/>
<mask id="path-6-outside-2" maskUnits="userSpaceOnUse" x="35.3137" y="13.4346" width="5" height="10" fill="black">
<rect fill="white" x="35.3137" y="13.4346" width="5" height="10"/>
<path d="M37.6067 22.2363C38.3288 22.2363 38.8997 21.6771 38.8997 20.9275V15.7451C38.8997 14.9955 38.3288 14.4346 37.6067 14.4346C36.8679 14.4346 36.3137 14.9955 36.3137 15.7451V20.9275C36.3137 21.6771 36.8679 22.2363 37.6067 22.2363"/>
</mask>
<path d="M37.6067 22.2363C38.3288 22.2363 38.8997 21.6771 38.8997 20.9275V15.7451C38.8997 14.9955 38.3288 14.4346 37.6067 14.4346C36.8679 14.4346 36.3137 14.9955 36.3137 15.7451V20.9275C36.3137 21.6771 36.8679 22.2363 37.6067 22.2363" fill="#0e1323"/>
<path d="M37.6067 23.2363C38.8831 23.2363 39.8997 22.2273 39.8997 20.9275H37.8997C37.8997 21.0411 37.8594 21.1132 37.8161 21.1567C37.7718 21.2011 37.7037 21.2363 37.6067 21.2363V23.2363ZM39.8997 20.9275V15.7451H37.8997V20.9275H39.8997ZM39.8997 15.7451C39.8997 14.447 38.8848 13.4346 37.6067 13.4346V15.4346C37.7027 15.4346 37.7707 15.4695 37.8154 15.5144C37.8593 15.5584 37.8997 15.6313 37.8997 15.7451H39.8997ZM37.6067 13.4346C36.3033 13.4346 35.3137 14.4555 35.3137 15.7451H37.3137C37.3137 15.6226 37.356 15.5505 37.3949 15.5112C37.4331 15.4724 37.498 15.4346 37.6067 15.4346V13.4346ZM35.3137 15.7451V20.9275H37.3137V15.7451H35.3137ZM35.3137 20.9275C35.3137 22.2187 36.305 23.2363 37.6067 23.2363V21.2363C37.497 21.2363 37.4321 21.1982 37.3942 21.1599C37.3559 21.1211 37.3137 21.0498 37.3137 20.9275H35.3137Z" fill="white" mask="url(#path-6-outside-2)"/>
<line x1="15.9934" y1="26.9473" x2="46.6169" y2="26.9473" stroke="white"/>
</svg>
