<svg width="110" height="110" viewBox="0 0 110 110" fill="none" xmlns="http://www.w3.org/2000/svg">
<rect width="110" height="110" fill="white"/>
<rect width="110" height="110" fill="white"/>
<path fill-rule="evenodd" clip-rule="evenodd" d="M42.0828 45.2119H68.5367C75.9062 45.2119 81.8813 51.0552 81.8813 58.2621V73.695C81.8813 80.902 75.9062 86.7452 68.5367 86.7452H42.0828C34.7133 86.7452 28.7383 80.902 28.7383 73.695V58.2621C28.7383 51.0552 34.7133 45.2119 42.0828 45.2119ZM55.2958 72.1443C56.8523 72.1443 58.0911 70.9328 58.0911 69.4106V62.5143C58.0911 61.0232 56.8523 59.8117 55.2958 59.8117C53.7711 59.8117 52.5322 61.0232 52.5322 62.5143V69.4106C52.5322 70.9328 53.7711 72.1443 55.2958 72.1443Z" fill="#A3B0FF"/>
<path opacity="0.4" d="M72.5745 41.0922V45.6897C71.4628 45.3791 70.2875 45.2238 69.0804 45.2238H67.0156V41.0922C67.0156 34.7861 61.7744 29.6604 55.3261 29.6604C48.8778 29.6604 43.6366 34.755 43.6048 41.03V45.2238H41.5718C40.333 45.2238 39.1577 45.3791 38.0459 45.7208V41.0922C38.0777 31.7728 45.7966 24.2241 55.2626 24.2241C64.8556 24.2241 72.5745 31.7728 72.5745 41.0922" fill="#A3B0FF"/>
</svg>
