<svg width="63" height="63" viewBox="0 0 63 63" fill="none" xmlns="http://www.w3.org/2000/svg">
<rect width="63" height="63" fill="white"/>
<rect x="0.308594" y="0.943359" width="62" height="62" fill="white"/>
<path d="M31.1902 37.481C23.1184 37.481 16.2241 38.7279 16.2241 43.7115C16.2241 48.6991 23.0745 49.989 31.1902 49.989C39.262 49.989 46.1562 48.7421 46.1562 43.7584C46.1562 38.7708 39.3058 37.481 31.1902 37.481" fill="#0e1323"/>
<path d="M31.1903 32.7302C36.6878 32.7302 41.0933 28.4158 41.0933 23.0321C41.0933 17.6484 36.6878 13.334 31.1903 13.334C25.6949 13.334 21.2874 17.6484 21.2874 23.0321C21.2874 28.4158 25.6949 32.7302 31.1903 32.7302" fill="#0e1323"/>
</svg>
