<svg width="66" height="77" viewBox="0 0 66 77" fill="none" xmlns="http://www.w3.org/2000/svg">
<path fill-rule="evenodd" clip-rule="evenodd" d="M16.573 25.8484H49.427C58.5794 25.8484 66 33.0448 66 41.9208V60.9277C66 69.8037 58.5794 77.0001 49.427 77.0001H16.573C7.42056 77.0001 0 69.8037 0 60.9277V41.9208C0 33.0448 7.42056 25.8484 16.573 25.8484ZM32.981 59.0186C34.914 59.0186 36.4526 57.5265 36.4526 55.6518V47.1584C36.4526 45.322 34.914 43.8299 32.981 43.8299C31.0874 43.8299 29.5488 45.322 29.5488 47.1584V55.6518C29.5488 57.5265 31.0874 59.0186 32.981 59.0186Z" fill="#BBC3FF"/>
<path opacity="0.4" d="M54.4418 20.7744V26.4367C53.0611 26.0541 51.6014 25.8628 50.1023 25.8628H47.5381V20.7744C47.5381 13.0079 41.0288 6.69525 33.0204 6.69525C25.0121 6.69525 18.5028 12.9697 18.4633 20.6979V25.8628H15.9385C14.4 25.8628 12.9403 26.0541 11.5596 26.4749V20.7744C11.599 9.29684 21.1854 0 32.9415 0C44.8554 0 54.4418 9.29684 54.4418 20.7744" fill="#BBC3FF"/>
</svg>
