<svg width="81" height="82" viewBox="0 0 81 82" fill="none" xmlns="http://www.w3.org/2000/svg">
<g clip-path="url(#clip0)">
<rect x="0.496094" y="1.4126" width="80" height="80" rx="24" fill="white"/>
<path d="M31.877 62.9126C49.2811 62.9126 58.7748 48.6497 58.7799 36.3561C58.7801 35.9384 58.7803 35.5207 58.7804 35.1626C60.6544 33.8497 62.2263 32.1787 63.4961 30.3287C61.8037 31.0449 59.9906 31.582 58.0567 31.8207C59.9909 30.6868 61.5025 28.8368 62.2286 26.6287C60.4152 27.7029 58.3602 28.4787 56.2449 28.8965C54.4932 27.0465 52.0764 25.9126 49.357 25.9126C44.0995 25.9126 39.8676 30.09 39.8654 35.282C39.8651 35.9981 39.9253 36.7142 40.1062 37.4303C32.2504 37.0126 25.3023 33.3126 20.591 27.6432C19.8049 29.0158 19.3207 30.6271 19.32 32.2981C19.3187 35.5207 21.0096 38.3852 23.547 40.0561C21.9758 39.9965 20.5256 39.5787 19.2569 38.8626C19.2568 38.9223 19.2568 38.9223 19.2568 38.982C19.2549 43.5174 22.5166 47.2771 26.8673 48.1126C26.0816 48.3513 25.2356 48.4707 24.3895 48.4707C23.7852 48.4707 23.1809 48.411 22.6371 48.2916C23.8442 51.9916 27.3481 54.6771 31.4573 54.7965C28.193 57.3029 24.1435 58.7949 19.732 58.7949C18.9464 58.7949 18.2212 58.7352 17.4961 58.6755C21.6043 61.361 26.559 62.9126 31.877 62.9126Z" fill="#ADACFB"/>
</g>
<defs>
<clipPath id="clip0">
<rect width="81" height="81" fill="white" transform="translate(0 0.637695)"/>
</clipPath>
</defs>
</svg>
