<svg width="24" height="24" viewBox="0 0 24 24" fill="none" xmlns="http://www.w3.org/2000/svg">
<path d="M18.7741 7.72628L11.8099 17.5733C11.7277 17.687 11.6246 17.7824 11.5064 17.8541C11.3884 17.9258 11.258 17.9723 11.1226 17.9909C10.987 18.0094 10.8494 17.9997 10.7177 17.9622C10.6328 17.9381 10.5516 17.9028 10.4756 17.8573C10.4336 17.8322 10.3933 17.8039 10.3548 17.7726L5.3818 13.6298C5.27747 13.5428 5.19053 13.4353 5.1262 13.3133C5.06162 13.1913 5.02088 13.0573 5.00623 12.9189C4.97642 12.6394 5.05442 12.359 5.22307 12.1394C5.39173 11.9198 5.63714 11.779 5.90541 11.748C5.98961 11.7383 6.07431 11.7395 6.15752 11.7516C6.20596 11.7586 6.2539 11.7692 6.30109 11.7835C6.36617 11.8031 6.42877 11.8294 6.48838 11.8618C6.54675 11.8935 6.60214 11.931 6.65356 11.974L10.8007 15.4309L17.1359 6.47221C17.2122 6.35296 17.3111 6.25106 17.4261 6.17267C17.5413 6.09428 17.6705 6.04102 17.8059 6.01612C17.9412 5.99123 18.0801 5.99519 18.2142 6.0278C18.3481 6.0604 18.4743 6.12096 18.5851 6.20581C18.6958 6.29067 18.789 6.39806 18.859 6.52148C18.9288 6.64491 18.974 6.78182 18.9917 6.92394C19.0006 6.99691 19.0024 7.07046 18.9969 7.14343C18.9917 7.21259 18.9798 7.28124 18.9616 7.34834C18.938 7.43581 18.9037 7.51954 18.8595 7.59752C18.8342 7.64247 18.8056 7.68551 18.7741 7.72628Z" fill="white"/>
</svg>
