<svg width="22" height="22" viewBox="0 0 22 22" fill="none" xmlns="http://www.w3.org/2000/svg">
<path d="M10.6309 5.56018C11.1326 5.56018 11.5391 5.96677 11.5391 6.4684V11.2407L15.2092 13.4301C15.6399 13.6871 15.7808 14.2446 15.5241 14.6754C15.2669 15.1062 14.7095 15.2471 14.2784 14.9901L10.1657 12.5365C9.89079 12.3726 9.72275 12.0763 9.72275 11.7564V6.4684C9.72275 5.96677 10.1293 5.56018 10.6309 5.56018Z" fill="#0e1323"/>
<path fill-rule="evenodd" clip-rule="evenodd" d="M0 11C0 4.92446 4.9242 0 11 0C17.0758 0 22 4.92446 22 11C22 17.0755 17.0758 22 11 22C4.9242 22 0 17.0755 0 11ZM11 1.81656C5.92747 1.81656 1.81633 5.92772 1.81633 11C1.81633 16.0723 5.92747 20.1834 11 20.1834C16.0725 20.1834 20.1837 16.0723 20.1837 11C20.1837 5.92772 16.0725 1.81656 11 1.81656Z" fill="#0e1323"/>
</svg>
