<svg width="81" height="82" viewBox="0 0 81 82" fill="none" xmlns="http://www.w3.org/2000/svg">
<g clip-path="url(#clip0)">
<rect x="0.570312" y="1.4126" width="80" height="80" rx="24" fill="white"/>
<path d="M41.339 58.8581L31.0911 58.6278C27.773 58.5487 24.443 58.6677 21.2021 57.9697C16.2715 56.9267 16.0179 51.9066 15.7323 47.6954C15.3412 41.7749 15.6535 35.7499 16.7213 29.8848C17.3233 26.5933 19.4817 24.6371 22.7644 24.4354C33.8466 23.7031 44.9855 23.8378 56.0211 24.2445C57.1867 24.2822 58.3576 24.4684 59.5036 24.6793C65.1604 25.7087 65.189 31.3966 65.4634 36.1856C65.7368 41.0242 65.4878 45.8854 64.6935 50.6868C64.0537 54.6632 62.9127 57.9938 58.3638 58.2978C52.663 58.6963 47.0943 59.0129 41.3875 58.8831C41.3879 58.8583 41.3553 58.8582 41.339 58.8581ZM35.5068 48.7639C39.8449 46.2879 44.1007 43.853 48.414 41.3934C44.1642 38.8836 40.0115 36.4155 35.794 33.9224L35.5068 48.7639Z" fill="#ABA9F8"/>
</g>
<defs>
<clipPath id="clip0">
<rect width="81" height="81" fill="white" transform="translate(0 0.637695)"/>
</clipPath>
</defs>
</svg>
