<svg width="81" height="82" viewBox="0 0 81 82" fill="none" xmlns="http://www.w3.org/2000/svg">
<g clip-path="url(#clip0)">
<rect x="0.533203" y="1.4126" width="80" height="80" rx="24" fill="white"/>
<path d="M62.2286 39.3629L62.0286 38.0629H39.7286V46.8629H41.2286C44.3286 46.8629 47.4286 46.8629 50.5286 46.8629H53.3286C52.9286 48.4629 52.1286 50.4629 50.5286 51.8629C48.1286 54.1629 44.6286 55.3629 40.8286 55.1629C37.1286 55.0629 33.4286 53.2629 31.1286 50.3629C28.7286 47.4629 27.5286 43.4629 28.1286 39.5629C28.6286 35.6629 30.8286 32.1629 34.0286 29.9629C36.9286 27.9629 40.8286 27.2629 44.4286 28.0629C46.6286 28.4629 48.8286 29.6629 50.8286 31.4629L51.9286 32.4629L52.9286 31.3629C53.6286 30.5629 54.4286 29.8629 55.2286 29.0629C55.8286 28.4629 56.3286 27.9629 56.9286 27.3629L58.0286 26.2629L56.9286 25.1629C53.0286 21.3629 47.6286 19.0629 41.9286 18.9629H40.5286H40.4286C35.8286 19.2629 31.5286 20.7629 27.9286 23.3629C24.1286 26.0629 21.2286 29.9629 19.7286 34.2629C18.0286 38.9629 18.1286 44.4629 19.9286 49.0629C21.8286 54.1629 25.7286 58.5629 30.6286 61.1629C33.9286 62.9629 37.7286 63.8629 41.6286 63.8629C42.4286 63.8629 43.1286 63.8629 43.9286 63.7629C48.8286 63.3629 53.4286 61.2629 56.7286 58.0629C61.2286 53.7629 63.4286 46.5629 62.2286 39.3629Z" fill="#ACAAFA"/>
</g>
<defs>
<clipPath id="clip0">
<rect width="81" height="81" fill="white" transform="translate(0 0.637695)"/>
</clipPath>
</defs>
</svg>
