<svg width="22" height="22" viewBox="0 0 22 22" fill="none" xmlns="http://www.w3.org/2000/svg">
<path fill-rule="evenodd" clip-rule="evenodd" d="M7.39342 9.3186C7.39342 7.30346 8.9735 5.60652 11.0007 5.60652C13.0271 5.60652 14.6069 7.30371 14.6069 9.3186C14.6069 11.3326 13.0268 13.0296 11.0007 13.0296C8.97374 13.0296 7.39342 11.3329 7.39342 9.3186ZM11.0007 7.42303C10.0481 7.42303 9.21365 8.23609 9.21365 9.3186C9.21365 10.3997 10.0479 11.213 11.0007 11.213C11.9522 11.213 12.7867 10.4 12.7867 9.3186C12.7867 8.23585 11.952 7.42303 11.0007 7.42303Z" fill="#0e1323"/>
<path fill-rule="evenodd" clip-rule="evenodd" d="M2 9.38901C2 4.24688 5.98679 0 10.9995 0C16.012 0 20 4.24672 20 9.38901C20 12.6994 18.1373 15.8316 16.222 18.0731C15.2524 19.2077 14.2359 20.1538 13.3644 20.8239C12.9298 21.1581 12.5172 21.4344 12.1532 21.6321C11.8357 21.8045 11.4105 22 10.9995 22C10.5885 22 10.1633 21.8045 9.84573 21.6321C9.48176 21.4344 9.06925 21.1581 8.63464 20.8239C7.76322 20.1538 6.7469 19.2077 5.77747 18.073C3.86243 15.8316 2 12.6994 2 9.38901ZM10.9995 1.81651C7.07572 1.81651 3.82022 5.16454 3.82022 9.38901C3.82022 12.0609 5.35611 14.7801 7.16256 16.8944C8.05388 17.9377 8.9791 18.7956 9.74563 19.385C10.13 19.6806 10.4606 19.8979 10.7157 20.0365C10.862 20.1159 10.9537 20.1528 10.9995 20.1699C11.0452 20.1528 11.137 20.1159 11.2833 20.0364C11.5385 19.8979 11.8691 19.6805 12.2535 19.385C13.0201 18.7955 13.9455 17.9376 14.8369 16.8944C16.6437 14.78 18.1798 12.0609 18.1798 9.38901C18.1798 5.1647 14.9234 1.81651 10.9995 1.81651Z" fill="#0e1323"/>
</svg>
