<svg width="111" height="111" viewBox="0 0 111 111" fill="none" xmlns="http://www.w3.org/2000/svg">
<path fill-rule="evenodd" clip-rule="evenodd" d="M58.7568 30.7783C47.5494 27.8221 35.9746 34.5716 32.9037 45.8539C29.8328 57.1361 36.4287 68.6787 47.6361 71.635C58.8435 74.5912 70.4184 67.8417 73.4893 56.5594C74.964 51.1415 74.2403 45.3815 71.4774 40.5466C68.7145 35.7117 64.1388 32.1979 58.7568 30.7783ZM73.5032 79.3809L68.7817 72.9276C68.1135 71.7818 66.6476 71.3951 65.4869 72.0585C64.8832 72.4091 64.4408 72.985 64.2574 73.6589C64.074 74.3328 64.1646 75.0492 64.5093 75.65L67.9667 82.6983C68.8544 84.2518 70.837 84.7747 72.3948 83.8663C73.9526 82.9579 74.4959 80.9621 73.6081 79.4086L73.5032 79.3809Z" fill="#A3C1FF"/>
</svg>
