<svg width="110" height="110" viewBox="0 0 110 110" fill="none" xmlns="http://www.w3.org/2000/svg">
<rect width="110" height="110" fill="white"/>
<rect width="110" height="110" fill="white"/>
<path fill-rule="evenodd" clip-rule="evenodd" d="M41.4446 25.2202H66.9662C76.9453 25.2202 83.6274 32.2262 83.6274 42.6468V66.6966C83.6274 77.0878 76.9453 84.0937 66.9662 84.0937H41.4446C31.4655 84.0937 24.7539 77.0878 24.7539 66.6966V42.6468C24.7539 32.2262 31.4655 25.2202 41.4446 25.2202ZM71.0303 59.9891C71.0303 61.2077 70.0412 62.1968 68.8225 62.1968C67.6039 62.1968 66.6148 61.2077 66.6148 59.9891V56.7451H62.6997V59.9891C62.6997 61.2077 61.7106 62.1968 60.4919 62.1968C59.2733 62.1968 58.2842 61.2077 58.2842 59.9891V56.7451H52.0671C51.1134 59.889 48.2227 62.1968 44.7727 62.1968C40.5515 62.1968 37.1162 58.7615 37.1162 54.5374C37.1162 50.3161 40.5515 46.8809 44.7727 46.8809C48.2227 46.8809 51.1134 49.1887 52.0671 52.3296H68.8225C70.0412 52.3296 71.0303 53.3187 71.0303 54.5374V59.9891ZM44.7723 51.2928C42.9854 51.2928 41.5283 52.747 41.5283 54.5367C41.5283 56.3235 42.9854 57.7777 44.7723 57.7777C46.5591 57.7777 48.0162 56.3235 48.0162 54.5367C48.0162 52.747 46.5591 51.2928 44.7723 51.2928Z" fill="#A3B6FF"/>
<path d="M41.4446 25.2869H66.9662C71.9396 25.2869 76.0868 27.0323 78.9908 30.0718C81.895 33.1116 83.5607 37.4508 83.5607 42.6468V66.6966C83.5607 71.8778 81.8951 76.2097 78.9908 79.2458C76.0868 82.2816 71.9396 84.0271 66.9662 84.0271H41.4446C36.4712 84.0271 32.3166 82.2816 29.4052 79.2457C26.4936 76.2096 24.8206 71.8777 24.8206 66.6966V42.6468C24.8206 37.4509 26.4936 33.1117 29.4052 30.0719C32.3166 27.0323 36.4712 25.2869 41.4446 25.2869ZM68.8225 62.2635C70.0781 62.2635 71.097 61.2446 71.097 59.9891V54.5374C71.097 53.2818 70.0781 52.2629 68.8225 52.2629H52.1164C51.14 49.1194 48.2361 46.8142 44.7727 46.8142C40.5146 46.8142 37.0495 50.2793 37.0495 54.5374C37.0495 58.7984 40.5146 62.2635 44.7727 62.2635C48.2362 62.2635 51.14 59.9582 52.1164 56.8118H58.2175V59.9891C58.2175 61.2446 59.2364 62.2635 60.4919 62.2635C61.7475 62.2635 62.7664 61.2446 62.7664 59.9891V56.8118H66.5481V59.9891C66.5481 61.2446 67.567 62.2635 68.8225 62.2635ZM41.595 54.5367C41.595 52.7839 43.0222 51.3595 44.7723 51.3595C46.5223 51.3595 47.9495 52.7839 47.9495 54.5367C47.9495 56.2866 46.5223 57.711 44.7723 57.711C43.0222 57.711 41.595 56.2866 41.595 54.5367Z" stroke="url(#paint0_linear)" stroke-opacity="0.5" stroke-width="0.133381"/>
<defs>
<linearGradient id="paint0_linear" x1="40.7695" y1="52.0186" x2="69.5638" y2="52.3706" gradientUnits="userSpaceOnUse">
<stop stop-color="white"/>
<stop offset="1" stop-color="white" stop-opacity="0"/>
</linearGradient>
</defs>
</svg>
