<svg width="111" height="111" viewBox="0 0 111 111" fill="none" xmlns="http://www.w3.org/2000/svg">
<path fill-rule="evenodd" clip-rule="evenodd" d="M71.7156 25C76.1784 25 80.4714 26.7797 83.6296 29.973C86.7911 33.1597 88.5582 37.4578 88.5582 41.9573V68.4847C88.5582 77.8532 81.0038 85.442 71.7156 85.442H38.8392C29.551 85.442 22 77.8532 22 68.4847V41.9573C22 32.5888 29.5177 25 38.8392 25H71.7156ZM77.0103 46.9605L77.2765 46.6918C78.0719 45.718 78.0719 44.3077 77.2399 43.3339C76.7773 42.8336 76.1417 42.528 75.4795 42.4609C74.7806 42.4239 74.115 42.6624 73.6125 43.1325L58.607 55.2209C56.6768 56.836 53.9113 56.836 51.9511 55.2209L36.9755 43.1325C35.9406 42.3601 34.5096 42.4609 33.6476 43.3675C32.7491 44.2741 32.6493 45.718 33.4114 46.7254L33.8473 47.1619L48.9893 59.0824C50.8529 60.5599 53.1126 61.3658 55.4787 61.3658C57.8382 61.3658 60.1378 60.5599 61.9981 59.0824L77.0103 46.9605Z" fill="#A3B6FF"/>
<path d="M83.5711 30.0309L83.5712 30.031C86.7174 33.2021 88.4759 37.4794 88.4759 41.9573V68.4847C88.4759 77.8083 80.9579 85.3598 71.7156 85.3598H38.8392C29.5969 85.3598 22.0822 77.8083 22.0822 68.4847V41.9573C22.0822 32.6336 29.5638 25.0822 38.8392 25.0822H71.7156C76.1565 25.0822 80.4284 26.8532 83.5711 30.0309ZM77.3349 46.7497L77.3352 46.75L77.3402 46.7438C78.1604 45.7396 78.1606 44.2849 77.3024 43.2805L77.3025 43.2805L77.3003 43.2781C76.8237 42.7626 76.1693 42.4482 75.4878 42.3791L75.4878 42.379L75.4838 42.3788C74.7642 42.3407 74.0776 42.5859 73.5586 43.0703L58.5554 55.1568L58.5542 55.1578C56.6548 56.7472 53.9334 56.7477 52.0034 55.1574L52.0028 55.1569L37.0272 43.0685L37.0272 43.0684L37.0247 43.0666C35.9583 42.2708 34.4808 42.3725 33.5886 43.3102C32.6622 44.2456 32.5589 45.7349 33.3458 46.775L33.3452 46.7755L33.3532 46.7835L33.7891 47.22L33.7887 47.2205L33.7964 47.2265L48.9382 59.1469C50.816 60.6356 53.0935 61.448 55.4787 61.448C57.8569 61.448 60.1745 60.6358 62.0492 59.1468L62.0498 59.1464L77.062 47.0244L77.0623 47.0248L77.0687 47.0183L77.3349 46.7497Z" stroke="url(#paint0_linear)" stroke-opacity="0.5" stroke-width="0.164468"/>
<defs>
<linearGradient id="paint0_linear" x1="75.9418" y1="52.3114" x2="32.5726" y2="56.6082" gradientUnits="userSpaceOnUse">
<stop stop-color="white"/>
<stop offset="1" stop-color="white" stop-opacity="0"/>
</linearGradient>
</defs>
</svg>
