<svg width="111" height="111" viewBox="0 0 111 111" fill="none" xmlns="http://www.w3.org/2000/svg">
<path d="M67.5704 25.9404H42.9416C34.0081 25.9404 28.8066 31.1712 28.8066 40.1341V70.4905C28.8066 79.6003 34.0081 84.7136 42.9416 84.7136H67.5704C76.648 84.7136 81.7024 79.6003 81.7024 70.4905V40.1341C81.7024 31.1712 76.648 25.9404 67.5704 25.9404Z" fill="#A3B6FF"/>
<path fill-rule="evenodd" clip-rule="evenodd" d="M43.7378 39.6053V39.6347C42.4713 39.6347 41.4457 40.6633 41.4457 41.9269C41.4457 43.1905 42.4713 44.219 43.7378 44.219H52.5215C53.788 44.219 54.8165 43.1905 54.8165 41.8946C54.8165 40.6339 53.788 39.6053 52.5215 39.6053H43.7378ZM66.7769 57.5019H43.7378C42.4713 57.5019 41.4457 56.4734 41.4457 55.2098C41.4457 53.9461 42.4713 52.9147 43.7378 52.9147H66.7769C68.0405 52.9147 69.069 53.9461 69.069 55.2098C69.069 56.4734 68.0405 57.5019 66.7769 57.5019ZM66.7773 70.9313H43.7383C42.8567 71.0488 42.0045 70.608 41.5343 69.8733C41.0641 69.1093 41.0641 68.1395 41.5343 67.4049C42.0045 66.6408 42.8567 66.2294 43.7383 66.3176H66.7773C67.9499 66.4351 68.8344 67.4343 68.8344 68.6391C68.8344 69.8116 67.9499 70.8137 66.7773 70.9313Z" fill="#F0F3FF"/>
</svg>
