<svg width="111" height="111" viewBox="0 0 111 111" fill="none" xmlns="http://www.w3.org/2000/svg">
<path d="M46.1599 65.2513C32.727 65.2513 21.2539 67.3079 21.2539 75.5275C21.2539 83.7535 32.6541 85.8809 46.1599 85.8809C59.5927 85.8809 71.0659 83.8243 71.0659 75.6047C71.0659 67.3787 59.6657 65.2513 46.1599 65.2513Z" fill="#7AAFFF"/>
<path opacity="0.6" d="M46.1599 57.4158C55.3085 57.4158 62.6401 50.3 62.6401 41.4207C62.6401 32.5413 55.3085 25.4255 46.1599 25.4255C37.0145 25.4255 29.6797 32.5413 29.6797 41.4207C29.6797 50.3 37.0145 57.4158 46.1599 57.4158Z" fill="#7AAFFF"/>
<path opacity="0.6" d="M69.2816 41.7105C69.2816 46.2322 67.8823 50.4515 65.4285 53.9562C65.1732 54.3167 65.3987 54.8027 65.843 54.8799C66.4598 54.9797 67.0931 55.0408 67.7397 55.0537C74.1726 55.2178 79.9457 51.1981 81.5406 45.1444C83.9049 36.1621 76.968 28.0969 68.131 28.0969C67.1727 28.0969 66.2542 28.1935 65.3589 28.3705C65.2362 28.3962 65.1036 28.4542 65.0372 28.5571C64.951 28.6891 65.014 28.8597 65.1002 28.9723C67.7563 32.5865 69.2816 36.986 69.2816 41.7105Z" fill="#7AAFFF"/>
<path d="M88.2785 66.2978C87.1013 63.8616 84.2595 62.1912 79.9356 61.3706C77.8963 60.8878 72.3719 60.2023 67.2355 60.2989C67.1593 60.3085 67.1162 60.36 67.1095 60.3922C67.0996 60.4437 67.1228 60.5209 67.2223 60.5756C69.5965 61.7149 78.7717 66.6712 77.6177 77.1243C77.568 77.5813 77.9427 77.9675 78.4102 77.9031C80.6684 77.591 86.4779 76.3777 88.2785 72.6058C89.2765 70.6104 89.2765 68.2932 88.2785 66.2978Z" fill="#7AAFFF"/>
</svg>
