<?xml version="1.0" encoding="utf-8"?>
<!-- Generator: Adobe Illustrator 24.1.0, SVG Export Plug-In . SVG Version: 6.00 Build 0)  -->
<svg version="1.1" id="Layer_1" xmlns="http://www.w3.org/2000/svg" xmlns:xlink="http://www.w3.org/1999/xlink" x="0px" y="0px"
	 viewBox="0 0 111 111" style="enable-background:new 0 0 111 111;" xml:space="preserve">
<style type="text/css">
	.st0{fill:#FFFFFF;}
	.st1{fill-rule:evenodd;clip-rule:evenodd;fill:#A3B0FF;}
</style>
<rect class="st0" width="111" height="111"/>
<rect class="st0" width="111" height="111"/>
<g>
	<path class="st1" d="M41.8,24.2h26.5c10.4,0,17.3,7.3,17.3,18.1v25c0,10.8-6.9,18.1-17.3,18.1H41.8c-10.4,0-17.3-7.3-17.3-18.1v-25
		C24.5,31.5,31.5,24.2,41.8,24.2z M62.3,60.7l8.7-11.3v-0.1c0.7-1,0.6-2.4-0.4-3.2c-0.5-0.4-1.1-0.5-1.7-0.4
		c-0.6,0.1-1.1,0.4-1.5,0.9l-7.4,9.5l-8.4-6.6c-0.5-0.4-1.1-0.5-1.7-0.5c-0.6,0.1-1.1,0.4-1.5,0.9l-9,11.7C39.2,62,39,62.5,39,63
		c-0.1,1,0.6,2,1.6,2.3c1,0.3,2-0.1,2.6-0.9l7.6-9.8l8.4,6.6c0.5,0.4,1.1,0.6,1.7,0.5C61.4,61.5,62,61.2,62.3,60.7z"/>
</g>
</svg>
