<svg width="111" height="111" viewBox="0 0 111 111" fill="none" xmlns="http://www.w3.org/2000/svg">
<rect width="111" height="111" fill="white"/>
<rect x="0.336914" y="0.622559" width="110" height="110" fill="white"/>
<path fill-rule="evenodd" clip-rule="evenodd" d="M42.444 27.9966H68.2533C77.6585 27.9966 82.9628 33.3254 82.9628 42.7307V68.5153C82.9628 77.9206 77.6585 83.2494 68.2533 83.2494H42.444C33.0388 83.2494 27.71 77.9206 27.71 68.5153V42.7307C27.71 33.3254 33.0388 27.9966 42.444 27.9966ZM53.0498 41.6003C53.0498 40.3234 54.0811 39.292 55.3335 39.292C56.6105 39.292 57.6419 40.3234 57.6419 41.6003V69.6442C57.6419 70.8966 56.6105 71.928 55.3335 71.928C54.0811 71.928 53.0498 70.8966 53.0498 69.6442V41.6003ZM40.2559 50.6625C40.2559 49.3855 41.2872 48.3541 42.5396 48.3541C43.8166 48.3541 44.848 49.3855 44.848 50.6625V69.6449C44.848 70.8973 43.8166 71.9287 42.5396 71.9287C41.2872 71.9287 40.2559 70.8973 40.2559 69.6449V50.6625ZM68.152 58.3739C66.875 58.3739 65.8437 59.4053 65.8437 60.6822V69.6455C65.8437 70.8979 66.875 71.9293 68.1274 71.9293C69.4044 71.9293 70.4358 70.8979 70.4358 69.6455V60.6822C70.4358 59.4053 69.4044 58.3739 68.152 58.3739Z" fill="#A3BDFF"/>
</svg>
