<svg width="111" height="111" viewBox="0 0 111 111" fill="none" xmlns="http://www.w3.org/2000/svg">
<path fill-rule="evenodd" clip-rule="evenodd" d="M24.2422 72.3236V45.7538H87.0632V72.5365C87.0632 83.4917 80.1673 90.2276 69.134 90.2276H42.1369C31.207 90.2276 24.2422 83.3521 24.2422 72.3236ZM41.5488 63.7384C39.9628 63.8116 38.6526 62.5517 38.5836 60.9498C38.5836 59.3444 39.8249 58.0182 41.4109 57.9449C42.9625 57.9449 44.2382 59.1699 44.2727 60.7369C44.3416 62.3458 43.1004 63.672 41.5488 63.7384ZM55.7199 63.7384C54.1338 63.8116 52.8236 62.5517 52.7547 60.9498C52.7547 59.3444 53.9959 58.0182 55.582 57.9449C57.1335 57.9449 58.4092 59.1699 58.4437 60.7369C58.5127 62.3458 57.2714 63.672 55.7199 63.7384ZM69.7897 76.5817C68.2036 76.5468 66.9279 75.2205 66.9279 73.6151C66.8934 72.0097 68.1692 70.687 69.7552 70.6521H69.7897C71.4102 70.6521 72.7204 71.9783 72.7204 73.6151C72.7204 75.2554 71.4102 76.5817 69.7897 76.5817ZM52.7547 73.6151C52.8236 75.2205 54.1338 76.4804 55.7199 76.4071C57.2714 76.3408 58.5127 75.0146 58.4437 73.4092C58.4092 71.8386 57.1335 70.6136 55.582 70.6136C53.9959 70.6869 52.7547 72.0097 52.7547 73.6151ZM38.5502 73.6151C38.6191 75.2205 39.9293 76.4804 41.5154 76.4071C43.0669 76.3408 44.3082 75.0146 44.2392 73.4092C44.2047 71.8386 42.929 70.6136 41.3774 70.6136C39.7914 70.6869 38.5502 72.0097 38.5502 73.6151ZM66.9607 60.9147C66.9607 59.3093 68.2019 58.018 69.788 57.9831C71.3395 57.9831 72.5808 59.236 72.6498 60.7751C72.6842 62.3806 71.443 63.7068 69.8914 63.7382C68.3054 63.7731 66.9952 62.5516 66.9607 60.9496V60.9147Z" fill="#A3B6FF"/>
<path opacity="0.4" d="M24.252 45.7534C24.2968 43.7047 24.4692 39.6388 24.7933 38.33C26.4483 30.9695 32.0684 26.2928 40.102 25.6262H71.2022C79.1669 26.3277 84.8559 31.0358 86.5109 38.33C86.8316 39.6039 87.004 43.7012 87.0488 45.7534H24.252Z" fill="#B8C7FF"/>
<path d="M42.7545 36.4459C44.2716 36.4459 45.4094 35.2976 45.4094 33.7585V23.1173C45.4094 21.5782 44.2716 20.4265 42.7545 20.4265C41.2374 20.4265 40.0996 21.5782 40.0996 23.1173V33.7585C40.0996 35.2976 41.2374 36.4459 42.7545 36.4459Z" fill="#A3B6FF"/>
<path d="M68.5494 36.4459C70.032 36.4459 71.2043 35.2976 71.2043 33.7585V23.1173C71.2043 21.5782 70.032 20.4265 68.5494 20.4265C67.0323 20.4265 65.8945 21.5782 65.8945 23.1173V33.7585C65.8945 35.2976 67.0323 36.4459 68.5494 36.4459Z" fill="#A3B6FF"/>
</svg>
