<svg width="110" height="110" viewBox="0 0 110 110" fill="none" xmlns="http://www.w3.org/2000/svg">
<rect width="110" height="110" fill="white"/>
<rect width="110" height="110" fill="white"/>
<path fill-rule="evenodd" clip-rule="evenodd" d="M47.6763 71.5523C47.5922 71.4348 47.4736 71.3463 47.337 71.2991C42.6292 69.6318 38.5769 66.5048 35.7705 62.3736C32.964 58.2425 31.5501 53.3231 31.7348 48.3323C31.9261 41.688 34.743 35.3904 39.5683 30.8189C44.3936 26.2474 50.834 23.7745 57.4789 23.9421C64.1238 23.7745 70.5643 26.2474 75.3896 30.8189C80.2149 35.3904 83.0317 41.688 83.2231 48.3323C83.4709 53.3202 82.096 58.2541 79.3043 62.3951C76.5126 66.536 72.4544 69.6609 67.7377 71.3018C67.6008 71.3487 67.482 71.4371 67.3978 71.5547C67.3135 71.6723 67.2681 71.8133 67.2678 71.958V75.3748C67.2678 75.7434 67.1214 76.097 66.8607 76.3577C66.6 76.6184 66.2464 76.7648 65.8777 76.7648H49.1969C48.8282 76.7648 48.4746 76.6184 48.2139 76.3577C47.9533 76.097 47.8068 75.7434 47.8068 75.3748V71.9552C47.8061 71.8106 47.7605 71.6698 47.6763 71.5523ZM51.5411 86.0657H63.4281C64.2162 86.0657 64.9721 85.7727 65.5294 85.2514C66.0867 84.73 66.3998 84.0228 66.3998 83.2855C66.3998 82.5482 66.0867 81.841 65.5294 81.3196C64.9721 80.7983 64.2162 80.5054 63.4281 80.5054H51.5411C50.7529 80.5054 49.997 80.7983 49.4397 81.3196C48.8824 81.841 48.5693 82.5482 48.5693 83.2855C48.5693 84.0228 48.8824 84.73 49.4397 85.2514C49.997 85.7727 50.7529 86.0657 51.5411 86.0657ZM65.7483 49.3384C66.6187 50.2088 66.6187 51.62 65.7483 52.4904L59.7144 58.5243V68.7449C59.7144 69.9759 58.7165 70.9737 57.4856 70.9737C56.2546 70.9737 55.2568 69.9759 55.2568 68.7449V58.524L49.2231 52.4904C48.3527 51.62 48.3527 50.2088 49.2231 49.3384C50.0935 48.4679 51.5047 48.4679 52.3751 49.3384L57.4857 54.4489L62.5963 49.3384C63.4667 48.4679 64.8779 48.4679 65.7483 49.3384Z" fill="#7AAFFF"/>
</svg>
