<?xml version="1.0" encoding="utf-8"?>
<!-- Generator: Adobe Illustrator 24.1.0, SVG Export Plug-In . SVG Version: 6.00 Build 0)  -->
<svg version="1.1" id="Layer_1" xmlns="http://www.w3.org/2000/svg" xmlns:xlink="http://www.w3.org/1999/xlink" x="0px" y="0px"
	 viewBox="0 0 111 111" style="enable-background:new 0 0 111 111;" xml:space="preserve">
<style type="text/css">
	.st0{fill:#A3BAFF;stroke:url(#SVGID_1_);stroke-width:0.8054;stroke-linecap:round;stroke-linejoin:round;}
</style>
<linearGradient id="SVGID_1_" gradientUnits="userSpaceOnUse" x1="42.1495" y1="84.5163" x2="79.6586" y2="38.0602" gradientTransform="matrix(1 0 0 -1 0 112)">
	<stop  offset="0" style="stop-color:#FFFFFF;stop-opacity:1.25"/>
	<stop  offset="1" style="stop-color:#FFFFFF;stop-opacity:1"/>
</linearGradient>
<path class="st0" d="M61.8,66.3L61.8,66.3c1.1,0,2,0.9,2,2v8.1c0,1.1-0.6,2-1.6,2.5l0,0l-13,6.1l0,0c-0.4,0.2-0.7,0.2-1.1,0.2
	c0,0,0,0,0,0c-0.8,0-1.4-0.7-1.4-1.5V67.9c0,0,0.2-1.7,2.1-1.7L61.8,66.3l-13,0 M45.1,61.1c0.6,0.7,1.6,0.7,1.6,0.7h0l16,0
	c0,0,0,0,0,0c0.6,0,1.1-0.2,1.5-0.6c0,0,0,0,0,0l19.1-19.3l0,0c1.3-1.3,2-3,2-4.9v-4.5c0-3.8-3-6.8-6.7-6.8H32.4
	c-3.7,0-6.7,3.1-6.7,6.9V37c0,1.7,0.6,3.4,1.8,4.7L45.1,61.1L45.1,61.1"/>
</svg>
