<svg width="63" height="63" viewBox="0 0 63 63" fill="none" xmlns="http://www.w3.org/2000/svg">
<rect width="63" height="63" fill="white"/>
<rect x="0.308594" y="0.943359" width="62" height="62" fill="white"/>
<path d="M40.8478 28.7886L40.8654 28.766V28.7373V28.7328C41.316 28.1026 41.1915 27.2271 40.5784 26.7476L40.578 26.7473C40.2771 26.515 39.8947 26.4144 39.5182 26.4686C39.1422 26.5227 38.8042 26.7265 38.5811 27.0336L34.2714 32.5777L29.3703 28.7191L29.37 28.7188C29.0686 28.484 28.6853 28.3804 28.3065 28.4312C27.9279 28.4821 27.5857 28.6829 27.3572 28.9886C27.357 28.9888 27.3569 28.989 27.3567 28.9892L22.0091 35.8864C22.0089 35.8866 22.0088 35.8868 22.0086 35.887C21.8093 36.1357 21.7018 36.4453 21.704 36.7638C21.6722 37.4079 22.0793 37.9925 22.6952 38.1869C23.3104 38.3811 23.9794 38.137 24.3244 37.5927L28.7441 31.8759L33.6441 35.718C33.6442 35.7181 33.6444 35.7182 33.6445 35.7183C33.9447 35.9602 34.3304 36.0698 34.7131 36.022C35.0958 35.9742 35.4426 35.7732 35.6739 35.4651C35.674 35.4649 35.6742 35.4647 35.6743 35.4646L40.8478 28.7886ZM23.4688 13.9217H39.1663C42.2148 13.9217 44.754 14.9914 46.5313 16.8515C48.3088 18.712 49.3302 21.3698 49.3302 24.5564V39.3487C49.3302 42.5262 48.3088 45.1794 46.5313 47.0377C44.754 48.8956 42.2148 49.9653 39.1663 49.9653H23.4688C20.4202 49.9653 17.8764 48.8956 16.0947 47.0376C14.3126 45.1793 13.2867 42.5261 13.2867 39.3487V24.5564C13.2867 21.3699 14.3126 18.7122 16.0947 16.8516C17.8765 14.9914 20.4202 13.9217 23.4688 13.9217Z" fill="#0e1323" stroke="url(#paint0_linear)" stroke-width="0.167674"/>
<defs>
<linearGradient id="paint0_linear" x1="18.9671" y1="18.0565" x2="42.066" y2="46.6651" gradientUnits="userSpaceOnUse">
<stop stop-color="white" stop-opacity="0.25"/>
<stop offset="1" stop-color="white" stop-opacity="0"/>
</linearGradient>
</defs>
</svg>
