<svg width="63" height="63" viewBox="0 0 63 63" fill="none" xmlns="http://www.w3.org/2000/svg">
<rect width="63" height="63" fill="white"/>
<rect x="0.308594" y="0.431641" width="62" height="62" fill="white"/>
<path d="M34.2017 37.4706C34.7563 37.4706 35.2101 37.9244 35.2101 38.479V42.563C35.2101 43.1176 34.9076 43.5714 34.4034 43.8235L27.8487 46.8992C27.6471 47 27.4958 47 27.2941 47C26.8908 47 26.5882 46.6471 26.5882 46.2437V38.2773C26.5882 38.2773 26.6891 37.4202 27.6471 37.4202L34.2017 37.4706H27.6471H34.2017ZM25.7815 34.8487C26.084 35.2017 26.5882 35.2017 26.5882 35.2017H34.6555C34.958 35.2017 35.2101 35.1008 35.4118 34.8992L45.042 25.1681C45.6975 24.5126 46.0504 23.6555 46.0504 22.6975V20.4286C46.0504 18.5126 44.5378 17 42.6723 17H19.3782C17.5126 17 16 18.563 16 20.479V22.6975C16 23.5546 16.3025 24.4118 16.9076 25.0672L25.7815 34.8487Z" fill="#0e1323"/>
<path d="M34.2017 37.4706C34.7563 37.4706 35.2101 37.9244 35.2101 38.479V42.563C35.2101 43.1176 34.9076 43.5714 34.4034 43.8235L27.8487 46.8992C27.6471 47 27.4958 47 27.2941 47C26.8908 47 26.5882 46.6471 26.5882 46.2437V38.2773C26.5882 38.2773 26.6891 37.4202 27.6471 37.4202L34.2017 37.4706ZM34.2017 37.4706H27.6471H34.2017ZM25.7815 34.8487C26.084 35.2017 26.5882 35.2017 26.5882 35.2017H34.6555C34.958 35.2017 35.2101 35.1008 35.4118 34.8992L45.042 25.1681C45.6975 24.5126 46.0504 23.6555 46.0504 22.6975V20.4286C46.0504 18.5126 44.5378 17 42.6723 17H19.3782C17.5126 17 16 18.563 16 20.479V22.6975C16 23.5546 16.3025 24.4118 16.9076 25.0672L25.7815 34.8487Z" stroke="url(#paint0_linear)" stroke-width="0.8054" stroke-linecap="round" stroke-linejoin="round"/>
<defs>
<linearGradient id="paint0_linear" x1="24.2939" y1="17.8993" x2="43.206" y2="41.3226" gradientUnits="userSpaceOnUse">
<stop stop-color="white" stop-opacity="0.25"/>
<stop offset="1" stop-color="white" stop-opacity="0"/>
</linearGradient>
</defs>
</svg>
