<svg width="597" height="498" viewBox="0 0 597 498" fill="none" xmlns="http://www.w3.org/2000/svg">
<path d="M168.1 346.5H219.6C232.7 346.5 243.3 357.1 243.3 370.2V421.7C243.3 434.8 232.7 445.4 219.6 445.4H168.1C155 445.4 144.4 434.8 144.4 421.7V370.2C144.4 357.1 155 346.5 168.1 346.5Z" fill="#A4C7FF" fill-opacity="0.01"/>
<path d="M168.1 347.1H219.6C232.3 347.1 242.7 357.4 242.7 370.2V421.7C242.7 434.4 232.4 444.8 219.6 444.8H168.1C155.4 444.8 145 434.5 145 421.7V370.2C145 357.5 155.3 347.1 168.1 347.1Z" fill="#A4C7FF" stroke="url(#paint0_linear)" stroke-width="1.2172"/>
<path fill-rule="evenodd" clip-rule="evenodd" d="M222.1 396.8C222.1 412.4 209.4 425.1 193.8 425.1C178.2 425.1 165.5 412.4 165.5 396.8C165.5 381.2 178.2 368.5 193.8 368.5C209.4 368.5 222.1 381.2 222.1 396.8ZM208.5 392.7C210.8 392.7 212.6 394.5 212.6 396.8C212.6 398.5 211.6 399.9 210.2 400.6C210.3 401 210.3 401.4 210.3 401.9C210.3 408.3 202.9 413.4 193.8 413.4C184.7 413.4 177.3 408.2 177.3 401.9C177.3 401.5 177.3 401.1 177.4 400.6C176 400 175 398.5 175 396.8C175 394.5 176.8 392.7 179.1 392.7C180.2 392.7 181.2 393.1 182 393.9C184.9 391.8 188.8 390.5 193.2 390.4L195.3 380.5C195.3 380.3 195.4 380.1 195.6 380C195.7 379.9 195.9 379.9 196.1 379.9L203 381.4C203.5 380.4 204.5 379.7 205.6 379.7C207.2 379.7 208.5 381 208.5 382.6C208.5 384.2 207.2 385.5 205.6 385.5C204 385.5 202.7 384.2 202.7 382.7L196.5 381.4L194.6 390.3C198.9 390.5 202.8 391.8 205.7 393.8C206.4 393.1 207.4 392.7 208.5 392.7ZM187.3 396.8C185.7 396.8 184.4 398.1 184.4 399.7C184.4 401.3 185.7 402.7 187.3 402.6C188.9 402.6 190.2 401.3 190.2 399.7C190.2 398.1 188.9 396.8 187.3 396.8ZM193.8 409.7C194.9 409.7 198.8 409.6 200.8 407.5C201.1 407.2 201.1 406.7 200.8 406.4C200.5 406.1 200 406.1 199.7 406.4C198.4 407.7 195.7 408.1 193.8 408.1C191.9 408.1 189.2 407.7 187.9 406.4C187.6 406.1 187.1 406.1 186.8 406.4C186.5 406.7 186.5 407.2 186.8 407.5C188.8 409.6 192.7 409.7 193.8 409.7ZM197.3 399.8C197.3 401.4 198.6 402.7 200.2 402.7C201.8 402.7 203.1 401.3 203.1 399.8C203.1 398.2 201.8 396.9 200.2 396.9C198.6 396.9 197.3 398.2 197.3 399.8Z" fill="white"/>
<path d="M481.2 172.5H541.6C556.9 172.5 569.4 184.9 569.4 200.3V260.7C569.4 276 557 288.5 541.6 288.5H481.2C465.9 288.5 453.4 276.1 453.4 260.7V200.3C453.4 185 465.8 172.5 481.2 172.5Z" fill="#A4C7FF" fill-opacity="0.01"/>
<path d="M481.2 173.3H541.6C556.5 173.3 568.7 185.4 568.7 200.4V260.8C568.7 275.7 556.6 287.9 541.6 287.9H481.2C466.3 287.9 454.1 275.8 454.1 260.8V200.4C454.1 185.4 466.2 173.3 481.2 173.3Z" fill="#A4C7FF" stroke="url(#paint1_linear)" stroke-width="1.4274"/>
<path d="M531.8 220.1C531.8 220.1 526 238.4 525.5 239.9C525.3 238.3 521 205.5 521 205.5C511.1 205.5 505.7 212.6 502.9 220C502.9 220 495.8 238.3 495.2 239.9C495.2 238.5 494.1 220.2 494.1 220.2C493.5 211.1 485.1 205.5 478.3 205.5L486.5 255.2C496.9 255.2 502.5 248.1 505.5 240.7C505.5 240.7 511.8 224.5 512 223.8C512 224.5 516.5 255.2 516.5 255.2C527 255.2 532.6 248.6 535.6 241.4L550.3 205.5C540 205.6 534.6 212.6 531.8 220.1Z" fill="white"/>
<path d="M516.6 255.3L514.4 239.8C513.8 235.9 513.3 232 512.9 229L512.8 228.2C512.6 227 512.5 226.1 512.4 225.3L512.3 224.5L511.9 224.4C511.4 225.7 510.3 228.5 508.8 232.4L505.6 240.7C502 249.8 495.8 254.8 487.5 255.1H486.7L478.5 205.3L479.7 205.4C486.4 206 493.7 211.7 494.3 220L494.8 229.3C495 232.2 495.2 236.9 495.3 238.9L495.6 239C496.3 237.3 497.9 233.2 499.4 229.2L503 219.9C506.5 210.7 512.4 205.7 520.2 205.4H521.1L523.3 222C524.2 228.9 525.2 236.5 525.5 239H525.8C526.3 237.5 527.3 234.2 528.4 230.8L531.9 220C535.3 211 541.2 206 549 205.5L550.5 205.4L535.7 241.5C534 245.5 531.7 248.7 529 250.9C525.8 253.5 522 254.9 517.5 255.1L516.6 255.3ZM513.9 222.8L514 224.1L514.1 225.2C514.2 225.9 514.3 226.9 514.5 228.1L514.6 228.9C515 231.9 515.6 235.8 516.1 239.7L518.1 253.4C521.8 253.1 524.9 251.9 527.6 249.7C530.1 247.6 532.2 244.6 533.8 240.9L533.9 240.7L547.3 207.8C541 208.8 536.3 213.2 533.5 220.8L530.1 231.6C528.7 235.8 527.5 239.8 527.3 240.5L527.1 241.2L523.7 240.9L523.6 240.1C523.5 239.3 522.4 230.4 521.3 222.4L519.4 207.6C512.8 208.2 507.9 212.7 504.8 220.8V220.9L504.5 221.7L501.2 230.2C499.4 235 497.4 239.9 497.1 240.7L496.8 241.4L493.4 240.8V240C493.4 239.4 493.2 235.7 492.8 229.7L492.3 220.5C491.8 213.6 486.3 208.9 480.7 207.8L488.2 253.4C495.3 252.8 500.6 248.3 503.8 240.2L507 232C508.1 229.1 510.2 223.7 510.3 223.3L510.6 222.6L513.1 223L513.9 222.8Z" fill="url(#paint2_linear)"/>
<path d="M427.2 52.5H479.8C492.9 52.5 503.6 63.1 503.6 76.3V128C503.6 141.1 493 151.8 479.8 151.8H427.2C414.1 151.8 403.4 141.2 403.4 128V76.3C403.4 63.2 414 52.5 427.2 52.5Z" fill="#A4CEFF" fill-opacity="0.01"/>
<path d="M427.2 53.2H479.8C492.6 53.2 503 63.6 503 76.4V128.1C503 140.9 492.6 151.3 479.8 151.3H427.2C414.4 151.3 404 140.9 404 128.1V76.3C404 63.5 414.4 53.2 427.2 53.2Z" fill="#A4CEFF" stroke="url(#paint3_linear)" stroke-width="1.2218"/>
<path d="M457.3 127.6H447V102.1H440V93.7999H447V87.8999C447 80.8999 450.1 75.8999 460.3 75.8999C462.5 75.8999 465.9 76.2999 465.9 76.2999V83.9999H462.3C458.7 83.9999 457.2 85.0999 457.2 88.1999V93.7999H465.7L464.9 102.1H457.2V127.6H457.3Z" fill="white"/>
<path d="M127.1 92.5H179.5C192.6 92.5 203.2 103.1 203.2 116.2V167.7C203.2 180.8 192.6 191.4 179.5 191.4H127.1C114 191.4 103.4 180.8 103.4 167.7V116.2C103.4 103.1 114 92.5 127.1 92.5Z" fill="#A4C7FF" fill-opacity="0.01"/>
<path d="M127.1 93.1001H179.5C192.2 93.1001 202.6 103.4 202.6 116.2V167.7C202.6 180.4 192.3 190.8 179.5 190.8H127.1C114.4 190.8 104 180.5 104 167.7V116.2C104 103.5 114.3 93.1001 127.1 93.1001Z" fill="#A4C7FF" stroke="url(#paint4_linear)" stroke-width="1.2172"/>
<path fill-rule="evenodd" clip-rule="evenodd" d="M128.5 141.8C128.5 127.7 139.6 117.2 153.8 117.2C168.1 117.2 179.1 127.7 179.1 141.8C179.1 155.9 168 166.4 153.8 166.4C151.2 166.4 148.8 166.1 146.5 165.4C146.1 165.3 145.6 165.3 145.1 165.5L140.1 167.7C138.8 168.3 137.3 167.3 137.3 165.9L137.2 161.4C137.2 160.8 136.9 160.3 136.5 160C131.5 155.5 128.5 149.2 128.5 141.8ZM146 137.1L138.6 148.9C137.9 150 139.3 151.3 140.3 150.5L148.3 144.4C148.8 144 149.6 144 150.1 144.4L156 148.8C157.8 150.1 160.3 149.7 161.5 147.8L168.9 136C169.6 134.9 168.2 133.6 167.2 134.4L159.2 140.5C158.7 140.9 157.9 140.9 157.4 140.5L151.5 136.1C149.8 134.8 147.2 135.3 146 137.1Z" fill="white"/>
<path d="M46.9 229.2H99.5C112.6 229.2 123.3 239.8 123.3 253V304.7C123.3 317.8 112.7 328.5 99.5 328.5H46.9C33.8 328.5 23.1 317.9 23.1 304.7V253C23.1 239.8 33.7 229.2 46.9 229.2Z" fill="#A4ABFF" fill-opacity="0.01"/>
<path d="M46.9 229.8H99.5C112.3 229.8 122.7 240.2 122.7 253V304.7C122.7 317.5 112.3 327.9 99.5 327.9H46.9C34.1 327.9 23.7 317.5 23.7 304.7V253C23.7 240.2 34.1 229.8 46.9 229.8Z" fill="#A4ABFF" stroke="url(#paint5_linear)" stroke-width="1.2218"/>
<path fill-rule="evenodd" clip-rule="evenodd" d="M54.3 251.1H92.1C95.3 251.1 97.9 253.7 97.9 256.9V307L91.8 301.7L88.4 298.6L84.8 295.3L86.3 300.5H54.3C51.1 300.5 48.5 297.9 48.5 294.7V256.9C48.5 253.7 51.1 251.1 54.3 251.1ZM79.4 285.4C80.2 286.4 81.3 287.7 81.3 287.7C87.2 287.5 89.6 283.9 89.9 283.5C89.9 274.5 85.8 267.2 85.8 267.2C81.8 264.2 77.9 264.3 77.9 264.3L77.5 264.8C82.3 266.2 84.5 268.4 84.5 268.4C81.6 266.8 78.7 266 76 265.7C74 265.5 72 265.5 70.3 265.8C70.2 265.8 70 265.8 69.9 265.8C69.9 265.8 69.9 265.8 69.8 265.8C68.8 265.9 66.4 266.3 63.4 267.6C62.4 268.1 61.7 268.4 61.7 268.4C61.7 268.4 64 266.2 69.1 264.7L68.8 264.4C68.8 264.4 65 264.3 60.9 267.3C60.9 267.3 56.8 274.6 56.8 283.6C56.8 283.6 59.2 287.7 65.4 287.9C65.4 287.9 66.4 286.7 67.3 285.6C63.7 284.5 62.4 282.3 62.4 282.3C62.4 282.3 62.7 282.5 63.2 282.8C63.2 282.8 63.2 282.8 63.3 282.8C63.3 282.8 63.3 282.8 63.4 282.8C63.4 282.8 63.5 282.8 63.5 282.9C63.5 282.9 63.6 282.9 63.6 283C64.3 283.4 65 283.7 65.7 284C66.9 284.5 68.2 284.9 69.8 285.2C71.9 285.6 74.4 285.7 77.1 285.2C78.4 284.9 79.8 284.6 81.2 284C82.2 283.6 83.3 283.1 84.4 282.3C84.5 282.1 83.1 284.3 79.4 285.4ZM75.5 277.7C75.5 276 76.8 274.6 78.4 274.6C80 274.6 81.3 276 81.3 277.7C81.3 279.4 80 280.8 78.4 280.8C76.8 280.8 75.5 279.4 75.5 277.7ZM65.2 277.7C65.2 276 66.5 274.6 68.1 274.6C69.7 274.6 71 276 71 277.7C71 279.4 69.7 280.8 68.1 280.8C66.5 280.8 65.2 279.4 65.2 277.7Z" fill="white"/>
<path d="M353.6 200H402.6C415 200 425.1 210.1 425.1 222.5V271.5C425.1 283.9 415 294 402.6 294H353.6C341.2 294 331.1 283.9 331.1 271.5V222.5C331.1 210.1 341.2 200 353.6 200Z" fill="#A4B8FF" fill-opacity="0.01"/>
<path d="M353.6 200.6H402.6C414.7 200.6 424.5 210.4 424.5 222.5V271.5C424.5 283.6 414.7 293.4 402.6 293.4H353.6C341.5 293.4 331.7 283.6 331.7 271.5V222.5C331.7 210.4 341.5 200.6 353.6 200.6Z" fill="#A4B8FF" stroke="url(#paint6_linear)" stroke-width="1.1567"/>
<path d="M376.2 223.2C373.5 223.5 369.5 224.7 367.3 226C361.2 229.3 357 234.4 355 241.1C354.6 242.4 354.1 246 354.1 247.7C354.1 249.2 354.6 252.8 354.8 253.7C354.9 254.1 355.2 255.1 355.5 255.8C355.9 257.1 357.9 261.1 358.3 261.4C358.4 261.5 358.7 261.9 359.1 262.5C360 263.8 362.2 266 363.9 267.3C365.2 268.3 368.8 270.4 369.3 270.4C369.4 270.4 369.4 269.5 369.4 268.4C369.2 265.9 369.7 262.4 370.8 258.9C371 258.3 371.1 257.5 371.1 257.2C371.1 256.9 371.2 256.5 371.3 256.4C371.4 256.3 371.6 255.6 371.7 254.9C371.8 254.2 372.1 253.2 372.2 252.6C372.4 251.7 372.4 251.4 372.1 250.4C371.6 248.9 371.6 246.6 372.1 245.4C373.2 242.7 374.4 241.7 376.4 241.7C378.8 241.7 380 243.5 379.6 246.6C379.4 248 378.8 250.2 378.5 250.9C378.4 251.1 378.2 251.7 378.2 252.2C378.1 252.7 377.9 253.4 377.8 253.8C377.5 254.7 378.1 256.4 378.9 257.1C379.7 257.7 381.3 257.9 382.8 257.6C383.9 257.4 384.3 257.1 385.4 256C386.4 255 387.2 254 387.5 253.2C387.7 252.8 387.6 252.2 387.9 251.9C388.5 251.3 388.9 246.3 388.4 244.2C387.9 241.9 386.2 239.6 384.1 238.3C382 237 377.6 236.6 374.9 237.5C373 238.1 371.3 239.2 370.3 240.5C369.3 241.6 368.3 243.4 368.3 244.1C368.3 244.3 368.2 244.6 368 244.8C367.9 244.9 367.7 245.8 367.6 246.7C367.5 248.1 367.6 248.7 368 250.1C368.3 251 368.8 252.1 369.1 252.5C369.7 253.3 369.7 253.6 369.1 255.8C368.9 256.4 368.7 256.9 368.5 257C367.1 257.5 364.1 254.1 363.1 250.7C362.7 249.4 362.7 244.8 363.1 243.4C363.3 242.8 363.5 242.1 363.7 241.6C363.9 241.2 364 240.8 364 240.7C364 240.6 364.5 239.8 365 239C368 234.5 372.8 232.2 379 232.2C380.4 232.2 381.9 232.3 382.2 232.4C385.4 233.4 386.2 233.7 387.5 234.4C389.9 235.8 391.7 237.8 393.4 241.1C393.5 241.3 393.7 241.9 393.7 242.3C393.8 242.8 394 243.2 394.1 243.3C394.2 243.4 394.3 244.9 394.3 246.6C394.3 249.8 394.1 251.1 393.1 253.7C392 256.6 389.2 259.7 386.7 260.9C385.2 261.6 382.5 262.3 381.5 262.3C380 262.3 377.2 261.1 376.4 260.2C376 259.8 375.7 259.9 375.7 260.5C375.7 260.7 375.6 261.1 375.5 261.3C375.4 261.5 375.2 262.1 375.1 262.7C374.4 265.7 373.5 268.2 372 270.4C371.6 271.1 371.9 271.5 373.1 271.7C373.7 271.8 374.5 272 374.9 272.1C375.8 272.4 380.8 272.4 382.5 272.1C384 271.8 386.5 271.1 387.6 270.7C394.5 267.9 399.8 262.1 402.1 254.8C403.3 250.9 403.4 246.4 402.3 241.8C401.9 240.3 401.8 240 400.8 237.7C399.4 234.4 396.2 230.5 392.9 228.1C390.1 226 387.3 224.9 383 223.8C381.8 223.3 377.6 223.1 376.2 223.2Z" fill="white"/>
<path d="M376.3 223.7C376.9 223.6 378.3 223.6 379.7 223.7C381.1 223.8 382.4 223.9 383 224C387.3 225 389.9 226.2 392.7 228.2C395.9 230.6 399.1 234.4 400.4 237.6C401.4 239.9 401.5 240.2 401.8 241.6C402.9 246.1 402.8 250.5 401.6 254.3C399.4 261.5 394.2 267.1 387.4 269.9C386.3 270.3 383.9 271 382.4 271.3C381.6 271.4 380 271.5 378.4 271.5C377.6 271.5 376.9 271.5 376.3 271.5C375.7 271.5 375.2 271.4 375.1 271.4C374.7 271.3 373.9 271.1 373.3 271C373 271 372.8 270.9 372.7 270.9C372.6 270.8 372.5 270.8 372.5 270.8C372.5 270.8 372.5 270.7 372.6 270.6C374.1 268.3 375 265.8 375.7 262.7C375.8 262.4 375.8 262.2 375.9 261.9C376 261.7 376 261.5 376.1 261.4C376.2 261.2 376.3 261 376.3 260.9C376.3 260.8 376.4 260.7 376.4 260.5C376.6 260.7 376.9 260.9 377.3 261.1C377.7 261.4 378.2 261.6 378.7 261.8C379.7 262.2 380.9 262.6 381.7 262.6C382.3 262.6 383.3 262.4 384.3 262.1C385.3 261.8 386.4 261.5 387.1 261.1C388.4 260.4 389.8 259.3 391 258C392.2 256.7 393.2 255.1 393.8 253.6C394.3 252.3 394.6 251.3 394.8 250.2C395 249.1 395 248 395 246.4C395 245.5 395 244.7 394.9 244.1C394.9 243.8 394.9 243.5 394.8 243.3C394.8 243.2 394.8 243.1 394.7 243C394.7 243 394.7 242.9 394.6 242.9C394.6 242.9 394.5 242.8 394.5 242.7C394.5 242.7 394.5 242.6 394.4 242.6C394.3 242.5 394.3 242.3 394.3 242.1C394.3 241.8 394.2 241.6 394.1 241.3C394 241.1 394 240.8 393.9 240.7C392.1 237.4 390.3 235.3 387.8 233.8C386.5 233 385.6 232.7 382.4 231.7C382.1 231.6 381.6 231.6 381 231.5C380.4 231.5 379.7 231.4 379 231.4C372.7 231.4 367.7 233.8 364.6 238.5C364.3 238.9 364 239.3 363.9 239.7C363.8 239.9 363.7 240 363.7 240.1C363.7 240.2 363.6 240.2 363.6 240.3V240.4V240.5C363.6 240.5 363.6 240.6 363.5 240.7C363.4 240.8 363.4 241 363.3 241.2C363.1 241.6 362.8 242.4 362.7 243C362.5 243.8 362.4 245.3 362.4 246.8C362.4 247.6 362.4 248.3 362.5 249C362.5 249.6 362.6 250.2 362.7 250.6C363.2 252.4 364.2 254.2 365.3 255.4C365.8 256 366.4 256.6 367 256.9C367.5 257.2 368.2 257.4 368.8 257.2C369 257.1 369.1 257 369.2 256.9C369.3 256.8 369.3 256.7 369.4 256.6C369.5 256.3 369.6 256 369.7 255.7C370 254.6 370.1 253.9 370.1 253.4C370.1 252.8 369.9 252.4 369.5 251.9C369.2 251.6 368.8 250.5 368.5 249.6C368.3 248.9 368.2 248.5 368.1 248C368 247.5 368 247.1 368.1 246.4C368.1 245.9 368.2 245.5 368.3 245.2C368.3 245 368.4 244.9 368.4 244.8C368.4 244.8 368.4 244.8 368.4 244.7C368.5 244.6 368.6 244.4 368.7 244.3C368.8 244.1 368.8 243.9 368.8 243.7C368.8 243.6 368.8 243.5 368.9 243.2C369 242.9 369.1 242.6 369.3 242.3C369.7 241.6 370.1 240.9 370.6 240.4C371.6 239.2 373.2 238.2 375 237.6C376.3 237.2 377.9 237 379.6 237.2C381.3 237.3 382.8 237.8 383.7 238.4C385.7 239.7 387.3 241.8 387.7 244C387.9 245 388 246.7 387.9 248.3C387.8 249.1 387.8 249.8 387.7 250.4C387.6 250.7 387.6 250.9 387.5 251.1C387.4 251.3 387.4 251.3 387.4 251.3C387.1 251.6 387 251.9 387 252.2C387 252.3 387 252.3 387 252.4C387 252.6 387 252.7 386.9 252.8C386.6 253.5 385.8 254.5 384.9 255.5C384.4 256 384 256.3 383.7 256.5C383.4 256.7 383.1 256.8 382.6 256.9C381.9 257.1 381.2 257.1 380.6 257C380 256.9 379.5 256.7 379.2 256.5C378.9 256.3 378.6 255.8 378.4 255.2C378.2 254.6 378.2 254.1 378.3 253.8C378.4 253.4 378.6 252.7 378.7 252.1L376.3 223.7ZM378.5 252.1C378.6 251.7 378.7 251.2 378.8 251L378.5 252.1ZM378.5 252.1L378.8 251L378.5 252.1ZM378.7 251C378.9 250.6 379.2 249.8 379.4 249C379.6 248.2 379.8 247.3 379.9 246.5L378.7 251Z" stroke="url(#paint7_linear)" stroke-width="1.0312"/>
<path d="M476.6 319.2H523.5C535.4 319.2 545.1 328.8 545.1 340.8V387.7C545.1 399.6 535.5 409.3 523.5 409.3H476.6C464.7 409.3 455 399.7 455 387.7V340.8C455.1 328.8 464.7 319.2 476.6 319.2Z" fill="#A4BDFF" fill-opacity="0.01"/>
<path d="M476.6 319.7H523.5C535.1 319.7 544.5 329.1 544.5 340.7V387.6C544.5 399.2 535.1 408.6 523.5 408.6H476.6C465 408.6 455.6 399.2 455.6 387.6V340.7C455.6 329.1 465 319.7 476.6 319.7Z" fill="#A4BDFF" stroke="url(#paint8_linear)" stroke-width="1.1075"/>
<path d="M480.1 349.6C480.1 348.3 480.5 347.3 481.4 346.4C482.3 345.6 483.5 345.2 484.9 345.2C486.3 345.2 487.5 345.6 488.3 346.4C489.2 347.2 489.6 348.3 489.6 349.7C489.6 350.9 489.2 352 488.3 352.8C487.4 353.6 486.2 354.1 484.8 354.1C483.4 354.1 482.2 353.7 481.4 352.8C480.5 351.9 480.1 350.9 480.1 349.6ZM480.6 383.2V357.6H489.2V383.2H480.6ZM493.9 383.2H502.4V368.9C502.4 368 502.5 367.3 502.7 366.8C503.1 365.9 503.6 365.2 504.3 364.6C505 364 505.9 363.7 507.1 363.7C510 363.7 511.4 365.6 511.4 369.5V383.2H519.9V368.5C519.9 364.7 519 361.8 517.2 359.9C515.4 357.9 513 357 510.1 357C506.8 357 504.2 358.4 502.4 361.3V361.4V361.3V357.7H493.9C494 358.5 494 361.1 494 365.3C493.9 369.4 493.9 375.4 493.9 383.2Z" fill="white"/>
<path d="M319.2 346.2H385.7C402.3 346.2 415.8 359.7 415.8 376.3V442.8C415.8 459.4 402.3 472.9 385.7 472.9H319.2C302.6 472.9 289.1 459.4 289.1 442.8V376.3C289.1 359.6 302.5 346.2 319.2 346.2Z" fill="#A4B3FF" fill-opacity="0.01"/>
<path d="M319.2 346.9H385.7C401.9 346.9 415 360 415 376.2V442.7C415 458.9 401.9 472 385.7 472H319.2C303 472 289.9 458.9 289.9 442.7V376.2C289.9 360.1 303 346.9 319.2 346.9Z" fill="#A4B3FF" stroke="url(#paint9_linear)" stroke-width="1.5456"/>
<path fill-rule="evenodd" clip-rule="evenodd" d="M314.1 408.4C314.1 387 330.9 371.1 352.5 371.1C374.1 371.1 390.9 387 390.9 408.4C390.9 429.8 374.1 445.7 352.5 445.7C348.6 445.7 344.9 445.2 341.4 444.2C340.7 444 340 444.1 339.4 444.4L331.8 447.8C329.8 448.7 327.6 447.3 327.5 445.1L327.3 438.3C327.3 437.5 326.9 436.7 326.3 436.1C318.7 429.3 314.1 419.6 314.1 408.4ZM340.7 401.4L329.4 419.3C328.3 421 330.4 423 332 421.7L344.1 412.5C344.9 411.9 346 411.9 346.9 412.5L355.9 419.2C358.6 421.2 362.4 420.5 364.2 417.7L375.5 399.8C376.6 398.1 374.5 396.1 372.9 397.4L360.8 406.6C360 407.2 358.9 407.2 358 406.6L349 399.9C346.4 397.9 342.5 398.6 340.7 401.4Z" fill="white"/>
<path d="M275.7 25.2H342.8C359.6 25.2 373.1 38.7999 373.1 55.5V121.5C373.1 138.3 359.5 151.8 342.8 151.8H275.7C258.9 151.8 245.4 138.2 245.4 121.5V55.5C245.4 38.7 259 25.2 275.7 25.2Z" fill="#A4ABFF" fill-opacity="0.01"/>
<path d="M275.7 25.8999H342.8C359.1 25.8999 372.4 39.0999 372.4 55.4999V121.5C372.4 137.8 359.2 151.1 342.8 151.1H275.7C259.4 151.1 246.1 137.9 246.1 121.5V55.4999C246.2 39.1999 259.4 25.8999 275.7 25.8999Z" fill="#A4ABFF" stroke="url(#paint10_linear)" stroke-width="1.5586"/>
<path d="M334.8 114.8C340.1 109.2 343 101.5 343.2 92.6999C343.2 92.2999 343.2 91.8999 343.2 91.5999C343.2 90.9999 343.2 90.4999 343.2 89.8999C343.2 89.6999 343.2 89.4999 343.2 89.3999C343.2 88.9999 343.1 88.6999 343.1 88.2999C343.1 88.0999 343.1 87.8999 343 87.6999C343 87.3999 342.9 86.9999 342.9 86.6999C342.9 86.4999 342.9 86.2999 342.8 86.0999C342.8 85.8999 342.8 85.7999 342.7 85.5999L342.6 84.8999H311V97.7999H329.1C329 98.2999 328.9 98.7999 328.7 99.2999C328.7 99.3999 328.6 99.5999 328.6 99.6999C328.5 100.1 328.4 100.4 328.2 100.8C328.1 100.9 328.1 101.1 328 101.2C327.9 101.6 327.7 101.9 327.5 102.2C327.5 102.3 327.4 102.4 327.4 102.5C327.2 102.9 327 103.3 326.8 103.6C326.8 103.6 326.8 103.7 326.7 103.7C325.9 105 324.8 106.1 323.7 107C323.5 107.1 323.3 107.3 323.1 107.4C322.9 107.5 322.7 107.7 322.5 107.8C322.4 107.9 322.3 107.9 322.1 108C321.8 108.2 321.5 108.4 321.2 108.5C321 108.6 320.9 108.7 320.7 108.8C320.4 108.9 320.2 109.1 319.9 109.2C319.7 109.3 319.6 109.3 319.4 109.4C319.1 109.5 318.8 109.6 318.6 109.8C318.4 109.9 318.3 109.9 318.1 110C317.8 110.1 317.5 110.2 317.2 110.3C317 110.4 316.8 110.4 316.6 110.4C316.3 110.5 316 110.6 315.7 110.6C315.5 110.6 315.3 110.7 315.1 110.7C314.8 110.8 314.5 110.8 314.2 110.8C313.9 110.8 313.7 110.9 313.4 110.9C313.2 110.9 312.9 111 312.7 111C312.2 111 311.8 111 311.3 111.1C311.2 111.1 311.2 111.1 311.1 111.1C302.7 111.1 295.2 105.6 292.6 97.5999C292.6 97.4999 292.5 97.2999 292.5 97.1999C292.4 96.8999 292.3 96.5999 292.2 96.1999C292.1 95.9999 292.1 95.7999 292 95.5999C291.9 95.0999 291.7 94.5999 291.6 93.9999C291.6 93.8999 291.6 93.7999 291.6 93.5999C291.5 93.1999 291.5 92.7999 291.4 92.3999C291.4 92.1999 291.4 91.9999 291.4 91.7999C291.4 91.3999 291.4 91.0999 291.4 90.6999C291.4 90.4999 291.4 90.2999 291.4 90.0999C291.4 89.7999 291.4 89.3999 291.4 89.0999C291.4 88.8999 291.5 88.5999 291.5 88.3999C291.5 88.0999 291.6 87.7999 291.6 87.4999C291.6 87.2999 291.7 86.9999 291.8 86.7999C291.9 86.4999 291.9 86.1999 292 85.8999C292.1 85.6999 292.2 85.3999 292.2 85.1999C292.3 84.8999 292.4 84.5999 292.5 84.2999V84.1999C294.9 76.2999 302.2 70.7999 310.5 70.5999C310.6 70.5999 310.7 70.5999 310.8 70.5999C311.4 70.5999 312 70.5999 312.5 70.6999C312.8 70.6999 313.1 70.7999 313.5 70.7999C313.7 70.7999 314 70.8999 314.2 70.8999C314.6 70.9999 315 71.0999 315.4 71.1999C315.6 71.1999 315.7 71.2999 315.9 71.2999C316.3 71.3999 316.7 71.4999 317 71.6999C317.2 71.7999 317.3 71.7999 317.5 71.8999C317.9 71.9999 318.2 72.1999 318.5 72.2999C318.7 72.3999 318.9 72.4999 319 72.4999C319.3 72.5999 319.6 72.7999 319.9 72.9999C320.1 73.0999 320.3 73.1999 320.5 73.3999C320.8 73.5999 321 73.6999 321.2 73.8999C321.4 74.0999 321.7 74.1999 321.9 74.3999C322.1 74.5999 322.3 74.6999 322.5 74.8999C322.8 75.1999 323.2 75.3999 323.5 75.6999L333.1 66.0999L332.5 65.5999C332.4 65.4999 332.3 65.3999 332.2 65.3999C332 65.1999 331.8 65.0999 331.6 64.8999C331.4 64.6999 331.2 64.5999 331 64.3999C330.8 64.1999 330.6 64.0999 330.4 63.8999C330.2 63.7999 330 63.5999 329.9 63.4999C329.6 63.2999 329.4 63.0999 329.1 62.9999C329 62.8999 328.8 62.7999 328.7 62.6999C328.4 62.4999 328.1 62.2999 327.8 62.0999C327.7 61.9999 327.6 61.9999 327.5 61.8999C327.1 61.6999 326.8 61.4999 326.4 61.2999C326.3 61.2999 326.3 61.1999 326.2 61.1999C325.8 60.9999 325.4 60.7999 325 60.5999C322.4 59.2999 319.5 58.3999 316.7 57.8999C316.6 57.8999 316.6 57.8999 316.5 57.8999C316.1 57.7999 315.7 57.7999 315.2 57.6999C315.1 57.6999 314.9 57.6999 314.8 57.6999C314.5 57.6999 314.1 57.5999 313.8 57.5999C313.5 57.5999 313.3 57.5999 313 57.5999C312.8 57.5999 312.6 57.5999 312.4 57.5999C311.9 57.5999 311.5 57.5999 311 57.5999H310.9C298.3 57.5999 286.7 64.5999 281.2 75.7999C281.2 75.8999 281.2 75.8999 281.1 75.9999L281 76.2999C280.9 76.4999 280.8 76.7999 280.7 76.9999C280.6 77.2999 280.5 77.4999 280.3 77.7999C280.1 78.1999 280 78.4999 279.9 78.8999C279.8 79.0999 279.7 79.2999 279.7 79.4999C279.5 79.9999 279.4 80.3999 279.2 80.8999C279.2 80.9999 279.1 81.1999 279.1 81.2999C278.9 81.8999 278.8 82.4999 278.6 83.0999C276.8 90.5999 277.7 98.5999 281.3 105.8V105.9L281.4 106.1C281.6 106.5 281.8 106.8 282 107.1C282.2 107.4 282.3 107.7 282.5 108C282.7 108.4 283 108.8 283.3 109.2C283.5 109.5 283.6 109.7 283.8 110C284.1 110.4 284.4 110.8 284.7 111.2C284.9 111.4 285 111.6 285.2 111.8C285.5 112.2 285.9 112.6 286.3 113.1C286.4 113.3 286.6 113.4 286.7 113.6C287.1 114 287.5 114.4 287.9 114.8C288 114.9 288.2 115.1 288.3 115.2C288.7 115.6 289.2 116 289.6 116.4C289.7 116.5 289.9 116.6 290 116.7C290.4 117.1 290.9 117.4 291.4 117.7C291.5 117.8 291.7 117.9 291.8 118C292.2 118.3 292.7 118.6 293.2 118.9C293.4 119 293.6 119.1 293.7 119.3C294.1 119.6 294.6 119.8 295 120.1C295.2 120.2 295.4 120.4 295.7 120.5C296.1 120.7 296.5 120.9 296.9 121.1C297.2 121.2 297.4 121.4 297.7 121.5C298.1 121.7 298.5 121.8 298.8 122C299.1 122.1 299.4 122.3 299.8 122.4C300.1 122.5 300.5 122.6 300.8 122.7C301.2 122.8 301.6 123 301.9 123.1C302.2 123.2 302.5 123.3 302.8 123.3C303.2 123.4 303.6 123.5 304.1 123.6C304.4 123.7 304.7 123.7 305 123.8C305.5 123.9 305.9 124 306.4 124C306.7 124 307 124.1 307.4 124.1C307.8 124.2 308.3 124.2 308.7 124.2C309.1 124.2 309.4 124.2 309.8 124.2C310.2 124.2 310.6 124.2 311 124.2C311.2 124.2 311.5 124.2 311.7 124.2C312 124.2 312.3 124.2 312.7 124.2C312.9 124.2 313.2 124.2 313.4 124.2C313.7 124.2 314 124.2 314.3 124.1C314.5 124.1 314.7 124.1 315 124C315.3 124 315.6 123.9 315.9 123.9C316.1 123.9 316.3 123.8 316.5 123.8C316.8 123.8 317.1 123.7 317.5 123.7C317.7 123.7 317.9 123.6 318.1 123.6C318.4 123.5 318.8 123.5 319.1 123.4C319.3 123.4 319.4 123.3 319.6 123.3C319.9 123.2 320.3 123.1 320.6 123.1C320.8 123.1 320.9 123 321.1 123C321.4 122.9 321.8 122.8 322.1 122.7C322.3 122.6 322.4 122.6 322.6 122.5C322.9 122.4 323.2 122.3 323.5 122.2C323.7 122.1 323.8 122.1 324 122C324.3 121.9 324.6 121.8 324.9 121.7C325.1 121.6 325.3 121.5 325.5 121.4C325.8 121.3 326 121.2 326.3 121.1C326.5 121 326.7 120.9 327 120.8C327.2 120.7 327.4 120.6 327.6 120.5C327.9 120.4 328.1 120.2 328.4 120C328.5 119.9 328.7 119.8 328.8 119.7C329.1 119.5 329.5 119.3 329.8 119.1C329.9 119.1 329.9 119 330 119C331.2 118.2 332.4 117.3 333.4 116.3C333.6 116.1 333.8 115.9 334 115.7C334.2 115.5 334.4 115.3 334.6 115.1C334.7 114.9 334.8 114.8 334.8 114.8Z" fill="white"/>
<path d="M199.2 202.2H265.7C282.3 202.2 295.8 215.7 295.8 232.3V297.8C295.8 314.4 282.3 327.9 265.7 327.9H199.2C182.6 327.9 169.1 314.4 169.1 297.8V232.3C169.1 215.6 182.5 202.2 199.2 202.2Z" fill="#A4B9FF" fill-opacity="0.01"/>
<path d="M199.2 202.9H265.7C281.9 202.9 295 216 295 232.2V297.7C295 313.9 281.9 327 265.7 327H199.2C183 327 169.9 313.9 169.9 297.7V232.2C169.9 216.1 183 202.9 199.2 202.9Z" fill="#A4B9FF" stroke="url(#paint11_linear)" stroke-width="1.5456"/>
<path d="M234.3 291.1L218.5 290.8C213.4 290.7 208.3 290.9 203.2 289.9C195.6 288.3 195 280.7 194.5 274.4C193.7 265.4 194 256.3 195.5 247.4C196.3 242.4 199.6 239.4 204.6 239.1C221.7 237.9 238.8 238.1 255.8 238.6C257.6 238.7 259.4 238.9 261.2 239.2C269.9 240.7 270.2 249.3 270.7 256.6C271.3 263.9 271 271.3 269.9 278.6C269 284.6 267.4 289.7 260.4 290.2C251.7 290.8 243.2 291.3 234.3 291.1C234.3 291.1 234.4 291.1 234.3 291.1ZM225 275.8C231.6 272 238.1 268.3 244.7 264.6C238.1 260.8 231.6 257.1 225 253.4V275.8Z" fill="white"/>
<path d="M270.8 256.6C271.4 263.9 271.1 271.3 270 278.6C269.1 284.6 267.5 289.7 260.5 290.2C251.7 290.8 243.2 291.4 234.4 291.2L270.8 256.6ZM270.8 256.6C270.8 256.3 270.7 255.9 270.7 255.6C270.2 248.6 269.6 240.7 261.3 239.3C259.5 239 257.7 238.7 255.9 238.7C238.9 238.1 221.7 238 204.7 239.2C199.6 239.5 196.4 242.5 195.6 247.5L270.8 256.6ZM270.8 256.6L270.1 256.7L270.8 256.6ZM270.8 256.6L270.1 256.7L270.8 256.6ZM195.5 247.4C194 256.3 193.7 265.4 194.5 274.4L195.5 247.4ZM195.5 247.4L196.2 247.5L195.5 247.4ZM195.5 247.4L196.2 247.5L195.5 247.4ZM194.5 274.3C194.5 274.4 194.5 274.5 194.5 274.6C195.1 280.9 195.7 288.3 203.2 289.8C207.2 290.6 211.3 290.7 215.5 290.7C216.5 290.7 217.5 290.7 218.5 290.7L194.5 274.3ZM194.5 274.3L195.2 274.2L194.5 274.3ZM194.5 274.3L195.2 274.2L194.5 274.3ZM218.5 290.8L234.3 291.1L218.5 290.8ZM218.5 290.8V290.1V290.8ZM218.5 290.8V290.1V290.8ZM234.3 291.1C234.3 291.1 234.4 291.1 234.3 291.1V291.1ZM234.3 291.1V290.4V291.1ZM234.3 291.1V290.4V291.1ZM234.4 291.1H235.1C235.1 290.9 235 290.7 234.9 290.6C234.8 290.5 234.7 290.4 234.6 290.4L234.4 291.1ZM234.4 291.1V290.4C234.5 290.4 234.5 290.4 234.6 290.4L234.4 291.1ZM234.6 290.4C234.6 290.4 234.5 290.4 234.6 290.4C234.5 290.4 234.4 290.4 234.4 290.4H234.3H234.6ZM234.6 290.4C243.3 290.6 251.8 290 260.5 289.4C263.8 289.2 265.8 287.9 267 286C268.3 284.1 268.9 281.4 269.3 278.4C270.4 271.2 270.6 263.9 270 256.6L234.6 290.4ZM270.1 256.7C270.1 256.4 270 256 270 255.7C269.7 252.3 269.5 248.9 268.4 246.1C267.8 244.6 267 243.2 265.9 242.2C264.8 241.2 263.2 240.4 261.2 240C259.4 239.7 257.7 239.4 255.9 239.4C238.9 238.8 221.8 238.7 204.7 239.9C202.3 240.1 200.4 240.8 199 242.1C197.6 243.4 196.6 245.2 196.2 247.6L270.1 256.7ZM196.2 247.5C194.7 256.3 194.4 265.4 195.2 274.3L196.2 247.5ZM195.2 274.3C195.2 274.4 195.2 274.5 195.2 274.6C195.5 277.7 195.8 281 196.8 283.7C197.9 286.4 199.8 288.5 203.3 289.2C207.3 290 211.3 290.1 215.4 290.1C216.4 290.1 217.4 290.1 218.4 290.1L195.2 274.3ZM218.5 290.1L234.3 290.4L218.5 290.1ZM224.3 275.8V277L225.4 276.4C228.2 274.8 231 273.2 233.7 271.6C237.5 269.4 241.2 267.3 245 265.1L246.1 264.5L245 264C241.4 261.9 237.9 259.9 234.3 257.9C231.3 256.2 228.3 254.5 225.3 252.8L224.2 252.2V253.4V275.8H224.3Z" stroke="url(#paint12_linear)" stroke-width="1.4282"/>
<defs>
<linearGradient id="paint0_linear" x1="193.842" y1="346.541" x2="193.842" y2="445.459" gradientUnits="userSpaceOnUse">
<stop stop-color="white" stop-opacity="0.18"/>
<stop offset="1" stop-color="white" stop-opacity="0"/>
</linearGradient>
<linearGradient id="paint1_linear" x1="511.384" y1="172.541" x2="511.384" y2="288.542" gradientUnits="userSpaceOnUse">
<stop stop-color="white" stop-opacity="0.11"/>
<stop offset="1" stop-color="white" stop-opacity="0"/>
</linearGradient>
<linearGradient id="paint2_linear" x1="514.391" y1="205.523" x2="514.391" y2="255.302" gradientUnits="userSpaceOnUse">
<stop stop-color="white"/>
<stop offset="1" stop-color="white" stop-opacity="0"/>
</linearGradient>
<linearGradient id="paint3_linear" x1="453.446" y1="52.541" x2="453.446" y2="151.831" gradientUnits="userSpaceOnUse">
<stop stop-color="white" stop-opacity="0.38"/>
<stop offset="1" stop-color="white" stop-opacity="0"/>
</linearGradient>
<linearGradient id="paint4_linear" x1="153.258" y1="92.5411" x2="153.258" y2="191.459" gradientUnits="userSpaceOnUse">
<stop stop-color="white" stop-opacity="0.38"/>
<stop offset="1" stop-color="white" stop-opacity="0"/>
</linearGradient>
<linearGradient id="paint5_linear" x1="73.1417" y1="229.168" x2="73.1417" y2="328.458" gradientUnits="userSpaceOnUse">
<stop stop-color="white" stop-opacity="0.38"/>
<stop offset="1" stop-color="white" stop-opacity="0"/>
</linearGradient>
<linearGradient id="paint6_linear" x1="378.08" y1="200" x2="378.08" y2="293.999" gradientUnits="userSpaceOnUse">
<stop stop-color="white" stop-opacity="0.11"/>
<stop offset="1" stop-color="white" stop-opacity="0"/>
</linearGradient>
<linearGradient id="paint7_linear" x1="382.429" y1="223.168" x2="382.429" y2="272.169" gradientUnits="userSpaceOnUse">
<stop stop-color="white"/>
<stop offset="1" stop-color="white" stop-opacity="0"/>
</linearGradient>
<linearGradient id="paint8_linear" x1="500.079" y1="319.168" x2="500.079" y2="409.168" gradientUnits="userSpaceOnUse">
<stop stop-color="white" stop-opacity="0.11"/>
<stop offset="1" stop-color="white" stop-opacity="0"/>
</linearGradient>
<linearGradient id="paint9_linear" x1="352.411" y1="346.168" x2="352.411" y2="472.832" gradientUnits="userSpaceOnUse">
<stop stop-color="white" stop-opacity="0.38"/>
<stop offset="1" stop-color="white" stop-opacity="0"/>
</linearGradient>
<linearGradient id="paint10_linear" x1="309.279" y1="25.1684" x2="309.279" y2="151.832" gradientUnits="userSpaceOnUse">
<stop stop-color="white" stop-opacity="0.38"/>
<stop offset="1" stop-color="white" stop-opacity="0"/>
</linearGradient>
<linearGradient id="paint11_linear" x1="232.411" y1="202.168" x2="232.411" y2="327.776" gradientUnits="userSpaceOnUse">
<stop stop-color="white" stop-opacity="0.38"/>
<stop offset="1" stop-color="white" stop-opacity="0"/>
</linearGradient>
<linearGradient id="paint12_linear" x1="232.58" y1="238.168" x2="232.58" y2="291.168" gradientUnits="userSpaceOnUse">
<stop stop-color="white"/>
<stop offset="1" stop-color="white" stop-opacity="0"/>
</linearGradient>
</defs>
</svg>
