<svg width="83" height="18" viewBox="0 0 83 18" fill="none" xmlns="http://www.w3.org/2000/svg">
<path d="M3.674 17.456C5.412 17.456 6.886 16.686 7.436 15.454L7.656 17.192H9.416V10.438C9.416 7.53398 7.612 6.12598 4.95 6.12598C2.178 6.12598 0.33 7.59998 0.33 9.84398H2.134C2.134 8.54598 3.124 7.77598 4.862 7.77598C6.314 7.77598 7.392 8.41398 7.392 10.218V10.526L4.004 10.79C1.474 10.988 0 12.22 0 14.2C0 16.158 1.364 17.456 3.674 17.456ZM4.268 15.85C2.926 15.85 2.09 15.278 2.09 14.134C2.09 13.078 2.838 12.374 4.664 12.198L7.414 11.978V12.55C7.414 14.574 6.226 15.85 4.268 15.85Z" fill="white"/>
<path d="M19.44 6.34599C19.022 6.25799 18.714 6.21399 18.34 6.21399C16.866 6.21399 15.788 6.96199 15.348 8.08399L15.216 6.45599H13.28V17.192H15.348V11.494C15.348 9.42599 16.558 8.23799 18.516 8.23799H19.44V6.34599Z" fill="white"/>
<path d="M24.4916 17.192V14.134L26.3176 12.22L29.4636 17.192H31.8396L27.7476 10.724L31.8616 6.434H29.2656L24.4916 11.494V1H22.4236V17.192H24.4916Z" fill="white"/>
<path d="M63.068 17.192V14.134L64.894 12.22L68.04 17.192H70.416L66.324 10.724L70.438 6.434H67.842L63.068 11.494V1H61V17.192H63.068Z" fill="white"/>
<path d="M35.5635 3.88205C36.3115 3.88205 36.9275 3.26605 36.9275 2.51805C36.9275 1.74805 36.3115 1.15405 35.5635 1.15405C34.8155 1.15405 34.1995 1.74805 34.1995 2.51805C34.1995 3.26605 34.8155 3.88205 35.5635 3.88205ZM34.5515 17.1921H36.6195V6.43405H34.5515V17.1921Z" fill="white"/>
<path d="M43.6578 17.192V8.17199H45.7698V6.43399H43.6578V3.06799H41.5898V6.43399H39.4778V8.17199H41.5898V17.192H43.6578Z" fill="white"/>
<path d="M53.1602 17.456C55.8222 17.456 57.6262 16.158 58.1542 13.848H56.2182C55.8662 15.08 54.8102 15.74 53.2042 15.74C51.1582 15.74 49.9702 14.486 49.8162 12.22L58.1322 12.198V11.428C58.1322 8.23798 56.1302 6.12598 53.0722 6.12598C49.9482 6.12598 47.8142 8.45798 47.8142 11.824C47.8142 15.168 49.9922 17.456 53.1602 17.456ZM53.0722 7.86398C54.8982 7.86398 56.0642 9.05198 56.0642 10.834H49.8602C50.1242 8.94198 51.2682 7.86398 53.0722 7.86398Z" fill="white"/>
<path d="M77.554 10.02C80.128 10.02 82.064 8.084 82.064 5.51C82.064 2.936 80.128 1 77.554 1C74.98 1 73 2.958 73 5.51C73 8.062 74.958 10.02 77.554 10.02ZM77.554 9.272C75.398 9.272 73.814 7.666 73.814 5.51C73.814 3.354 75.398 1.748 77.554 1.748C79.688 1.748 81.272 3.354 81.272 5.51C81.272 7.666 79.688 9.272 77.554 9.272ZM76.586 7.974V6.126H77.796L78.764 7.974H79.666L78.544 5.906C79.226 5.664 79.6 5.114 79.6 4.454C79.6 3.486 78.852 2.914 77.752 2.914H75.772V7.974H76.586ZM78.72 4.498C78.72 5.048 78.346 5.356 77.73 5.356H76.586V3.684H77.73C78.346 3.684 78.72 3.948 78.72 4.498Z" fill="white"/>
</svg>
