<svg width="92" height="17" viewBox="0 0 92 17" fill="none" xmlns="http://www.w3.org/2000/svg">
<path d="M3.674 16.456C5.412 16.456 6.886 15.686 7.436 14.454L7.656 16.192H9.416V9.43798C9.416 6.53398 7.612 5.12598 4.95 5.12598C2.178 5.12598 0.33 6.59998 0.33 8.84398H2.134C2.134 7.54598 3.124 6.77598 4.862 6.77598C6.314 6.77598 7.392 7.41398 7.392 9.21798V9.52598L4.004 9.78998C1.474 9.98798 0 11.22 0 13.2C0 15.158 1.364 16.456 3.674 16.456ZM4.268 14.85C2.926 14.85 2.09 14.278 2.09 13.134C2.09 12.078 2.838 11.374 4.664 11.198L7.414 10.978V11.55C7.414 13.574 6.226 14.85 4.268 14.85Z" fill="#191919"/>
<path d="M19.44 5.34599C19.022 5.25799 18.714 5.21399 18.34 5.21399C16.866 5.21399 15.788 5.96199 15.348 7.08399L15.216 5.45599H13.28V16.192H15.348V10.494C15.348 8.42599 16.558 7.23799 18.516 7.23799H19.44V5.34599Z" fill="#191919"/>
<path d="M24.4916 16.192V13.134L26.3176 11.22L29.4636 16.192H31.8396L27.7476 9.724L31.8616 5.434H29.2656L24.4916 10.494V0H22.4236V16.192H24.4916Z" fill="#191919"/>
<path d="M63.068 16.192V13.134L64.894 11.22L68.04 16.192H70.416L66.324 9.724L70.438 5.434H67.842L63.068 10.494V0H61V16.192H63.068Z" fill="#191919"/>
<path d="M35.5635 2.88205C36.3115 2.88205 36.9275 2.26605 36.9275 1.51805C36.9275 0.748053 36.3115 0.154053 35.5635 0.154053C34.8155 0.154053 34.1995 0.748053 34.1995 1.51805C34.1995 2.26605 34.8155 2.88205 35.5635 2.88205ZM34.5515 16.1921H36.6195V5.43405H34.5515V16.1921Z" fill="#191919"/>
<path d="M43.6578 16.192V7.17199H45.7698V5.43399H43.6578V2.06799H41.5898V5.43399H39.4778V7.17199H41.5898V16.192H43.6578Z" fill="#191919"/>
<path d="M53.1602 16.456C55.8222 16.456 57.6262 15.158 58.1542 12.848H56.2182C55.8662 14.08 54.8102 14.74 53.2042 14.74C51.1582 14.74 49.9702 13.486 49.8162 11.22L58.1322 11.198V10.428C58.1322 7.23798 56.1302 5.12598 53.0722 5.12598C49.9482 5.12598 47.8142 7.45798 47.8142 10.824C47.8142 14.168 49.9922 16.456 53.1602 16.456ZM53.0722 6.86398C54.8982 6.86398 56.0642 8.05198 56.0642 9.83398H49.8602C50.1242 7.94198 51.2682 6.86398 53.0722 6.86398Z" fill="#191919"/>
<path d="M77.554 9.02C80.128 9.02 82.064 7.084 82.064 4.51C82.064 1.936 80.128 0 77.554 0C74.98 0 73 1.958 73 4.51C73 7.062 74.958 9.02 77.554 9.02ZM77.554 8.272C75.398 8.272 73.814 6.666 73.814 4.51C73.814 2.354 75.398 0.748001 77.554 0.748001C79.688 0.748001 81.272 2.354 81.272 4.51C81.272 6.666 79.688 8.272 77.554 8.272ZM76.586 6.974V5.126H77.796L78.764 6.974H79.666L78.544 4.906C79.226 4.664 79.6 4.114 79.6 3.454C79.6 2.486 78.852 1.914 77.752 1.914H75.772V6.974H76.586ZM78.72 3.498C78.72 4.048 78.346 4.356 77.73 4.356H76.586V2.684H77.73C78.346 2.684 78.72 2.948 78.72 3.498Z" fill="#191919"/>
</svg>
